%TF.GenerationSoftware,KiCad,Pcbnew,10.0.5*%
%TF.CreationDate,2026-08-20T22:42:10+03:00*%
%TF.ProjectId,MorePCBDoodles,4d6f7265-5043-4424-946f-6f646c65732e,rev?*%
%TF.SameCoordinates,Original*%
%TF.FileFunction,Soldermask,Bot*%
%TF.FilePolarity,Negative*%
%FSLAX46Y46*%
G04 Gerber Fmt 4.6, Leading zero omitted, Abs format (unit mm)*
G04 Created by KiCad (PCBNEW 10.0.5) date 2026-08-20 22:42:10*
%MOMM*%
%LPD*%
G01*
G04 APERTURE LIST*
G04 Aperture macros list*
%AMRoundRect*
0 Rectangle with rounded corners*
0 $1 Rounding radius*
0 $2 $3 $4 $5 $6 $7 $8 $9 X,Y pos of 4 corners*
0 Add a 4 corners polygon primitive as box body*
4,1,4,$2,$3,$4,$5,$6,$7,$8,$9,$2,$3,0*
0 Add four circle primitives for the rounded corners*
1,1,$1+$1,$2,$3*
1,1,$1+$1,$4,$5*
1,1,$1+$1,$6,$7*
1,1,$1+$1,$8,$9*
0 Add four rect primitives between the rounded corners*
20,1,$1+$1,$2,$3,$4,$5,0*
20,1,$1+$1,$4,$5,$6,$7,0*
20,1,$1+$1,$6,$7,$8,$9,0*
20,1,$1+$1,$8,$9,$2,$3,0*%
G04 Aperture macros list end*
%ADD10C,1.600000*%
%ADD11RoundRect,0.250000X-0.350000X-0.350000X0.350000X-0.350000X0.350000X0.350000X-0.350000X0.350000X0*%
%ADD12C,1.200000*%
%ADD13C,3.250000*%
%ADD14C,1.900000*%
%ADD15R,1.900000X1.900000*%
%ADD16C,2.500000*%
%ADD17RoundRect,0.250000X0.750000X-0.750000X0.750000X0.750000X-0.750000X0.750000X-0.750000X-0.750000X0*%
%ADD18C,2.000000*%
%ADD19RoundRect,0.250000X-0.600000X-0.725000X0.600000X-0.725000X0.600000X0.725000X-0.600000X0.725000X0*%
%ADD20O,1.700000X1.950000*%
%ADD21R,1.700000X1.700000*%
%ADD22C,1.700000*%
%ADD23R,0.850000X0.850000*%
%ADD24C,0.850000*%
%ADD25O,0.950000X1.950000*%
%ADD26O,0.950000X2.150000*%
G04 APERTURE END LIST*
D10*
%TO.C,C17*%
X91500000Y-88050000D03*
X94000000Y-88050000D03*
%TD*%
%TO.C,R3*%
X111000000Y-133080000D03*
X111000000Y-122920000D03*
%TD*%
D11*
%TO.C,C9*%
X112500000Y-38000000D03*
D12*
X114000000Y-38000000D03*
%TD*%
D11*
%TO.C,C4*%
X112500000Y-63500000D03*
D12*
X114000000Y-63500000D03*
%TD*%
D11*
%TO.C,C5*%
X102500000Y-38500000D03*
D12*
X104000000Y-38500000D03*
%TD*%
D10*
%TO.C,C6*%
X62500000Y-141500000D03*
X65000000Y-141500000D03*
%TD*%
%TO.C,R1*%
X102900000Y-133080000D03*
X102900000Y-122920000D03*
%TD*%
D13*
%TO.C,J4*%
X85785000Y-161000000D03*
X97215000Y-161000000D03*
D14*
X97825000Y-164380000D03*
X95285000Y-165900000D03*
X87715000Y-164380000D03*
X85175000Y-165900000D03*
D15*
X85785000Y-152110000D03*
D14*
X87055000Y-154650000D03*
X88325000Y-152110000D03*
X89595000Y-154650000D03*
X90865000Y-152110000D03*
X92135000Y-154650000D03*
X93405000Y-152110000D03*
X94675000Y-154650000D03*
X95945000Y-152110000D03*
X97215000Y-154650000D03*
D16*
X83725000Y-157950000D03*
X99275000Y-157950000D03*
%TD*%
D17*
%TO.C,C12*%
X100672500Y-112000000D03*
D18*
X100672500Y-97000000D03*
%TD*%
D19*
%TO.C,J5*%
X57500000Y-55000000D03*
D20*
X60000000Y-55000000D03*
X62500000Y-55000000D03*
X65000000Y-55000000D03*
X67500000Y-55000000D03*
X70000000Y-55000000D03*
%TD*%
D21*
%TO.C,J8*%
X50000000Y-112720000D03*
D22*
X50000000Y-115260000D03*
X50000000Y-117800000D03*
X50000000Y-120340000D03*
X50000000Y-122880000D03*
X50000000Y-125420000D03*
X50000000Y-127960000D03*
X50000000Y-130500000D03*
X50000000Y-133040000D03*
X50000000Y-135580000D03*
%TD*%
D11*
%TO.C,C10*%
X93000000Y-38000000D03*
D12*
X94500000Y-38000000D03*
%TD*%
D17*
%TO.C,C13*%
X107207500Y-112000000D03*
D18*
X107207500Y-97000000D03*
%TD*%
D10*
%TO.C,R4*%
X115050000Y-133080000D03*
X115050000Y-122920000D03*
%TD*%
D23*
%TO.C,J3*%
X98500000Y-61500000D03*
D24*
X98500000Y-62500000D03*
X98500000Y-63500000D03*
X98500000Y-64500000D03*
%TD*%
D11*
%TO.C,C7*%
X63500000Y-87000000D03*
D12*
X65000000Y-87000000D03*
%TD*%
D10*
%TO.C,R6*%
X123150000Y-133080000D03*
X123150000Y-122920000D03*
%TD*%
D21*
%TO.C,J9*%
X49500000Y-141000000D03*
D22*
X49500000Y-143540000D03*
X49500000Y-146080000D03*
X49500000Y-148620000D03*
%TD*%
D11*
%TO.C,C8*%
X83500000Y-99000000D03*
D12*
X85000000Y-99000000D03*
%TD*%
D11*
%TO.C,C18*%
X84500000Y-38000000D03*
D12*
X86000000Y-38000000D03*
%TD*%
D11*
%TO.C,C2*%
X65500000Y-73000000D03*
D12*
X67000000Y-73000000D03*
%TD*%
D11*
%TO.C,C3*%
X90000000Y-63000000D03*
D12*
X91500000Y-63000000D03*
%TD*%
D21*
%TO.C,J10*%
X49500000Y-154500000D03*
D22*
X49500000Y-157040000D03*
X49500000Y-159580000D03*
X49500000Y-162120000D03*
%TD*%
D11*
%TO.C,C1*%
X89500000Y-122500000D03*
D12*
X91000000Y-122500000D03*
%TD*%
D10*
%TO.C,C11*%
X91500000Y-84000000D03*
X94000000Y-84000000D03*
%TD*%
%TO.C,R2*%
X106950000Y-133080000D03*
X106950000Y-122920000D03*
%TD*%
D17*
%TO.C,C16*%
X126812500Y-112000000D03*
D18*
X126812500Y-97000000D03*
%TD*%
D23*
%TO.C,J2*%
X86500000Y-73000000D03*
D24*
X86500000Y-74000000D03*
X86500000Y-75000000D03*
X86500000Y-76000000D03*
%TD*%
D25*
%TO.C,J1*%
X108100000Y-162300000D03*
D26*
X108100000Y-165500000D03*
D25*
X117000000Y-162300000D03*
D26*
X117000000Y-165500000D03*
%TD*%
D10*
%TO.C,R7*%
X127200000Y-133080000D03*
X127200000Y-122920000D03*
%TD*%
D21*
%TO.C,J7*%
X50500000Y-82840000D03*
D22*
X50500000Y-85380000D03*
X50500000Y-87920000D03*
X50500000Y-90460000D03*
X50500000Y-93000000D03*
X50500000Y-95540000D03*
X50500000Y-98080000D03*
X50500000Y-100620000D03*
X50500000Y-103160000D03*
X50500000Y-105700000D03*
%TD*%
D17*
%TO.C,C14*%
X113742500Y-112000000D03*
D18*
X113742500Y-97000000D03*
%TD*%
D10*
%TO.C,R5*%
X119100000Y-133080000D03*
X119100000Y-122920000D03*
%TD*%
D21*
%TO.C,J6*%
X50500000Y-55340000D03*
D22*
X50500000Y-57880000D03*
X50500000Y-60420000D03*
X50500000Y-62960000D03*
X50500000Y-65500000D03*
X50500000Y-68040000D03*
X50500000Y-70580000D03*
X50500000Y-73120000D03*
X50500000Y-75660000D03*
%TD*%
D17*
%TO.C,C15*%
X120277500Y-112000000D03*
D18*
X120277500Y-97000000D03*
%TD*%
M02*
