%TF.GenerationSoftware,KiCad,Pcbnew,10.0.5*%
%TF.CreationDate,2026-08-20T22:42:10+03:00*%
%TF.ProjectId,MorePCBDoodles,4d6f7265-5043-4424-946f-6f646c65732e,rev?*%
%TF.SameCoordinates,Original*%
%TF.FileFunction,Copper,L1,Top*%
%TF.FilePolarity,Positive*%
%FSLAX46Y46*%
G04 Gerber Fmt 4.6, Leading zero omitted, Abs format (unit mm)*
G04 Created by KiCad (PCBNEW 10.0.5) date 2026-08-20 22:42:10*
%MOMM*%
%LPD*%
G01*
G04 APERTURE LIST*
G04 Aperture macros list*
%AMRoundRect*
0 Rectangle with rounded corners*
0 $1 Rounding radius*
0 $2 $3 $4 $5 $6 $7 $8 $9 X,Y pos of 4 corners*
0 Add a 4 corners polygon primitive as box body*
4,1,4,$2,$3,$4,$5,$6,$7,$8,$9,$2,$3,0*
0 Add four circle primitives for the rounded corners*
1,1,$1+$1,$2,$3*
1,1,$1+$1,$4,$5*
1,1,$1+$1,$6,$7*
1,1,$1+$1,$8,$9*
0 Add four rect primitives between the rounded corners*
20,1,$1+$1,$2,$3,$4,$5,0*
20,1,$1+$1,$4,$5,$6,$7,0*
20,1,$1+$1,$6,$7,$8,$9,0*
20,1,$1+$1,$8,$9,$2,$3,0*%
G04 Aperture macros list end*
%TA.AperFunction,SMDPad,CuDef*%
%ADD10RoundRect,0.147500X-0.147500X-0.172500X0.147500X-0.172500X0.147500X0.172500X-0.147500X0.172500X0*%
%TD*%
%TA.AperFunction,ComponentPad*%
%ADD11C,1.600000*%
%TD*%
%TA.AperFunction,SMDPad,CuDef*%
%ADD12RoundRect,0.150000X-0.512500X-0.150000X0.512500X-0.150000X0.512500X0.150000X-0.512500X0.150000X0*%
%TD*%
%TA.AperFunction,SMDPad,CuDef*%
%ADD13RoundRect,0.050000X-0.387500X-0.050000X0.387500X-0.050000X0.387500X0.050000X-0.387500X0.050000X0*%
%TD*%
%TA.AperFunction,SMDPad,CuDef*%
%ADD14RoundRect,0.050000X-0.050000X-0.387500X0.050000X-0.387500X0.050000X0.387500X-0.050000X0.387500X0*%
%TD*%
%TA.AperFunction,HeatsinkPad*%
%ADD15R,3.200000X3.200000*%
%TD*%
%TA.AperFunction,SMDPad,CuDef*%
%ADD16R,1.000000X1.000000*%
%TD*%
%TA.AperFunction,ComponentPad*%
%ADD17RoundRect,0.250000X-0.350000X-0.350000X0.350000X-0.350000X0.350000X0.350000X-0.350000X0.350000X0*%
%TD*%
%TA.AperFunction,ComponentPad*%
%ADD18C,1.200000*%
%TD*%
%TA.AperFunction,SMDPad,CuDef*%
%ADD19RoundRect,0.075000X-0.662500X-0.075000X0.662500X-0.075000X0.662500X0.075000X-0.662500X0.075000X0*%
%TD*%
%TA.AperFunction,SMDPad,CuDef*%
%ADD20RoundRect,0.075000X-0.075000X-0.662500X0.075000X-0.662500X0.075000X0.662500X-0.075000X0.662500X0*%
%TD*%
%TA.AperFunction,SMDPad,CuDef*%
%ADD21RoundRect,0.125000X-0.200000X-0.125000X0.200000X-0.125000X0.200000X0.125000X-0.200000X0.125000X0*%
%TD*%
%TA.AperFunction,HeatsinkPad*%
%ADD22R,3.400000X4.300000*%
%TD*%
%TA.AperFunction,ComponentPad*%
%ADD23C,1.900000*%
%TD*%
%TA.AperFunction,ComponentPad*%
%ADD24R,1.900000X1.900000*%
%TD*%
%TA.AperFunction,ComponentPad*%
%ADD25C,2.500000*%
%TD*%
%TA.AperFunction,ComponentPad*%
%ADD26RoundRect,0.250000X0.750000X-0.750000X0.750000X0.750000X-0.750000X0.750000X-0.750000X-0.750000X0*%
%TD*%
%TA.AperFunction,ComponentPad*%
%ADD27C,2.000000*%
%TD*%
%TA.AperFunction,ComponentPad*%
%ADD28RoundRect,0.250000X-0.600000X-0.725000X0.600000X-0.725000X0.600000X0.725000X-0.600000X0.725000X0*%
%TD*%
%TA.AperFunction,ComponentPad*%
%ADD29O,1.700000X1.950000*%
%TD*%
%TA.AperFunction,ComponentPad*%
%ADD30R,1.700000X1.700000*%
%TD*%
%TA.AperFunction,ComponentPad*%
%ADD31C,1.700000*%
%TD*%
%TA.AperFunction,SMDPad,CuDef*%
%ADD32RoundRect,0.250000X-0.275000X-0.750000X0.275000X-0.750000X0.275000X0.750000X-0.275000X0.750000X0*%
%TD*%
%TA.AperFunction,SMDPad,CuDef*%
%ADD33R,2.200000X1.600000*%
%TD*%
%TA.AperFunction,SMDPad,CuDef*%
%ADD34RoundRect,0.250000X-0.450000X-0.350000X0.450000X-0.350000X0.450000X0.350000X-0.450000X0.350000X0*%
%TD*%
%TA.AperFunction,SMDPad,CuDef*%
%ADD35RoundRect,0.062500X-0.337500X-0.062500X0.337500X-0.062500X0.337500X0.062500X-0.337500X0.062500X0*%
%TD*%
%TA.AperFunction,SMDPad,CuDef*%
%ADD36RoundRect,0.062500X-0.062500X-0.337500X0.062500X-0.337500X0.062500X0.337500X-0.062500X0.337500X0*%
%TD*%
%TA.AperFunction,HeatsinkPad*%
%ADD37C,0.500000*%
%TD*%
%TA.AperFunction,HeatsinkPad*%
%ADD38R,3.600000X3.600000*%
%TD*%
%TA.AperFunction,ComponentPad*%
%ADD39R,0.850000X0.850000*%
%TD*%
%TA.AperFunction,ComponentPad*%
%ADD40C,0.850000*%
%TD*%
%TA.AperFunction,SMDPad,CuDef*%
%ADD41RoundRect,0.075000X-0.125000X-0.075000X0.125000X-0.075000X0.125000X0.075000X-0.125000X0.075000X0*%
%TD*%
%TA.AperFunction,SMDPad,CuDef*%
%ADD42RoundRect,0.150000X-0.875000X-0.150000X0.875000X-0.150000X0.875000X0.150000X-0.875000X0.150000X0*%
%TD*%
%TA.AperFunction,SMDPad,CuDef*%
%ADD43RoundRect,0.075000X-0.075000X-0.300000X0.075000X-0.300000X0.075000X0.300000X-0.075000X0.300000X0*%
%TD*%
%TA.AperFunction,SMDPad,CuDef*%
%ADD44RoundRect,0.062500X-0.062500X-0.312500X0.062500X-0.312500X0.062500X0.312500X-0.062500X0.312500X0*%
%TD*%
%TA.AperFunction,ComponentPad*%
%ADD45O,0.950000X1.950000*%
%TD*%
%TA.AperFunction,ComponentPad*%
%ADD46O,0.950000X2.150000*%
%TD*%
%TA.AperFunction,SMDPad,CuDef*%
%ADD47R,1.500000X1.000000*%
%TD*%
%TA.AperFunction,ViaPad*%
%ADD48C,0.600000*%
%TD*%
%TA.AperFunction,Conductor*%
%ADD49C,0.200000*%
%TD*%
G04 APERTURE END LIST*
D10*
%TO.P,LED42,1,K_1*%
%TO.N,Net-(LED10-K)*%
X65880000Y-33940000D03*
%TO.P,LED42,2,A_2*%
%TO.N,Net-(LED41-A)*%
X66850000Y-33940000D03*
%TD*%
D11*
%TO.P,C17,1*%
%TO.N,Net-(U7-RFI2)*%
X91500000Y-88050000D03*
%TO.P,C17,2*%
%TO.N,Net-(C11-Pad2)*%
X94000000Y-88050000D03*
%TD*%
D12*
%TO.P,U2,1,VIN_1*%
%TO.N,Net-(D1-VCC)*%
X72725000Y-129100000D03*
%TO.P,U2,2,GND_2*%
%TO.N,Net-(D1-VSS)*%
X72725000Y-130050000D03*
%TO.P,U2,3,EN_3*%
%TO.N,Net-(D1-VCC)*%
X72725000Y-131000000D03*
%TO.P,U2,4,NC_4*%
%TO.N,unconnected-(U2-NC-Pad4)*%
X75000000Y-131000000D03*
%TO.P,U2,5,VOUT_5*%
%TO.N,Net-(U2-VOUT)*%
X75000000Y-129100000D03*
%TD*%
D11*
%TO.P,R3,1*%
%TO.N,Net-(U6-ISET)*%
X111000000Y-133080000D03*
%TO.P,R3,2*%
%TO.N,Net-(D1-VCC)*%
X111000000Y-122920000D03*
%TD*%
D13*
%TO.P,U4,1,IOVDD_1*%
%TO.N,Net-(J2-Pin_2)*%
X120625000Y-57200000D03*
%TO.P,U4,2,GPIO0_2*%
%TO.N,Net-(U4-GPIO0)*%
X120625000Y-57600000D03*
%TO.P,U4,3,GPIO1_3*%
%TO.N,Net-(U4-GPIO1)*%
X120625000Y-58000000D03*
%TO.P,U4,4,GPIO2_4*%
%TO.N,Net-(U4-GPIO2)*%
X120625000Y-58400000D03*
%TO.P,U4,5,GPIO3_5*%
%TO.N,Net-(U4-GPIO3)*%
X120625000Y-58800000D03*
%TO.P,U4,6,GPIO4_6*%
%TO.N,Net-(U4-GPIO4)*%
X120625000Y-59200000D03*
%TO.P,U4,7,GPIO5_7*%
%TO.N,Net-(U4-GPIO5)*%
X120625000Y-59600000D03*
%TO.P,U4,8,GPIO6_8*%
%TO.N,Net-(U4-GPIO6)*%
X120625000Y-60000000D03*
%TO.P,U4,9,GPIO7_9*%
%TO.N,Net-(U4-GPIO7)*%
X120625000Y-60400000D03*
%TO.P,U4,10,IOVDD_10*%
%TO.N,Net-(J2-Pin_2)*%
X120625000Y-60800000D03*
%TO.P,U4,11,GPIO8_11*%
%TO.N,Net-(U4-GPIO8)*%
X120625000Y-61200000D03*
%TO.P,U4,12,GPIO9_12*%
%TO.N,Net-(U4-GPIO9)*%
X120625000Y-61600000D03*
%TO.P,U4,13,GPIO10_13*%
%TO.N,Net-(U4-GPIO10)*%
X120625000Y-62000000D03*
%TO.P,U4,14,GPIO11_14*%
%TO.N,Net-(U4-GPIO11)*%
X120625000Y-62400000D03*
D14*
%TO.P,U4,15,GPIO12_15*%
%TO.N,Net-(U4-GPIO12)*%
X121462500Y-63237500D03*
%TO.P,U4,16,GPIO13_16*%
%TO.N,Net-(U4-GPIO13)*%
X121862500Y-63237500D03*
%TO.P,U4,17,GPIO14_17*%
%TO.N,Net-(U4-GPIO14)*%
X122262500Y-63237500D03*
%TO.P,U4,18,GPIO15_18*%
%TO.N,unconnected-(U4-GPIO15-Pad18)*%
X122662500Y-63237500D03*
%TO.P,U4,19,TESTEN_19*%
%TO.N,Net-(D1-VSS)*%
X123062500Y-63237500D03*
%TO.P,U4,20,XIN_20*%
%TO.N,Net-(U4-XIN)*%
X123462500Y-63237500D03*
%TO.P,U4,21,XOUT_21*%
%TO.N,Net-(U4-XOUT)*%
X123862500Y-63237500D03*
%TO.P,U4,22,IOVDD_22*%
%TO.N,Net-(J2-Pin_2)*%
X124262500Y-63237500D03*
%TO.P,U4,23,DVDD_23*%
%TO.N,Net-(C4-Pad1)*%
X124662500Y-63237500D03*
%TO.P,U4,24,SWCLK_24*%
%TO.N,Net-(J3-Pin_4)*%
X125062500Y-63237500D03*
%TO.P,U4,25,SWDIO_25*%
%TO.N,Net-(J3-Pin_3)*%
X125462500Y-63237500D03*
%TO.P,U4,26,RUN_26*%
%TO.N,Net-(U1-RUN)*%
X125862500Y-63237500D03*
%TO.P,U4,27,GPIO16_27*%
%TO.N,unconnected-(U4-GPIO16-Pad27)*%
X126262500Y-63237500D03*
%TO.P,U4,28,GPIO17_28*%
%TO.N,Net-(U4-GPIO17)*%
X126662500Y-63237500D03*
D13*
%TO.P,U4,29,GPIO18_29*%
%TO.N,Net-(U4-GPIO18)*%
X127500000Y-62400000D03*
%TO.P,U4,30,GPIO19_30*%
%TO.N,Net-(U4-GPIO19)*%
X127500000Y-62000000D03*
%TO.P,U4,31,GPIO20_31*%
%TO.N,Net-(U4-GPIO20)*%
X127500000Y-61600000D03*
%TO.P,U4,32,GPIO21_32*%
%TO.N,Net-(U4-GPIO21)*%
X127500000Y-61200000D03*
%TO.P,U4,33,IOVDD_33*%
%TO.N,Net-(J2-Pin_2)*%
X127500000Y-60800000D03*
%TO.P,U4,34,GPIO22_34*%
%TO.N,Net-(U1-GPIO22)*%
X127500000Y-60400000D03*
%TO.P,U4,35,GPIO23_35*%
%TO.N,Net-(U4-GPIO23)*%
X127500000Y-60000000D03*
%TO.P,U4,36,GPIO24_36*%
%TO.N,Net-(U1-GPIO23)*%
X127500000Y-59600000D03*
%TO.P,U4,37,GPIO25_37*%
%TO.N,Net-(U1-GPIO25)*%
X127500000Y-59200000D03*
%TO.P,U4,38,GPIO26/ADC0_38*%
%TO.N,Net-(U4-GPIO26{slash}ADC0)*%
X127500000Y-58800000D03*
%TO.P,U4,39,GPIO27/ADC1_39*%
%TO.N,Net-(U4-GPIO27{slash}ADC1)*%
X127500000Y-58400000D03*
%TO.P,U4,40,GPIO28/ADC2_40*%
%TO.N,Net-(U4-GPIO28{slash}ADC2)*%
X127500000Y-58000000D03*
%TO.P,U4,41,GPIO29/ADC3_41*%
%TO.N,Net-(U4-GPIO29{slash}ADC3)*%
X127500000Y-57600000D03*
%TO.P,U4,42,IOVDD_42*%
%TO.N,Net-(J2-Pin_2)*%
X127500000Y-57200000D03*
D14*
%TO.P,U4,43,ADC_AVDD_43*%
X126662500Y-56362500D03*
%TO.P,U4,44,VREG_VIN_44*%
X126262500Y-56362500D03*
%TO.P,U4,45,VREG_VOUT_45*%
%TO.N,Net-(U4-VREG_VOUT)*%
X125862500Y-56362500D03*
%TO.P,U4,46,USB_DM_46*%
%TO.N,unconnected-(U4-USB_DM-Pad46)*%
X125462500Y-56362500D03*
%TO.P,U4,47,USB_DP_47*%
%TO.N,unconnected-(U4-USB_DP-Pad47)*%
X125062500Y-56362500D03*
%TO.P,U4,48,USB_VDD_48*%
%TO.N,Net-(J2-Pin_2)*%
X124662500Y-56362500D03*
%TO.P,U4,49,IOVDD_49*%
X124262500Y-56362500D03*
%TO.P,U4,50,DVDD_50*%
%TO.N,Net-(C4-Pad1)*%
X123862500Y-56362500D03*
%TO.P,U4,51,QSPI_SD3_51*%
%TO.N,Net-(U4-QSPI_SD3)*%
X123462500Y-56362500D03*
%TO.P,U4,52,QSPI_SCLK_52*%
%TO.N,Net-(U4-QSPI_SCLK)*%
X123062500Y-56362500D03*
%TO.P,U4,53,QSPI_SD0_53*%
%TO.N,Net-(U4-QSPI_SD0)*%
X122662500Y-56362500D03*
%TO.P,U4,54,QSPI_SD2_54*%
%TO.N,Net-(U4-QSPI_SD2)*%
X122262500Y-56362500D03*
%TO.P,U4,55,QSPI_SD1_55*%
%TO.N,Net-(U4-QSPI_SD1)*%
X121862500Y-56362500D03*
%TO.P,U4,56,~{QSPI_SS}_56*%
%TO.N,Net-(U4-~{QSPI_SS})*%
X121462500Y-56362500D03*
D15*
%TO.P,U4,57,GND_57*%
%TO.N,Net-(D1-VSS)*%
X124062500Y-59800000D03*
%TD*%
D10*
%TO.P,LED62,1,K_1*%
%TO.N,Net-(LED14-K)*%
X72120000Y-44020000D03*
%TO.P,LED62,2,A_2*%
%TO.N,Net-(LED57-A)*%
X73090000Y-44020000D03*
%TD*%
%TO.P,LED39,1,K_1*%
%TO.N,Net-(LED15-K)*%
X62760000Y-46540000D03*
%TO.P,LED39,2,A_2*%
%TO.N,Net-(LED33-A)*%
X63730000Y-46540000D03*
%TD*%
D16*
%TO.P,TP1,1,1_1*%
%TO.N,Net-(C11-Pad2)*%
X83500000Y-117950000D03*
%TD*%
D10*
%TO.P,LED33,1,K_1*%
%TO.N,Net-(LED1-K)*%
X62760000Y-31420000D03*
%TO.P,LED33,2,A_2*%
%TO.N,Net-(LED33-A)*%
X63730000Y-31420000D03*
%TD*%
%TO.P,LED7,1,K_1*%
%TO.N,Net-(LED15-K)*%
X50280000Y-46540000D03*
%TO.P,LED7,2,A_2*%
%TO.N,Net-(LED1-A)*%
X51250000Y-46540000D03*
%TD*%
D17*
%TO.P,C9,1*%
%TO.N,Net-(U7-VSP_RF)*%
X112500000Y-38000000D03*
D18*
%TO.P,C9,2*%
%TO.N,Net-(D1-VSS)*%
X114000000Y-38000000D03*
%TD*%
D17*
%TO.P,C4,1*%
%TO.N,Net-(C4-Pad1)*%
X112500000Y-63500000D03*
D18*
%TO.P,C4,2*%
%TO.N,Net-(D1-VSS)*%
X114000000Y-63500000D03*
%TD*%
D17*
%TO.P,C5,1*%
%TO.N,Net-(U4-VREG_VOUT)*%
X102500000Y-38500000D03*
D18*
%TO.P,C5,2*%
%TO.N,Net-(D1-VSS)*%
X104000000Y-38500000D03*
%TD*%
D11*
%TO.P,C6,1*%
%TO.N,Net-(J2-Pin_2)*%
X62500000Y-141500000D03*
%TO.P,C6,2*%
%TO.N,Net-(D1-VSS)*%
X65000000Y-141500000D03*
%TD*%
D19*
%TO.P,U8,1,TXN_1*%
%TO.N,Net-(J4-TD1+)*%
X99587500Y-70587500D03*
%TO.P,U8,2,TXP_2*%
%TO.N,Net-(J4-CT)*%
X99587500Y-71087500D03*
%TO.P,U8,3,AGND_3*%
%TO.N,Net-(D1-VSS)*%
X99587500Y-71587500D03*
%TO.P,U8,4,AVDD_4*%
%TO.N,Net-(J2-Pin_2)*%
X99587500Y-72087500D03*
%TO.P,U8,5,RXN_5*%
%TO.N,Net-(J4-TD1-)*%
X99587500Y-72587500D03*
%TO.P,U8,6,RXP_6*%
%TO.N,Net-(J4-TD3+)*%
X99587500Y-73087500D03*
%TO.P,U8,7,DNC_7*%
%TO.N,unconnected-(U8-DNC-Pad7)*%
X99587500Y-73587500D03*
%TO.P,U8,8,AVDD_8*%
%TO.N,Net-(J2-Pin_2)*%
X99587500Y-74087500D03*
%TO.P,U8,9,AGND_9*%
%TO.N,Net-(D1-VSS)*%
X99587500Y-74587500D03*
%TO.P,U8,10,EXRES1_10*%
%TO.N,unconnected-(U8-EXRES1-Pad10)*%
X99587500Y-75087500D03*
%TO.P,U8,11,AVDD_11*%
%TO.N,Net-(J2-Pin_2)*%
X99587500Y-75587500D03*
%TO.P,U8,12,NC_12*%
%TO.N,unconnected-(U8-NC-Pad12)*%
X99587500Y-76087500D03*
D20*
%TO.P,U8,13,NC_13*%
%TO.N,unconnected-(U8-NC-Pad13)*%
X101000000Y-77500000D03*
%TO.P,U8,14,AGND_14*%
%TO.N,Net-(D1-VSS)*%
X101500000Y-77500000D03*
%TO.P,U8,15,AVDD_15*%
%TO.N,Net-(J2-Pin_2)*%
X102000000Y-77500000D03*
%TO.P,U8,16,AGND_16*%
%TO.N,Net-(D1-VSS)*%
X102500000Y-77500000D03*
%TO.P,U8,17,AVDD_17*%
%TO.N,Net-(J2-Pin_2)*%
X103000000Y-77500000D03*
%TO.P,U8,18,VBG_18*%
%TO.N,unconnected-(U8-VBG-Pad18)*%
X103500000Y-77500000D03*
%TO.P,U8,19,AGND_19*%
%TO.N,Net-(D1-VSS)*%
X104000000Y-77500000D03*
%TO.P,U8,20,TOCAP_20*%
%TO.N,Net-(U8-TOCAP)*%
X104500000Y-77500000D03*
%TO.P,U8,21,AVDD_21*%
%TO.N,Net-(J2-Pin_2)*%
X105000000Y-77500000D03*
%TO.P,U8,22,1V2O_22*%
%TO.N,Net-(U8-1V2O)*%
X105500000Y-77500000D03*
%TO.P,U8,23,RSVD_23*%
%TO.N,unconnected-(U8-RSVD-Pad23)*%
X106000000Y-77500000D03*
%TO.P,U8,24,SPDLED_24*%
%TO.N,unconnected-(U8-SPDLED-Pad24)*%
X106500000Y-77500000D03*
D19*
%TO.P,U8,25,LINKLED_25*%
%TO.N,Net-(U8-LINKLED)*%
X107912500Y-76087500D03*
%TO.P,U8,26,DUPLED_26*%
%TO.N,unconnected-(U8-DUPLED-Pad26)*%
X107912500Y-75587500D03*
%TO.P,U8,27,ACTLED_27*%
%TO.N,Net-(U8-ACTLED)*%
X107912500Y-75087500D03*
%TO.P,U8,28,VDD_28*%
%TO.N,Net-(J2-Pin_2)*%
X107912500Y-74587500D03*
%TO.P,U8,29,GND_29*%
%TO.N,Net-(D1-VSS)*%
X107912500Y-74087500D03*
%TO.P,U8,30,XI/CLKIN_30*%
%TO.N,Net-(U8-XI{slash}CLKIN)*%
X107912500Y-73587500D03*
%TO.P,U8,31,XO_31*%
%TO.N,Net-(U8-XO)*%
X107912500Y-73087500D03*
%TO.P,U8,32,~{SCS}_32*%
%TO.N,Net-(U4-GPIO12)*%
X107912500Y-72587500D03*
%TO.P,U8,33,SCLK_33*%
%TO.N,Net-(U4-GPIO11)*%
X107912500Y-72087500D03*
%TO.P,U8,34,MISO_34*%
%TO.N,Net-(U4-GPIO10)*%
X107912500Y-71587500D03*
%TO.P,U8,35,MOSI_35*%
%TO.N,Net-(U4-GPIO9)*%
X107912500Y-71087500D03*
%TO.P,U8,36,~{INT}_36*%
%TO.N,Net-(U4-GPIO8)*%
X107912500Y-70587500D03*
D20*
%TO.P,U8,37,~{RST}_37*%
%TO.N,Net-(U8-~{RST})*%
X106500000Y-69175000D03*
%TO.P,U8,38,RSVD_38*%
%TO.N,unconnected-(U8-RSVD-Pad38)*%
X106000000Y-69175000D03*
%TO.P,U8,39,RSVD_39*%
%TO.N,unconnected-(U8-RSVD-Pad39)*%
X105500000Y-69175000D03*
%TO.P,U8,40,RSVD_40*%
%TO.N,unconnected-(U8-RSVD-Pad40)*%
X105000000Y-69175000D03*
%TO.P,U8,41,RSVD_41*%
%TO.N,unconnected-(U8-RSVD-Pad41)*%
X104500000Y-69175000D03*
%TO.P,U8,42,RSVD_42*%
%TO.N,unconnected-(U8-RSVD-Pad42)*%
X104000000Y-69175000D03*
%TO.P,U8,43,PMODE2_43*%
%TO.N,Net-(J2-Pin_2)*%
X103500000Y-69175000D03*
%TO.P,U8,44,PMODE1_44*%
X103000000Y-69175000D03*
%TO.P,U8,45,PMODE0_45*%
X102500000Y-69175000D03*
%TO.P,U8,46,NC_46*%
%TO.N,unconnected-(U8-NC-Pad46)*%
X102000000Y-69175000D03*
%TO.P,U8,47,NC_47*%
%TO.N,unconnected-(U8-NC-Pad47)*%
X101500000Y-69175000D03*
%TO.P,U8,48,AGND_48*%
%TO.N,Net-(D1-VSS)*%
X101000000Y-69175000D03*
%TD*%
D10*
%TO.P,LED48,1,K_1*%
%TO.N,Net-(LED16-K)*%
X65880000Y-49060000D03*
%TO.P,LED48,2,A_2*%
%TO.N,Net-(LED41-A)*%
X66850000Y-49060000D03*
%TD*%
D21*
%TO.P,U5,1,~{CS}_1*%
%TO.N,Net-(U4-~{QSPI_SS})*%
X56000000Y-61690000D03*
%TO.P,U5,2,DO/IO_{1}_2*%
%TO.N,Net-(U4-QSPI_SD1)*%
X56000000Y-62960000D03*
%TO.P,U5,3,~{WP}/IO_{2}_3*%
%TO.N,Net-(U4-QSPI_SD2)*%
X56000000Y-64230000D03*
%TO.P,U5,4,GND_4*%
%TO.N,Net-(D1-VSS)*%
X56000000Y-65500000D03*
%TO.P,U5,5,DI/IO_{0}_5*%
%TO.N,Net-(U4-QSPI_SD0)*%
X63500000Y-65500000D03*
%TO.P,U5,6,CLK_6*%
%TO.N,Net-(U4-QSPI_SCLK)*%
X63500000Y-64230000D03*
%TO.P,U5,7,~{HOLD}/~{RESET}/IO_{3}_7*%
%TO.N,Net-(U4-QSPI_SD3)*%
X63500000Y-62960000D03*
%TO.P,U5,8,VCC_8*%
%TO.N,Net-(J2-Pin_2)*%
X63500000Y-61690000D03*
D22*
%TO.P,U5,9,EP_9*%
%TO.N,Net-(D1-VSS)*%
X59750000Y-63595000D03*
%TD*%
D11*
%TO.P,R1,1*%
%TO.N,Net-(J1-D+-PadA6)*%
X102900000Y-133080000D03*
%TO.P,R1,2*%
%TO.N,Net-(U1-USB_DP)*%
X102900000Y-122920000D03*
%TD*%
D10*
%TO.P,LED13,1,K_1*%
%TO.N,Net-(LED13-K)*%
X53400000Y-41500000D03*
%TO.P,LED13,2,A_2*%
%TO.N,Net-(LED10-A)*%
X54370000Y-41500000D03*
%TD*%
D23*
%TO.P,J4,L1*%
%TO.N,Net-(U8-LINKLED)*%
X97825000Y-164380000D03*
%TO.P,J4,L2*%
%TO.N,Net-(J4-PadL2)*%
X95285000Y-165900000D03*
%TO.P,J4,L3*%
%TO.N,Net-(J4-PadL3)*%
X87715000Y-164380000D03*
%TO.P,J4,L4*%
%TO.N,Net-(U8-ACTLED)*%
X85175000Y-165900000D03*
D24*
%TO.P,J4,R1,CT_R1*%
%TO.N,Net-(J4-CT)*%
X85785000Y-152110000D03*
D23*
%TO.P,J4,R2,TD1+_R2*%
%TO.N,Net-(J4-TD1+)*%
X87055000Y-154650000D03*
%TO.P,J4,R3,TD1-_R3*%
%TO.N,Net-(J4-TD1-)*%
X88325000Y-152110000D03*
%TO.P,J4,R4,TD2+_R4*%
%TO.N,unconnected-(J4-TD2+-PadR4)*%
X89595000Y-154650000D03*
%TO.P,J4,R5,TD2-_R5*%
%TO.N,unconnected-(J4-TD2--PadR5)*%
X90865000Y-152110000D03*
%TO.P,J4,R6,TD3+_R6*%
%TO.N,Net-(J4-TD3+)*%
X92135000Y-154650000D03*
%TO.P,J4,R7,TD3-_R7*%
%TO.N,unconnected-(J4-TD3--PadR7)*%
X93405000Y-152110000D03*
%TO.P,J4,R8,TD4+_R8*%
%TO.N,unconnected-(J4-TD4+-PadR8)*%
X94675000Y-154650000D03*
%TO.P,J4,R9,TD4-_R9*%
%TO.N,unconnected-(J4-TD4--PadR9)*%
X95945000Y-152110000D03*
%TO.P,J4,R10,GND_R10*%
%TO.N,Net-(D1-VSS)*%
X97215000Y-154650000D03*
D25*
%TO.P,J4,SH,SH_SH*%
X83725000Y-157950000D03*
X99275000Y-157950000D03*
%TD*%
D10*
%TO.P,LED26,1,K_1*%
%TO.N,Net-(LED10-K)*%
X59640000Y-33940000D03*
%TO.P,LED26,2,A_2*%
%TO.N,Net-(LED25-A)*%
X60610000Y-33940000D03*
%TD*%
%TO.P,LED50,1,K_1*%
%TO.N,Net-(LED10-K)*%
X69000000Y-33940000D03*
%TO.P,LED50,2,A_2*%
%TO.N,Net-(LED49-A)*%
X69970000Y-33940000D03*
%TD*%
%TO.P,LED37,1,K_1*%
%TO.N,Net-(LED13-K)*%
X62760000Y-41500000D03*
%TO.P,LED37,2,A_2*%
%TO.N,Net-(LED33-A)*%
X63730000Y-41500000D03*
%TD*%
D26*
%TO.P,C12,1*%
%TO.N,Net-(C12-Pad1)*%
X100672500Y-112000000D03*
D27*
%TO.P,C12,2*%
%TO.N,Net-(D1-VSS)*%
X100672500Y-97000000D03*
%TD*%
D21*
%TO.P,U3,1,~{CS}_1*%
%TO.N,Net-(U1-~{QSPI_SS})*%
X73750000Y-61595000D03*
%TO.P,U3,2,DO/IO_{1}_2*%
%TO.N,Net-(U1-QSPI_SD1)*%
X73750000Y-62865000D03*
%TO.P,U3,3,~{WP}/IO_{2}_3*%
%TO.N,Net-(U1-QSPI_SD2)*%
X73750000Y-64135000D03*
%TO.P,U3,4,GND_4*%
%TO.N,Net-(D1-VSS)*%
X73750000Y-65405000D03*
%TO.P,U3,5,DI/IO_{0}_5*%
%TO.N,Net-(U1-QSPI_SD0)*%
X81250000Y-65405000D03*
%TO.P,U3,6,CLK_6*%
%TO.N,Net-(U1-QSPI_SCLK)*%
X81250000Y-64135000D03*
%TO.P,U3,7,~{HOLD}/~{RESET}/IO_{3}_7*%
%TO.N,Net-(U1-QSPI_SD3)*%
X81250000Y-62865000D03*
%TO.P,U3,8,VCC_8*%
%TO.N,Net-(J2-Pin_2)*%
X81250000Y-61595000D03*
D22*
%TO.P,U3,9,EP_9*%
%TO.N,Net-(D1-VSS)*%
X77500000Y-63500000D03*
%TD*%
D10*
%TO.P,LED21,1,K_1*%
%TO.N,Net-(LED13-K)*%
X56520000Y-41500000D03*
%TO.P,LED21,2,A_2*%
%TO.N,Net-(LED17-A)*%
X57490000Y-41500000D03*
%TD*%
D28*
%TO.P,J5,1*%
%TO.N,Net-(J2-Pin_2)*%
X57500000Y-55000000D03*
D29*
%TO.P,J5,2*%
%TO.N,Net-(U4-GPIO0)*%
X60000000Y-55000000D03*
%TO.P,J5,3*%
%TO.N,Net-(U4-GPIO1)*%
X62500000Y-55000000D03*
%TO.P,J5,4*%
%TO.N,Net-(U4-GPIO2)*%
X65000000Y-55000000D03*
%TO.P,J5,5*%
%TO.N,Net-(U4-GPIO3)*%
X67500000Y-55000000D03*
%TO.P,J5,6*%
%TO.N,Net-(D1-VSS)*%
X70000000Y-55000000D03*
%TD*%
D10*
%TO.P,LED14,1,K_1*%
%TO.N,Net-(LED14-K)*%
X53400000Y-44020000D03*
%TO.P,LED14,2,A_2*%
%TO.N,Net-(LED10-A)*%
X54370000Y-44020000D03*
%TD*%
%TO.P,LED41,1,K_1*%
%TO.N,Net-(LED1-K)*%
X65880000Y-31420000D03*
%TO.P,LED41,2,A_2*%
%TO.N,Net-(LED41-A)*%
X66850000Y-31420000D03*
%TD*%
%TO.P,LED11,1,K_1*%
%TO.N,Net-(LED11-K)*%
X53400000Y-36460000D03*
%TO.P,LED11,2,A_2*%
%TO.N,Net-(LED10-A)*%
X54370000Y-36460000D03*
%TD*%
%TO.P,LED24,1,K_1*%
%TO.N,Net-(LED16-K)*%
X56520000Y-49060000D03*
%TO.P,LED24,2,A_2*%
%TO.N,Net-(LED17-A)*%
X57490000Y-49060000D03*
%TD*%
%TO.P,LED4,1,K_1*%
%TO.N,Net-(LED12-K)*%
X50280000Y-38980000D03*
%TO.P,LED4,2,A_2*%
%TO.N,Net-(LED1-A)*%
X51250000Y-38980000D03*
%TD*%
%TO.P,LED25,1,K_1*%
%TO.N,Net-(LED1-K)*%
X59640000Y-31420000D03*
%TO.P,LED25,2,A_2*%
%TO.N,Net-(LED25-A)*%
X60610000Y-31420000D03*
%TD*%
%TO.P,LED55,1,K_1*%
%TO.N,Net-(LED15-K)*%
X69000000Y-46540000D03*
%TO.P,LED55,2,A_2*%
%TO.N,Net-(LED49-A)*%
X69970000Y-46540000D03*
%TD*%
%TO.P,LED22,1,K_1*%
%TO.N,Net-(LED14-K)*%
X56520000Y-44020000D03*
%TO.P,LED22,2,A_2*%
%TO.N,Net-(LED17-A)*%
X57490000Y-44020000D03*
%TD*%
%TO.P,LED38,1,K_1*%
%TO.N,Net-(LED14-K)*%
X62760000Y-44020000D03*
%TO.P,LED38,2,A_2*%
%TO.N,Net-(LED33-A)*%
X63730000Y-44020000D03*
%TD*%
%TO.P,LED12,1,K_1*%
%TO.N,Net-(LED12-K)*%
X53400000Y-38980000D03*
%TO.P,LED12,2,A_2*%
%TO.N,Net-(LED10-A)*%
X54370000Y-38980000D03*
%TD*%
%TO.P,LED8,1,K_1*%
%TO.N,Net-(LED16-K)*%
X50280000Y-49060000D03*
%TO.P,LED8,2,A_2*%
%TO.N,Net-(LED1-A)*%
X51250000Y-49060000D03*
%TD*%
%TO.P,LED59,1,K_1*%
%TO.N,Net-(LED11-K)*%
X72120000Y-36460000D03*
%TO.P,LED59,2,A_2*%
%TO.N,Net-(LED57-A)*%
X73090000Y-36460000D03*
%TD*%
D30*
%TO.P,J8,1*%
%TO.N,Net-(D1-VSS)*%
X50000000Y-112720000D03*
D31*
%TO.P,J8,2*%
X50000000Y-115260000D03*
%TO.P,J8,3*%
X50000000Y-117800000D03*
%TO.P,J8,4*%
%TO.N,Net-(J2-Pin_2)*%
X50000000Y-120340000D03*
%TO.P,J8,5*%
X50000000Y-122880000D03*
%TO.P,J8,6*%
X50000000Y-125420000D03*
%TO.P,J8,7*%
%TO.N,Net-(D1-VCC)*%
X50000000Y-127960000D03*
%TO.P,J8,8*%
X50000000Y-130500000D03*
%TO.P,J8,9*%
%TO.N,Net-(U1-GPIO0)*%
X50000000Y-133040000D03*
%TO.P,J8,10*%
%TO.N,Net-(U1-GPIO1)*%
X50000000Y-135580000D03*
%TD*%
D10*
%TO.P,LED64,1,K_1*%
%TO.N,Net-(LED16-K)*%
X72120000Y-49060000D03*
%TO.P,LED64,2,A_2*%
%TO.N,Net-(LED57-A)*%
X73090000Y-49060000D03*
%TD*%
D32*
%TO.P,SW3,1*%
%TO.N,Net-(D1-VSS)*%
X75275000Y-81000000D03*
%TO.P,SW3,2*%
%TO.N,Net-(U4-GPIO5)*%
X79725000Y-81000000D03*
%TD*%
D10*
%TO.P,LED35,1,K_1*%
%TO.N,Net-(LED11-K)*%
X62760000Y-36460000D03*
%TO.P,LED35,2,A_2*%
%TO.N,Net-(LED33-A)*%
X63730000Y-36460000D03*
%TD*%
%TO.P,LED47,1,K_1*%
%TO.N,Net-(LED15-K)*%
X65880000Y-46540000D03*
%TO.P,LED47,2,A_2*%
%TO.N,Net-(LED41-A)*%
X66850000Y-46540000D03*
%TD*%
%TO.P,LED54,1,K_1*%
%TO.N,Net-(LED14-K)*%
X69000000Y-44020000D03*
%TO.P,LED54,2,A_2*%
%TO.N,Net-(LED49-A)*%
X69970000Y-44020000D03*
%TD*%
D32*
%TO.P,SW2,1*%
%TO.N,Net-(D1-VSS)*%
X75275000Y-76450000D03*
%TO.P,SW2,2*%
%TO.N,Net-(U4-GPIO6)*%
X79725000Y-76450000D03*
%TD*%
D10*
%TO.P,LED49,1,K_1*%
%TO.N,Net-(LED1-K)*%
X69000000Y-31420000D03*
%TO.P,LED49,2,A_2*%
%TO.N,Net-(LED49-A)*%
X69970000Y-31420000D03*
%TD*%
D33*
%TO.P,C19,1*%
%TO.N,Net-(U8-TOCAP)*%
X83000000Y-56000000D03*
%TO.P,C19,2*%
%TO.N,Net-(D1-VSS)*%
X86000000Y-56000000D03*
%TD*%
D16*
%TO.P,TP2,1,1_1*%
%TO.N,Net-(C11-Pad2)*%
X79500000Y-113500000D03*
%TD*%
D34*
%TO.P,Y1,1,1_1*%
%TO.N,Net-(U7-XTI)*%
X125400000Y-88850000D03*
%TO.P,Y1,2,G_2*%
%TO.N,Net-(D1-VSS)*%
X127600000Y-88850000D03*
%TO.P,Y1,3,3_3*%
%TO.N,Net-(U7-XTO)*%
X127600000Y-87150000D03*
%TO.P,Y1,4,G_4*%
%TO.N,Net-(D1-VSS)*%
X125400000Y-87150000D03*
%TD*%
%TO.P,Y2,1,1_1*%
%TO.N,Net-(U8-XI{slash}CLKIN)*%
X112900000Y-73350000D03*
%TO.P,Y2,2,2_2*%
%TO.N,Net-(U8-XO)*%
X115100000Y-73350000D03*
%TO.P,Y2,3*%
%TO.N,N/C*%
X115100000Y-71650000D03*
%TO.P,Y2,4*%
X112900000Y-71650000D03*
%TD*%
D17*
%TO.P,C10,1*%
%TO.N,Net-(U7-AGD)*%
X93000000Y-38000000D03*
D18*
%TO.P,C10,2*%
%TO.N,Net-(D1-VSS)*%
X94500000Y-38000000D03*
%TD*%
D26*
%TO.P,C13,1*%
%TO.N,Net-(C13-Pad1)*%
X107207500Y-112000000D03*
D27*
%TO.P,C13,2*%
%TO.N,Net-(D1-VSS)*%
X107207500Y-97000000D03*
%TD*%
D34*
%TO.P,X2,1,1_1*%
%TO.N,Net-(U4-XIN)*%
X103400000Y-48850000D03*
%TO.P,X2,2,2_2*%
%TO.N,Net-(D1-VSS)*%
X105600000Y-48850000D03*
%TO.P,X2,3,3_3*%
%TO.N,Net-(U4-XOUT)*%
X105600000Y-47150000D03*
%TO.P,X2,4,4_4*%
%TO.N,Net-(D1-VSS)*%
X103400000Y-47150000D03*
%TD*%
D10*
%TO.P,LED2,1,K_1*%
%TO.N,Net-(LED10-K)*%
X50280000Y-33940000D03*
%TO.P,LED2,2,A_2*%
%TO.N,Net-(LED1-A)*%
X51250000Y-33940000D03*
%TD*%
D35*
%TO.P,U7,1,VDD_IO_1*%
%TO.N,Net-(J2-Pin_2)*%
X101550000Y-83250000D03*
%TO.P,U7,2,CSO_2*%
%TO.N,Net-(D1-VSS)*%
X101550000Y-83750000D03*
%TO.P,U7,3,VSP_D_3*%
%TO.N,Net-(U7-VSP_D)*%
X101550000Y-84250000D03*
%TO.P,U7,4,XTO_4*%
%TO.N,Net-(U7-XTO)*%
X101550000Y-84750000D03*
%TO.P,U7,5,XTI_5*%
%TO.N,Net-(U7-XTI)*%
X101550000Y-85250000D03*
%TO.P,U7,6,VSN_D_6*%
%TO.N,Net-(D1-VSS)*%
X101550000Y-85750000D03*
%TO.P,U7,7,VSP_A_7*%
%TO.N,Net-(U7-VSP_A)*%
X101550000Y-86250000D03*
%TO.P,U7,8,VDD_8*%
%TO.N,Net-(J2-Pin_2)*%
X101550000Y-86750000D03*
D36*
%TO.P,U7,9,VSP_RF_9*%
%TO.N,Net-(U7-VSP_RF)*%
X102250000Y-87450000D03*
%TO.P,U7,10,RFO1_10*%
%TO.N,Net-(U7-RFO1)*%
X102750000Y-87450000D03*
%TO.P,U7,11,RFO2_11*%
%TO.N,Net-(U7-RFO2)*%
X103250000Y-87450000D03*
%TO.P,U7,12,VSN_RF_12*%
%TO.N,Net-(D1-VSS)*%
X103750000Y-87450000D03*
%TO.P,U7,13,TRIM1_3_13*%
%TO.N,unconnected-(U7-TRIM1_3-Pad13)*%
X104250000Y-87450000D03*
%TO.P,U7,14,TRIM2_3_14*%
%TO.N,unconnected-(U7-TRIM2_3-Pad14)*%
X104750000Y-87450000D03*
%TO.P,U7,15,TRIM1_2_15*%
%TO.N,unconnected-(U7-TRIM1_2-Pad15)*%
X105250000Y-87450000D03*
%TO.P,U7,16,TRIM2_2_16*%
%TO.N,unconnected-(U7-TRIM2_2-Pad16)*%
X105750000Y-87450000D03*
D35*
%TO.P,U7,17,TRIM1_1_17*%
%TO.N,unconnected-(U7-TRIM1_1-Pad17)*%
X106450000Y-86750000D03*
%TO.P,U7,18,TRIM2_1_18*%
%TO.N,unconnected-(U7-TRIM2_1-Pad18)*%
X106450000Y-86250000D03*
%TO.P,U7,19,TRIM1_0_19*%
%TO.N,unconnected-(U7-TRIM1_0-Pad19)*%
X106450000Y-85750000D03*
%TO.P,U7,20,TRIM2_0_20*%
%TO.N,unconnected-(U7-TRIM2_0-Pad20)*%
X106450000Y-85250000D03*
%TO.P,U7,21,VSS_21*%
%TO.N,Net-(D1-VSS)*%
X106450000Y-84750000D03*
%TO.P,U7,22,RFI1_22*%
%TO.N,Net-(U7-RFI1)*%
X106450000Y-84250000D03*
%TO.P,U7,23,RFI2_23*%
%TO.N,Net-(U7-RFI2)*%
X106450000Y-83750000D03*
%TO.P,U7,24,AGD_24*%
%TO.N,Net-(U7-AGD)*%
X106450000Y-83250000D03*
D36*
%TO.P,U7,25,CSI_25*%
%TO.N,Net-(D1-VSS)*%
X105750000Y-82550000D03*
%TO.P,U7,26,VSN_A_26*%
X105250000Y-82550000D03*
%TO.P,U7,27,IRQ_27*%
%TO.N,Net-(U4-GPIO13)*%
X104750000Y-82550000D03*
%TO.P,U7,28,MCU_CLK_28*%
%TO.N,unconnected-(U7-MCU_CLK-Pad28)*%
X104250000Y-82550000D03*
%TO.P,U7,29,MISO_29*%
%TO.N,Net-(U4-GPIO14)*%
X103750000Y-82550000D03*
%TO.P,U7,30,MOSI_30*%
%TO.N,Net-(U4-GPIO17)*%
X103250000Y-82550000D03*
%TO.P,U7,31,SCLK_31*%
%TO.N,unconnected-(U7-SCLK-Pad31)*%
X102750000Y-82550000D03*
%TO.P,U7,32,/SS_32*%
%TO.N,unconnected-(U7-{slash}SS-Pad32)*%
X102250000Y-82550000D03*
D37*
%TO.P,U7,33,EP_33*%
%TO.N,Net-(D1-VSS)*%
X103000000Y-84000000D03*
X103000000Y-85000000D03*
X103000000Y-86000000D03*
X104000000Y-84000000D03*
X104000000Y-85000000D03*
D38*
X104000000Y-85000000D03*
D37*
X104000000Y-86000000D03*
X105000000Y-84000000D03*
X105000000Y-85000000D03*
X105000000Y-86000000D03*
%TD*%
D10*
%TO.P,LED6,1,K_1*%
%TO.N,Net-(LED14-K)*%
X50280000Y-44020000D03*
%TO.P,LED6,2,A_2*%
%TO.N,Net-(LED1-A)*%
X51250000Y-44020000D03*
%TD*%
%TO.P,LED19,1,K_1*%
%TO.N,Net-(LED11-K)*%
X56520000Y-36460000D03*
%TO.P,LED19,2,A_2*%
%TO.N,Net-(LED17-A)*%
X57490000Y-36460000D03*
%TD*%
D11*
%TO.P,R4,1*%
%TO.N,Net-(J2-Pin_2)*%
X115050000Y-133080000D03*
%TO.P,R4,2*%
%TO.N,Net-(U8-~{RST})*%
X115050000Y-122920000D03*
%TD*%
D10*
%TO.P,LED32,1,K_1*%
%TO.N,Net-(LED16-K)*%
X59640000Y-49060000D03*
%TO.P,LED32,2,A_2*%
%TO.N,Net-(LED25-A)*%
X60610000Y-49060000D03*
%TD*%
%TO.P,LED60,1,K_1*%
%TO.N,Net-(LED12-K)*%
X72120000Y-38980000D03*
%TO.P,LED60,2,A_2*%
%TO.N,Net-(LED57-A)*%
X73090000Y-38980000D03*
%TD*%
%TO.P,LED36,1,K_1*%
%TO.N,Net-(LED12-K)*%
X62760000Y-38980000D03*
%TO.P,LED36,2,A_2*%
%TO.N,Net-(LED33-A)*%
X63730000Y-38980000D03*
%TD*%
D39*
%TO.P,J3,1,Pin_1_1*%
%TO.N,Net-(D1-VSS)*%
X98500000Y-61500000D03*
D40*
%TO.P,J3,2,Pin_2_2*%
%TO.N,Net-(J2-Pin_2)*%
X98500000Y-62500000D03*
%TO.P,J3,3,Pin_3_3*%
%TO.N,Net-(J3-Pin_3)*%
X98500000Y-63500000D03*
%TO.P,J3,4,Pin_4_4*%
%TO.N,Net-(J3-Pin_4)*%
X98500000Y-64500000D03*
%TD*%
D17*
%TO.P,C7,1*%
%TO.N,Net-(U7-VSP_D)*%
X63500000Y-87000000D03*
D18*
%TO.P,C7,2*%
%TO.N,Net-(D1-VSS)*%
X65000000Y-87000000D03*
%TD*%
D10*
%TO.P,LED46,1,K_1*%
%TO.N,Net-(LED14-K)*%
X65880000Y-44020000D03*
%TO.P,LED46,2,A_2*%
%TO.N,Net-(LED41-A)*%
X66850000Y-44020000D03*
%TD*%
%TO.P,LED57,1,K_1*%
%TO.N,Net-(LED1-K)*%
X72120000Y-31420000D03*
%TO.P,LED57,2,A_2*%
%TO.N,Net-(LED57-A)*%
X73090000Y-31420000D03*
%TD*%
D11*
%TO.P,R6,1*%
%TO.N,Net-(J2-Pin_2)*%
X123150000Y-133080000D03*
%TO.P,R6,2*%
%TO.N,Net-(J4-PadL3)*%
X123150000Y-122920000D03*
%TD*%
D10*
%TO.P,LED40,1,K_1*%
%TO.N,Net-(LED16-K)*%
X62760000Y-49060000D03*
%TO.P,LED40,2,A_2*%
%TO.N,Net-(LED33-A)*%
X63730000Y-49060000D03*
%TD*%
%TO.P,LED3,1,K_1*%
%TO.N,Net-(LED11-K)*%
X50280000Y-36460000D03*
%TO.P,LED3,2,A_2*%
%TO.N,Net-(LED1-A)*%
X51250000Y-36460000D03*
%TD*%
%TO.P,LED63,1,K_1*%
%TO.N,Net-(LED15-K)*%
X72120000Y-46540000D03*
%TO.P,LED63,2,A_2*%
%TO.N,Net-(LED57-A)*%
X73090000Y-46540000D03*
%TD*%
D30*
%TO.P,J9,1*%
%TO.N,Net-(U1-GPIO26{slash}ADC0)*%
X49500000Y-141000000D03*
D31*
%TO.P,J9,2*%
%TO.N,Net-(U1-GPIO27{slash}ADC1)*%
X49500000Y-143540000D03*
%TO.P,J9,3*%
%TO.N,Net-(U1-GPIO28{slash}ADC2)*%
X49500000Y-146080000D03*
%TO.P,J9,4*%
%TO.N,Net-(U1-GPIO13)*%
X49500000Y-148620000D03*
%TD*%
D10*
%TO.P,LED43,1,K_1*%
%TO.N,Net-(LED11-K)*%
X65880000Y-36460000D03*
%TO.P,LED43,2,A_2*%
%TO.N,Net-(LED41-A)*%
X66850000Y-36460000D03*
%TD*%
%TO.P,LED30,1,K_1*%
%TO.N,Net-(LED14-K)*%
X59640000Y-44020000D03*
%TO.P,LED30,2,A_2*%
%TO.N,Net-(LED25-A)*%
X60610000Y-44020000D03*
%TD*%
D17*
%TO.P,C8,1*%
%TO.N,Net-(U7-VSP_A)*%
X83500000Y-99000000D03*
D18*
%TO.P,C8,2*%
%TO.N,Net-(D1-VSS)*%
X85000000Y-99000000D03*
%TD*%
D10*
%TO.P,LED58,1,K_1*%
%TO.N,Net-(LED10-K)*%
X72120000Y-33940000D03*
%TO.P,LED58,2,A_2*%
%TO.N,Net-(LED57-A)*%
X73090000Y-33940000D03*
%TD*%
%TO.P,LED28,1,K_1*%
%TO.N,Net-(LED12-K)*%
X59640000Y-38980000D03*
%TO.P,LED28,2,A_2*%
%TO.N,Net-(LED25-A)*%
X60610000Y-38980000D03*
%TD*%
%TO.P,LED23,1,K_1*%
%TO.N,Net-(LED15-K)*%
X56520000Y-46540000D03*
%TO.P,LED23,2,A_2*%
%TO.N,Net-(LED17-A)*%
X57490000Y-46540000D03*
%TD*%
%TO.P,LED15,1,K_1*%
%TO.N,Net-(LED15-K)*%
X53400000Y-46540000D03*
%TO.P,LED15,2,A_2*%
%TO.N,Net-(LED10-A)*%
X54370000Y-46540000D03*
%TD*%
D17*
%TO.P,C18,1*%
%TO.N,Net-(U8-1V2O)*%
X84500000Y-38000000D03*
D18*
%TO.P,C18,2*%
%TO.N,Net-(D1-VSS)*%
X86000000Y-38000000D03*
%TD*%
D17*
%TO.P,C2,1*%
%TO.N,Net-(U1-VREG_VOUT)*%
X65500000Y-73000000D03*
D18*
%TO.P,C2,2*%
%TO.N,Net-(D1-VSS)*%
X67000000Y-73000000D03*
%TD*%
D13*
%TO.P,U1,1,IOVDD_1*%
%TO.N,Net-(J2-Pin_2)*%
X119962500Y-72837500D03*
%TO.P,U1,2,GPIO0_2*%
%TO.N,Net-(U1-GPIO0)*%
X119962500Y-73237500D03*
%TO.P,U1,3,GPIO1_3*%
%TO.N,Net-(U1-GPIO1)*%
X119962500Y-73637500D03*
%TO.P,U1,4,GPIO2_4*%
%TO.N,Net-(U1-GPIO2)*%
X119962500Y-74037500D03*
%TO.P,U1,5,GPIO3_5*%
%TO.N,Net-(U1-GPIO3)*%
X119962500Y-74437500D03*
%TO.P,U1,6,GPIO4_6*%
%TO.N,Net-(U1-GPIO4)*%
X119962500Y-74837500D03*
%TO.P,U1,7,GPIO5_7*%
%TO.N,Net-(U1-GPIO5)*%
X119962500Y-75237500D03*
%TO.P,U1,8,GPIO6_8*%
%TO.N,Net-(U1-GPIO6)*%
X119962500Y-75637500D03*
%TO.P,U1,9,GPIO7_9*%
%TO.N,Net-(U1-GPIO24)*%
X119962500Y-76037500D03*
%TO.P,U1,10,IOVDD_10*%
%TO.N,Net-(J2-Pin_2)*%
X119962500Y-76437500D03*
%TO.P,U1,11,GPIO8_11*%
%TO.N,Net-(U1-GPIO8)*%
X119962500Y-76837500D03*
%TO.P,U1,12,GPIO9_12*%
%TO.N,Net-(LED16-K)*%
X119962500Y-77237500D03*
%TO.P,U1,13,GPIO10_13*%
%TO.N,Net-(U1-GPIO10)*%
X119962500Y-77637500D03*
%TO.P,U1,14,GPIO11_14*%
%TO.N,Net-(U1-GPIO11)*%
X119962500Y-78037500D03*
D14*
%TO.P,U1,15,GPIO12_15*%
%TO.N,Net-(U1-GPIO12)*%
X120800000Y-78875000D03*
%TO.P,U1,16,GPIO13_16*%
%TO.N,Net-(U1-GPIO13)*%
X121200000Y-78875000D03*
%TO.P,U1,17,GPIO14_17*%
%TO.N,Net-(U1-GPIO14)*%
X121600000Y-78875000D03*
%TO.P,U1,18,GPIO15_18*%
%TO.N,Net-(U1-GPIO15)*%
X122000000Y-78875000D03*
%TO.P,U1,19,TESTEN_19*%
%TO.N,Net-(D1-VSS)*%
X122400000Y-78875000D03*
%TO.P,U1,20,XIN_20*%
%TO.N,Net-(U1-XIN)*%
X122800000Y-78875000D03*
%TO.P,U1,21,XOUT_21*%
%TO.N,Net-(D1-VSS)*%
X123200000Y-78875000D03*
%TO.P,U1,22,IOVDD_22*%
%TO.N,Net-(J2-Pin_2)*%
X123600000Y-78875000D03*
%TO.P,U1,23,DVDD_23*%
%TO.N,Net-(C3-Pad1)*%
X124000000Y-78875000D03*
%TO.P,U1,24,SWCLK_24*%
%TO.N,Net-(J2-Pin_4)*%
X124400000Y-78875000D03*
%TO.P,U1,25,SWDIO_25*%
%TO.N,Net-(J2-Pin_3)*%
X124800000Y-78875000D03*
%TO.P,U1,26,RUN_26*%
%TO.N,Net-(U1-RUN)*%
X125200000Y-78875000D03*
%TO.P,U1,27,GPIO16_27*%
%TO.N,Net-(U1-GPIO16)*%
X125600000Y-78875000D03*
%TO.P,U1,28,GPIO17_28*%
%TO.N,Net-(U1-GPIO17)*%
X126000000Y-78875000D03*
D13*
%TO.P,U1,29,GPIO18_29*%
%TO.N,Net-(U1-GPIO18)*%
X126837500Y-78037500D03*
%TO.P,U1,30,GPIO19_30*%
%TO.N,Net-(U1-GPIO19)*%
X126837500Y-77637500D03*
%TO.P,U1,31,GPIO20_31*%
%TO.N,Net-(U1-GPIO20)*%
X126837500Y-77237500D03*
%TO.P,U1,32,GPIO21_32*%
%TO.N,Net-(U1-GPIO21)*%
X126837500Y-76837500D03*
%TO.P,U1,33,IOVDD_33*%
%TO.N,Net-(J2-Pin_2)*%
X126837500Y-76437500D03*
%TO.P,U1,34,GPIO22_34*%
%TO.N,Net-(U1-GPIO22)*%
X126837500Y-76037500D03*
%TO.P,U1,35,GPIO23_35*%
%TO.N,Net-(U1-GPIO23)*%
X126837500Y-75637500D03*
%TO.P,U1,36,GPIO24_36*%
%TO.N,Net-(U1-GPIO24)*%
X126837500Y-75237500D03*
%TO.P,U1,37,GPIO25_37*%
%TO.N,Net-(U1-GPIO25)*%
X126837500Y-74837500D03*
%TO.P,U1,38,GPIO26/ADC0_38*%
%TO.N,Net-(U1-GPIO26{slash}ADC0)*%
X126837500Y-74437500D03*
%TO.P,U1,39,GPIO27/ADC1_39*%
%TO.N,Net-(U1-GPIO27{slash}ADC1)*%
X126837500Y-74037500D03*
%TO.P,U1,40,GPIO28/ADC2_40*%
%TO.N,Net-(U1-GPIO28{slash}ADC2)*%
X126837500Y-73637500D03*
%TO.P,U1,41,GPIO29/ADC3_41*%
%TO.N,Net-(LED12-K)*%
X126837500Y-73237500D03*
%TO.P,U1,42,IOVDD_42*%
%TO.N,Net-(J2-Pin_2)*%
X126837500Y-72837500D03*
D14*
%TO.P,U1,43,ADC_AVDD_43*%
X126000000Y-72000000D03*
%TO.P,U1,44,VREG_VIN_44*%
X125600000Y-72000000D03*
%TO.P,U1,45,VREG_VOUT_45*%
%TO.N,Net-(U1-VREG_VOUT)*%
X125200000Y-72000000D03*
%TO.P,U1,46,USB_DM_46*%
%TO.N,Net-(U1-USB_DM)*%
X124800000Y-72000000D03*
%TO.P,U1,47,USB_DP_47*%
%TO.N,Net-(U1-USB_DP)*%
X124400000Y-72000000D03*
%TO.P,U1,48,USB_VDD_48*%
%TO.N,Net-(J2-Pin_2)*%
X124000000Y-72000000D03*
%TO.P,U1,49,IOVDD_49*%
X123600000Y-72000000D03*
%TO.P,U1,50,DVDD_50*%
%TO.N,Net-(C3-Pad1)*%
X123200000Y-72000000D03*
%TO.P,U1,51,QSPI_SD3_51*%
%TO.N,Net-(U1-QSPI_SD3)*%
X122800000Y-72000000D03*
%TO.P,U1,52,QSPI_SCLK_52*%
%TO.N,Net-(U1-QSPI_SCLK)*%
X122400000Y-72000000D03*
%TO.P,U1,53,QSPI_SD0_53*%
%TO.N,Net-(U1-QSPI_SD0)*%
X122000000Y-72000000D03*
%TO.P,U1,54,QSPI_SD2_54*%
%TO.N,Net-(U1-QSPI_SD2)*%
X121600000Y-72000000D03*
%TO.P,U1,55,QSPI_SD1_55*%
%TO.N,Net-(U1-QSPI_SD1)*%
X121200000Y-72000000D03*
%TO.P,U1,56,~{QSPI_SS}_56*%
%TO.N,Net-(U1-~{QSPI_SS})*%
X120800000Y-72000000D03*
D15*
%TO.P,U1,57,GND_57*%
%TO.N,Net-(D1-VSS)*%
X123400000Y-75437500D03*
%TD*%
D10*
%TO.P,LED20,1,K_1*%
%TO.N,Net-(LED12-K)*%
X56520000Y-38980000D03*
%TO.P,LED20,2,A_2*%
%TO.N,Net-(LED17-A)*%
X57490000Y-38980000D03*
%TD*%
D17*
%TO.P,C3,1*%
%TO.N,Net-(C3-Pad1)*%
X90000000Y-63000000D03*
D18*
%TO.P,C3,2*%
%TO.N,Net-(D1-VSS)*%
X91500000Y-63000000D03*
%TD*%
D10*
%TO.P,LED44,1,K_1*%
%TO.N,Net-(LED12-K)*%
X65880000Y-38980000D03*
%TO.P,LED44,2,A_2*%
%TO.N,Net-(LED41-A)*%
X66850000Y-38980000D03*
%TD*%
D41*
%TO.P,L1,1,1_1*%
%TO.N,Net-(U7-RFO1)*%
X88250000Y-106850000D03*
%TO.P,L1,2,2_2*%
%TO.N,Net-(C12-Pad1)*%
X88750000Y-106850000D03*
%TD*%
D32*
%TO.P,SW4,1*%
%TO.N,Net-(D1-VSS)*%
X75275000Y-85550000D03*
%TO.P,SW4,2*%
%TO.N,Net-(U4-GPIO4)*%
X79725000Y-85550000D03*
%TD*%
D30*
%TO.P,J10,1*%
%TO.N,Net-(U4-GPIO26{slash}ADC0)*%
X49500000Y-154500000D03*
D31*
%TO.P,J10,2*%
%TO.N,Net-(U4-GPIO27{slash}ADC1)*%
X49500000Y-157040000D03*
%TO.P,J10,3*%
%TO.N,Net-(U4-GPIO28{slash}ADC2)*%
X49500000Y-159580000D03*
%TO.P,J10,4*%
%TO.N,Net-(U4-GPIO29{slash}ADC3)*%
X49500000Y-162120000D03*
%TD*%
D10*
%TO.P,LED53,1,K_1*%
%TO.N,Net-(LED13-K)*%
X69000000Y-41500000D03*
%TO.P,LED53,2,A_2*%
%TO.N,Net-(LED49-A)*%
X69970000Y-41500000D03*
%TD*%
D17*
%TO.P,C1,1*%
%TO.N,Net-(J2-Pin_2)*%
X89500000Y-122500000D03*
D18*
%TO.P,C1,2*%
%TO.N,Net-(U2-VOUT)*%
X91000000Y-122500000D03*
%TD*%
D42*
%TO.P,U6,1,DIN_1*%
%TO.N,Net-(U4-GPIO19)*%
X120000000Y-35690000D03*
%TO.P,U6,2,DIG_0_2*%
%TO.N,Net-(LED1-K)*%
X120000000Y-36960000D03*
%TO.P,U6,3,DIG_4_3*%
%TO.N,Net-(LED13-K)*%
X120000000Y-38230000D03*
%TO.P,U6,4,GND_4*%
%TO.N,Net-(D1-VSS)*%
X120000000Y-39500000D03*
%TO.P,U6,5,DIG_6_5*%
%TO.N,Net-(LED15-K)*%
X120000000Y-40770000D03*
%TO.P,U6,6,DIG_2_6*%
%TO.N,Net-(LED11-K)*%
X120000000Y-42040000D03*
%TO.P,U6,7,DIG_3_7*%
%TO.N,Net-(U1-GPIO13)*%
X120000000Y-43310000D03*
%TO.P,U6,8,DIG_7_8*%
%TO.N,Net-(D1-VSS)*%
X120000000Y-44580000D03*
%TO.P,U6,9,GND_9*%
X120000000Y-45850000D03*
%TO.P,U6,10,DIG_5_10*%
%TO.N,Net-(LED14-K)*%
X120000000Y-47120000D03*
%TO.P,U6,11,DIG_1_11*%
%TO.N,Net-(LED10-K)*%
X120000000Y-48390000D03*
%TO.P,U6,12,LOAD_12*%
%TO.N,Net-(U4-GPIO20)*%
X120000000Y-49660000D03*
%TO.P,U6,13,CLK_13*%
%TO.N,Net-(U4-GPIO18)*%
X129300000Y-49660000D03*
%TO.P,U6,14,SEG_A_14*%
%TO.N,Net-(LED1-A)*%
X129300000Y-48390000D03*
%TO.P,U6,15,SEG_F_15*%
%TO.N,Net-(LED41-A)*%
X129300000Y-47120000D03*
%TO.P,U6,16,SEG_B_16*%
%TO.N,Net-(LED10-A)*%
X129300000Y-45850000D03*
%TO.P,U6,17,SEG_G_17*%
%TO.N,Net-(LED49-A)*%
X129300000Y-44580000D03*
%TO.P,U6,18,ISET_18*%
%TO.N,Net-(U6-ISET)*%
X129300000Y-43310000D03*
%TO.P,U6,19,V+_19*%
%TO.N,Net-(D1-VCC)*%
X129300000Y-42040000D03*
%TO.P,U6,20,SEG_C_20*%
%TO.N,Net-(LED17-A)*%
X129300000Y-40770000D03*
%TO.P,U6,21,SEG_E_21*%
%TO.N,Net-(LED33-A)*%
X129300000Y-39500000D03*
%TO.P,U6,22,SEG_DP_22*%
%TO.N,Net-(LED57-A)*%
X129300000Y-38230000D03*
%TO.P,U6,23,SEG_D_23*%
%TO.N,Net-(LED25-A)*%
X129300000Y-36960000D03*
%TO.P,U6,24,DOUT_24*%
%TO.N,Net-(U4-GPIO21)*%
X129300000Y-35690000D03*
%TD*%
D11*
%TO.P,C11,1*%
%TO.N,Net-(U7-RFI1)*%
X91500000Y-84000000D03*
%TO.P,C11,2*%
%TO.N,Net-(C11-Pad2)*%
X94000000Y-84000000D03*
%TD*%
D10*
%TO.P,LED10,1,K_1*%
%TO.N,Net-(LED10-K)*%
X53400000Y-33940000D03*
%TO.P,LED10,2,A_2*%
%TO.N,Net-(LED10-A)*%
X54370000Y-33940000D03*
%TD*%
D11*
%TO.P,R2,1*%
%TO.N,Net-(J1-D--PadA7)*%
X106950000Y-133080000D03*
%TO.P,R2,2*%
%TO.N,Net-(U1-USB_DM)*%
X106950000Y-122920000D03*
%TD*%
D10*
%TO.P,LED29,1,K_1*%
%TO.N,Net-(LED13-K)*%
X59640000Y-41500000D03*
%TO.P,LED29,2,A_2*%
%TO.N,Net-(LED25-A)*%
X60610000Y-41500000D03*
%TD*%
%TO.P,LED27,1,K_1*%
%TO.N,Net-(LED11-K)*%
X59640000Y-36460000D03*
%TO.P,LED27,2,A_2*%
%TO.N,Net-(LED25-A)*%
X60610000Y-36460000D03*
%TD*%
D26*
%TO.P,C16,1*%
%TO.N,Net-(C11-Pad2)*%
X126812500Y-112000000D03*
D27*
%TO.P,C16,2*%
X126812500Y-97000000D03*
%TD*%
D39*
%TO.P,J2,1,Pin_1_1*%
%TO.N,Net-(D1-VSS)*%
X86500000Y-73000000D03*
D40*
%TO.P,J2,2,Pin_2_2*%
%TO.N,Net-(J2-Pin_2)*%
X86500000Y-74000000D03*
%TO.P,J2,3,Pin_3_3*%
%TO.N,Net-(J2-Pin_3)*%
X86500000Y-75000000D03*
%TO.P,J2,4,Pin_4_4*%
%TO.N,Net-(J2-Pin_4)*%
X86500000Y-76000000D03*
%TD*%
D10*
%TO.P,LED34,1,K_1*%
%TO.N,Net-(LED10-K)*%
X62760000Y-33940000D03*
%TO.P,LED34,2,A_2*%
%TO.N,Net-(LED33-A)*%
X63730000Y-33940000D03*
%TD*%
D41*
%TO.P,L2,1,1_1*%
%TO.N,Net-(U7-RFO2)*%
X88250000Y-108500000D03*
%TO.P,L2,2,2_2*%
%TO.N,Net-(C13-Pad1)*%
X88750000Y-108500000D03*
%TD*%
D43*
%TO.P,J1,A1,GND_A1*%
%TO.N,Net-(D1-VSS)*%
X109000000Y-162125000D03*
D44*
X109500000Y-162125000D03*
D43*
X116100000Y-162125000D03*
D44*
%TO.P,J1,A4,VBUS_A4*%
%TO.N,Net-(D1-VCC)*%
X111300000Y-162125000D03*
%TO.P,J1,A5,CC1_A5*%
%TO.N,unconnected-(J1-CC1-PadA5)*%
X111800000Y-162125000D03*
%TO.P,J1,A6,D+_A6*%
%TO.N,Net-(J1-D+-PadA6)*%
X112300000Y-162125000D03*
%TO.P,J1,A7,D-_A7*%
%TO.N,Net-(J1-D--PadA7)*%
X112800000Y-162125000D03*
%TO.P,J1,A8,SBU1_A8*%
%TO.N,unconnected-(J1-SBU1-PadA8)*%
X113300000Y-162125000D03*
%TO.P,J1,A9,VBUS_A9*%
%TO.N,Net-(D1-VCC)*%
X113800000Y-162125000D03*
%TO.P,J1,A12,GND_A12*%
%TO.N,Net-(D1-VSS)*%
X115600000Y-162125000D03*
%TO.P,J1,B1,GND_B1*%
X115550000Y-163375000D03*
%TO.P,J1,B4,VBUS_B4*%
%TO.N,Net-(D1-VCC)*%
X114050000Y-163375000D03*
%TO.P,J1,B5,CC2_B5*%
%TO.N,unconnected-(J1-CC2-PadB5)*%
X113550000Y-163375000D03*
%TO.P,J1,B6,D+_B6*%
%TO.N,Net-(J1-D+-PadA6)*%
X113050000Y-163375000D03*
%TO.P,J1,B7,D-_B7*%
%TO.N,Net-(J1-D--PadA7)*%
X112050000Y-163375000D03*
%TO.P,J1,B8,SBU2_B8*%
%TO.N,unconnected-(J1-SBU2-PadB8)*%
X111550000Y-163375000D03*
%TO.P,J1,B9,VBUS_B9*%
%TO.N,Net-(D1-VCC)*%
X111050000Y-163375000D03*
%TO.P,J1,B12,GND_B12*%
%TO.N,Net-(D1-VSS)*%
X109550000Y-163375000D03*
D45*
%TO.P,J1,SH,SHIELD_SH*%
X108100000Y-162300000D03*
D46*
X108100000Y-165500000D03*
D45*
X117000000Y-162300000D03*
D46*
X117000000Y-165500000D03*
%TD*%
D10*
%TO.P,LED61,1,K_1*%
%TO.N,Net-(LED13-K)*%
X72120000Y-41500000D03*
%TO.P,LED61,2,A_2*%
%TO.N,Net-(LED57-A)*%
X73090000Y-41500000D03*
%TD*%
%TO.P,LED1,1,K_1*%
%TO.N,Net-(LED1-K)*%
X50280000Y-31420000D03*
%TO.P,LED1,2,A_2*%
%TO.N,Net-(LED1-A)*%
X51250000Y-31420000D03*
%TD*%
D11*
%TO.P,R7,1*%
%TO.N,Net-(U4-GPIO7)*%
X127200000Y-133080000D03*
%TO.P,R7,2*%
%TO.N,Net-(D1-DIN)*%
X127200000Y-122920000D03*
%TD*%
D10*
%TO.P,LED56,1,K_1*%
%TO.N,Net-(LED16-K)*%
X69000000Y-49060000D03*
%TO.P,LED56,2,A_2*%
%TO.N,Net-(LED49-A)*%
X69970000Y-49060000D03*
%TD*%
%TO.P,LED9,1,K_1*%
%TO.N,Net-(LED1-K)*%
X53400000Y-31420000D03*
%TO.P,LED9,2,A_2*%
%TO.N,Net-(LED10-A)*%
X54370000Y-31420000D03*
%TD*%
D30*
%TO.P,J7,1*%
%TO.N,Net-(U1-GPIO2)*%
X50500000Y-82840000D03*
D31*
%TO.P,J7,2*%
%TO.N,Net-(U1-GPIO3)*%
X50500000Y-85380000D03*
%TO.P,J7,3*%
%TO.N,Net-(U1-GPIO4)*%
X50500000Y-87920000D03*
%TO.P,J7,4*%
%TO.N,Net-(U1-GPIO5)*%
X50500000Y-90460000D03*
%TO.P,J7,5*%
%TO.N,Net-(U1-GPIO8)*%
X50500000Y-93000000D03*
%TO.P,J7,6*%
%TO.N,Net-(U4-GPIO23)*%
X50500000Y-95540000D03*
%TO.P,J7,7*%
%TO.N,Net-(U1-GPIO15)*%
X50500000Y-98080000D03*
%TO.P,J7,8*%
%TO.N,Net-(U1-GPIO10)*%
X50500000Y-100620000D03*
%TO.P,J7,9*%
%TO.N,Net-(U1-GPIO11)*%
X50500000Y-103160000D03*
%TO.P,J7,10*%
%TO.N,Net-(U1-GPIO12)*%
X50500000Y-105700000D03*
%TD*%
D47*
%TO.P,D1,1,DOUT_1*%
%TO.N,unconnected-(D1-DOUT-Pad1)*%
X67600000Y-98300000D03*
%TO.P,D1,2,DIN_2*%
%TO.N,Net-(D1-DIN)*%
X67600000Y-99900000D03*
%TO.P,D1,3,VCC_3*%
%TO.N,Net-(D1-VCC)*%
X67600000Y-101500000D03*
%TO.P,D1,4,NC_4*%
%TO.N,unconnected-(D1-NC-Pad4)*%
X72500000Y-101500000D03*
%TO.P,D1,5,VDD_5*%
%TO.N,Net-(D1-VCC)*%
X72500000Y-99900000D03*
%TO.P,D1,6,VSS_6*%
%TO.N,Net-(D1-VSS)*%
X72500000Y-98300000D03*
%TD*%
D34*
%TO.P,X1,1,1_1*%
%TO.N,Net-(U1-XIN)*%
X83800000Y-48000000D03*
%TO.P,X1,2,2_2*%
%TO.N,Net-(D1-VSS)*%
X86000000Y-48000000D03*
%TO.P,X1,3,3_3*%
X86000000Y-46300000D03*
%TO.P,X1,4,4_4*%
X83800000Y-46300000D03*
%TD*%
D10*
%TO.P,LED51,1,K_1*%
%TO.N,Net-(LED11-K)*%
X69000000Y-36460000D03*
%TO.P,LED51,2,A_2*%
%TO.N,Net-(LED49-A)*%
X69970000Y-36460000D03*
%TD*%
%TO.P,LED18,1,K_1*%
%TO.N,Net-(LED10-K)*%
X56520000Y-33940000D03*
%TO.P,LED18,2,A_2*%
%TO.N,Net-(LED17-A)*%
X57490000Y-33940000D03*
%TD*%
%TO.P,LED5,1,K_1*%
%TO.N,Net-(LED13-K)*%
X50280000Y-41500000D03*
%TO.P,LED5,2,A_2*%
%TO.N,Net-(LED1-A)*%
X51250000Y-41500000D03*
%TD*%
%TO.P,LED31,1,K_1*%
%TO.N,Net-(LED15-K)*%
X59640000Y-46540000D03*
%TO.P,LED31,2,A_2*%
%TO.N,Net-(LED25-A)*%
X60610000Y-46540000D03*
%TD*%
D26*
%TO.P,C14,1*%
%TO.N,Net-(C12-Pad1)*%
X113742500Y-112000000D03*
D27*
%TO.P,C14,2*%
%TO.N,Net-(C11-Pad2)*%
X113742500Y-97000000D03*
%TD*%
D11*
%TO.P,R5,1*%
%TO.N,Net-(J2-Pin_2)*%
X119100000Y-133080000D03*
%TO.P,R5,2*%
%TO.N,Net-(J4-PadL2)*%
X119100000Y-122920000D03*
%TD*%
D30*
%TO.P,J6,1*%
%TO.N,Net-(U1-GPIO13)*%
X50500000Y-55340000D03*
D31*
%TO.P,J6,2*%
%TO.N,Net-(U1-GPIO14)*%
X50500000Y-57880000D03*
%TO.P,J6,3*%
%TO.N,Net-(U1-GPIO18)*%
X50500000Y-60420000D03*
%TO.P,J6,4*%
%TO.N,Net-(U1-GPIO6)*%
X50500000Y-62960000D03*
%TO.P,J6,5*%
%TO.N,Net-(U1-GPIO17)*%
X50500000Y-65500000D03*
%TO.P,J6,6*%
%TO.N,Net-(U1-GPIO16)*%
X50500000Y-68040000D03*
%TO.P,J6,7*%
%TO.N,Net-(U1-GPIO19)*%
X50500000Y-70580000D03*
%TO.P,J6,8*%
%TO.N,Net-(U1-GPIO20)*%
X50500000Y-73120000D03*
%TO.P,J6,9*%
%TO.N,Net-(U1-GPIO21)*%
X50500000Y-75660000D03*
%TD*%
D10*
%TO.P,LED16,1,K_1*%
%TO.N,Net-(LED16-K)*%
X53400000Y-49060000D03*
%TO.P,LED16,2,A_2*%
%TO.N,Net-(LED10-A)*%
X54370000Y-49060000D03*
%TD*%
D26*
%TO.P,C15,1*%
%TO.N,Net-(C11-Pad2)*%
X120277500Y-112000000D03*
D27*
%TO.P,C15,2*%
%TO.N,Net-(C13-Pad1)*%
X120277500Y-97000000D03*
%TD*%
D10*
%TO.P,LED45,1,K_1*%
%TO.N,Net-(LED13-K)*%
X65880000Y-41500000D03*
%TO.P,LED45,2,A_2*%
%TO.N,Net-(LED41-A)*%
X66850000Y-41500000D03*
%TD*%
D33*
%TO.P,C20,1*%
%TO.N,unconnected-(C20-Pad1)*%
X102500000Y-56500000D03*
%TO.P,C20,2*%
%TO.N,unconnected-(C20-Pad2)*%
X105500000Y-56500000D03*
%TD*%
D32*
%TO.P,SW1,1*%
%TO.N,Net-(D1-VSS)*%
X113275000Y-87500000D03*
%TO.P,SW1,2*%
%TO.N,Net-(U1-RUN)*%
X117725000Y-87500000D03*
%TD*%
D10*
%TO.P,LED52,1,K_1*%
%TO.N,Net-(LED12-K)*%
X69000000Y-38980000D03*
%TO.P,LED52,2,A_2*%
%TO.N,Net-(LED49-A)*%
X69970000Y-38980000D03*
%TD*%
%TO.P,LED17,1,K_1*%
%TO.N,Net-(LED1-K)*%
X56520000Y-31420000D03*
%TO.P,LED17,2,A_2*%
%TO.N,Net-(LED17-A)*%
X57490000Y-31420000D03*
%TD*%
D48*
%TO.N,Net-(U1-QSPI_SD2)*%
X93374385Y-65874385D03*
X115934100Y-66500000D03*
X112056270Y-64595202D03*
X125907762Y-72980189D03*
X117856750Y-56143250D03*
X94331400Y-68000000D03*
X119621835Y-52621835D03*
X118500000Y-60822100D03*
X87886700Y-68500000D03*
X115500000Y-54500000D03*
%TO.N,Net-(U1-QSPI_SD1)*%
X70000000Y-70500000D03*
X71500000Y-66500000D03*
X71500000Y-63500000D03*
X120500000Y-55000000D03*
%TO.N,Net-(U1-GPIO8)*%
X89500000Y-69000000D03*
X109500000Y-74187500D03*
X110615008Y-75615008D03*
X117534100Y-78500000D03*
X108988235Y-78011765D03*
X104951800Y-73699670D03*
X90529478Y-70430500D03*
X86373200Y-78000000D03*
X70500000Y-81073400D03*
X87845200Y-73400000D03*
X103724265Y-74375735D03*
X107000000Y-81100000D03*
%TO.N,Net-(U1-GPIO10)*%
X118569100Y-70000000D03*
X121300001Y-75951471D03*
X94500000Y-70000000D03*
X89500000Y-83000000D03*
X114500000Y-70500000D03*
X106000000Y-73000000D03*
X72951700Y-90500000D03*
X104000000Y-75500000D03*
X110287600Y-70000000D03*
X117500000Y-67500000D03*
%TO.N,Net-(U1-GPIO11)*%
X119769100Y-81000000D03*
%TO.N,Net-(J2-Pin_3)*%
X121467817Y-73463794D03*
%TO.N,Net-(U1-RUN)*%
X126002959Y-81502959D03*
X122500000Y-83500000D03*
X124400000Y-83082566D03*
X125045852Y-79914478D03*
X118500000Y-83500000D03*
X119850735Y-84149265D03*
%TO.N,Net-(D1-VSS)*%
X125000000Y-84952800D03*
X124480165Y-80480165D03*
%TO.N,Net-(U1-XIN)*%
X123000000Y-80500000D03*
X124374416Y-82282973D03*
%TO.N,Net-(U4-GPIO13)*%
X106330013Y-79900000D03*
X105850000Y-81100000D03*
X111486665Y-77013335D03*
X117210285Y-72210285D03*
X104650000Y-81100000D03*
X119769100Y-66500000D03*
X117134100Y-77000000D03*
X115241315Y-78741315D03*
%TO.N,Net-(U4-GPIO14)*%
X122000000Y-65000000D03*
X103440674Y-79702203D03*
%TO.N,Net-(U4-GPIO17)*%
X117134100Y-76000000D03*
X119769100Y-70500000D03*
X103500000Y-80500000D03*
X117500000Y-73500000D03*
%TO.N,Net-(U4-GPIO19)*%
X130000000Y-62000000D03*
X132635300Y-62000000D03*
%TO.N,Net-(U1-GPIO13)*%
X117000000Y-42962400D03*
X120000000Y-42962400D03*
%TO.N,Net-(U1-GPIO14)*%
X110107020Y-68411792D03*
X121500000Y-81500000D03*
%TO.N,Net-(D1-DIN)*%
X68857600Y-99879700D03*
%TO.N,Net-(U7-RFI1)*%
X107600500Y-85926900D03*
%TO.N,Net-(U7-VSP_A)*%
X99309900Y-84684300D03*
%TO.N,Net-(U7-VSP_D)*%
X99822000Y-83320100D03*
%TO.N,Net-(U7-AGD)*%
X95331400Y-87540700D03*
X107445700Y-83370100D03*
%TO.N,Net-(U7-XTO)*%
X100622400Y-84692700D03*
X127600000Y-85552800D03*
%TO.N,Net-(U7-XTI)*%
X98578100Y-82335800D03*
X121486800Y-84936800D03*
%TO.N,Net-(LED12-K)*%
X70496500Y-37811900D03*
X65880000Y-38122300D03*
X64355000Y-39621900D03*
X59640000Y-39805800D03*
%TO.N,Net-(LED11-K)*%
X118269600Y-39972800D03*
X72120000Y-37425600D03*
X68412300Y-37431000D03*
X65880000Y-37294900D03*
%TO.N,Net-(LED17-A)*%
X127895300Y-41358500D03*
X58313500Y-41849600D03*
X58320900Y-36460100D03*
X58311000Y-39078400D03*
%TO.N,Net-(LED49-A)*%
X130828300Y-44576500D03*
X69853700Y-44851300D03*
X69970000Y-47423200D03*
%TO.N,Net-(LED25-A)*%
X61408100Y-36460100D03*
X61409000Y-37953400D03*
X116008500Y-38815900D03*
%TO.N,Net-(J4-PadL3)*%
X92153300Y-150642000D03*
%TO.N,Net-(J4-PadL2)*%
X120239100Y-161441500D03*
%TO.N,Net-(LED10-A)*%
X131435300Y-43562400D03*
X55167700Y-46218400D03*
X55195200Y-34177100D03*
X54370000Y-37720000D03*
%TO.N,Net-(LED13-K)*%
X72580700Y-39994400D03*
X69000000Y-40256400D03*
X110253100Y-41670600D03*
X65880000Y-40593600D03*
X59801800Y-40650100D03*
%TO.N,Net-(J1-D+-PadA6)*%
X110352400Y-139159400D03*
%TO.N,Net-(U8-1V2O)*%
X107169600Y-76766000D03*
X92402900Y-68861300D03*
%TO.N,Net-(U8-TOCAP)*%
X104500000Y-78745300D03*
X89957500Y-71030500D03*
%TO.N,Net-(J4-TD1-)*%
X96748900Y-143686100D03*
%TO.N,Net-(U7-VSP_RF)*%
X97701200Y-75966200D03*
X110887600Y-68587000D03*
%TO.N,Net-(LED1-A)*%
X127771500Y-48390000D03*
X51228600Y-47718100D03*
%TO.N,Net-(LED1-K)*%
X118506900Y-37414600D03*
X72120000Y-32350900D03*
%TO.N,Net-(LED33-A)*%
X126837100Y-39023500D03*
X63730000Y-32680000D03*
X63730000Y-37338500D03*
%TO.N,Net-(LED15-K)*%
X71209900Y-46699600D03*
X59640000Y-47582500D03*
X53758400Y-47744300D03*
X117541100Y-47858500D03*
X65880000Y-47458500D03*
%TO.N,Net-(LED57-A)*%
X73320300Y-40603300D03*
X127920900Y-38801100D03*
%TO.N,Net-(LED14-K)*%
X118475600Y-46691000D03*
X72120800Y-45173900D03*
X56978700Y-45268200D03*
X53400000Y-45328700D03*
X68197500Y-44212800D03*
X65880000Y-44870800D03*
%TO.N,Net-(J2-Pin_2)*%
X98011100Y-76772700D03*
%TO.N,Net-(U6-ISET)*%
X117858600Y-131677300D03*
%TO.N,Net-(D1-VSS)*%
X107285500Y-69926000D03*
X121935600Y-60222100D03*
%TO.N,Net-(D1-VCC)*%
X72248900Y-128001000D03*
%TO.N,Net-(U7-RFI2)*%
X107803900Y-84863100D03*
%TO.N,Net-(LED41-A)*%
X127772200Y-47274000D03*
X67488400Y-48421600D03*
%TO.N,Net-(LED10-K)*%
X115119700Y-40484100D03*
X71305800Y-38030500D03*
X63604900Y-34969100D03*
X59640000Y-33107200D03*
X56520000Y-33107200D03*
%TD*%
%TO.N,Net-(U1-QSPI_SD2)*%
D49*
X125907762Y-72980189D02*
X122046329Y-72980189D01*
X122046329Y-72980189D02*
X121600000Y-72533860D01*
X121600000Y-72533860D02*
X121600000Y-72000000D01*
X112056270Y-64595202D02*
X114029302Y-64595202D01*
X94500000Y-67831400D02*
X94331400Y-68000000D01*
X75500000Y-61050000D02*
X75505000Y-61045000D01*
X75505000Y-61045000D02*
X81631700Y-61045000D01*
X118500000Y-60822100D02*
X118500000Y-56786500D01*
X81631700Y-61045000D02*
X87886700Y-67300000D01*
X118500000Y-56786500D02*
X117856750Y-56143250D01*
X114029302Y-64595202D02*
X115934100Y-66500000D01*
X94500000Y-67000000D02*
X94500000Y-67831400D01*
X117378165Y-52621835D02*
X119621835Y-52621835D01*
X115500000Y-54500000D02*
X117378165Y-52621835D01*
X73750000Y-64135000D02*
X75500000Y-62385000D01*
X87886700Y-67300000D02*
X87886700Y-68500000D01*
X75500000Y-62385000D02*
X75500000Y-61050000D01*
X93374385Y-65874385D02*
X94500000Y-67000000D01*
%TO.N,Net-(U1-QSPI_SD1)*%
X70000000Y-70500000D02*
X71500000Y-69000000D01*
X71500000Y-69000000D02*
X71500000Y-66500000D01*
X72000000Y-63500000D02*
X72635000Y-62865000D01*
X71500000Y-63500000D02*
X72000000Y-63500000D01*
X72635000Y-62865000D02*
X73750000Y-62865000D01*
X126440000Y-49060000D02*
X120500000Y-55000000D01*
X130365552Y-49060000D02*
X126440000Y-49060000D01*
X131000000Y-49694448D02*
X130365552Y-49060000D01*
X131000000Y-62635300D02*
X131000000Y-49694448D01*
X122372800Y-71262500D02*
X131000000Y-62635300D01*
X121237500Y-71262500D02*
X122372800Y-71262500D01*
X121200000Y-71300000D02*
X121237500Y-71262500D01*
X121200000Y-72000000D02*
X121200000Y-71300000D01*
%TO.N,Net-(U1-GPIO8)*%
X70500000Y-82772793D02*
X60272793Y-93000000D01*
X108988235Y-79111765D02*
X108988235Y-78011765D01*
X110615008Y-75615008D02*
X110615008Y-75302508D01*
X119196600Y-76837500D02*
X117534100Y-78500000D01*
X104951800Y-73699670D02*
X104400330Y-73699670D01*
X90529478Y-70430500D02*
X90529478Y-70029478D01*
X107000000Y-81100000D02*
X108988235Y-79111765D01*
X60272793Y-93000000D02*
X50500000Y-93000000D01*
X90529478Y-70029478D02*
X89500000Y-69000000D01*
X87845200Y-73400000D02*
X87845200Y-76528000D01*
X110615008Y-75302508D02*
X109500000Y-74187500D01*
X87845200Y-76528000D02*
X86373200Y-78000000D01*
X104400330Y-73699670D02*
X103724265Y-74375735D01*
X119962500Y-76837500D02*
X119196600Y-76837500D01*
X70500000Y-81073400D02*
X70500000Y-82772793D01*
%TO.N,Net-(U6-ISET)*%
X129300000Y-43310000D02*
X128801800Y-43310000D01*
X128801800Y-43310000D02*
X125493200Y-46618600D01*
X117858600Y-90511000D02*
X117858600Y-131677300D01*
X125493200Y-46618600D02*
X125493200Y-48704300D01*
X119169100Y-55028400D02*
X119169100Y-75830900D01*
X125493200Y-48704300D02*
X119169100Y-55028400D01*
X119169100Y-75830900D02*
X116934100Y-78065900D01*
X116934100Y-78065900D02*
X116934100Y-78934100D01*
X116934100Y-78934100D02*
X119169100Y-81169100D01*
X119169100Y-81169100D02*
X119169100Y-89200500D01*
X119169100Y-89200500D02*
X117858600Y-90511000D01*
%TO.N,Net-(LED16-K)*%
X120000000Y-77237500D02*
X119962500Y-77237500D01*
%TO.N,Net-(U1-GPIO10)*%
X118569100Y-68569100D02*
X118569100Y-70000000D01*
X120496360Y-77637500D02*
X119962500Y-77637500D01*
X117500000Y-67500000D02*
X118569100Y-68569100D01*
X121300001Y-76833859D02*
X120496360Y-77637500D01*
X121300001Y-75951471D02*
X121300001Y-76833859D01*
%TO.N,Net-(U1-RUN)*%
X122500000Y-83500000D02*
X121700000Y-83500000D01*
X121700000Y-83500000D02*
X121050735Y-84149265D01*
X121050735Y-84149265D02*
X119850735Y-84149265D01*
%TO.N,Net-(U1-GPIO10)*%
X62831700Y-100620000D02*
X72951700Y-90500000D01*
X89500000Y-83000000D02*
X94500000Y-78000000D01*
X50500000Y-100620000D02*
X62831700Y-100620000D01*
X94500000Y-78000000D02*
X94500000Y-70000000D01*
X114000000Y-70000000D02*
X114500000Y-70500000D01*
X104000000Y-75500000D02*
X106000000Y-73500000D01*
X110287600Y-70000000D02*
X114000000Y-70000000D01*
X106000000Y-73500000D02*
X106000000Y-73000000D01*
%TO.N,Net-(U1-GPIO11)*%
X119962500Y-78037500D02*
X119769100Y-78230900D01*
X119769100Y-78230900D02*
X119769100Y-81000000D01*
%TO.N,Net-(J2-Pin_3)*%
X125396360Y-73537500D02*
X125322654Y-73463794D01*
X124800000Y-78875000D02*
X124800000Y-78341140D01*
X124800000Y-78341140D02*
X125396360Y-77744780D01*
X125396360Y-77744780D02*
X125396360Y-73537500D01*
X125322654Y-73463794D02*
X121467817Y-73463794D01*
%TO.N,Net-(U1-RUN)*%
X117725000Y-87500000D02*
X117725000Y-84275000D01*
X124400000Y-83082566D02*
X124423352Y-83082566D01*
X117725000Y-84275000D02*
X118500000Y-83500000D01*
X124423352Y-83082566D02*
X126002959Y-81502959D01*
X125045852Y-79914478D02*
X125200000Y-79760330D01*
X125200000Y-79760330D02*
X125200000Y-78875000D01*
%TO.N,Net-(D1-VSS)*%
X123200000Y-78875000D02*
X123200000Y-79408860D01*
X123200000Y-79408860D02*
X124271305Y-80480165D01*
X124271305Y-80480165D02*
X124480165Y-80480165D01*
X125000000Y-84952800D02*
X125000000Y-86000000D01*
X125000000Y-86000000D02*
X125400000Y-86400000D01*
X125400000Y-86400000D02*
X125400000Y-87150000D01*
X123200000Y-78341140D02*
X123400000Y-78141140D01*
X123400000Y-78141140D02*
X123400000Y-75437500D01*
X123200000Y-78875000D02*
X123200000Y-78341140D01*
X123200000Y-78341140D02*
X122996360Y-78137500D01*
X122996360Y-78137500D02*
X122603640Y-78137500D01*
X122603640Y-78137500D02*
X122400000Y-78341140D01*
X122400000Y-78341140D02*
X122400000Y-78875000D01*
%TO.N,Net-(U1-XIN)*%
X133235300Y-37959748D02*
X133235300Y-73422089D01*
X130365552Y-35090000D02*
X133235300Y-37959748D01*
X85925256Y-35090000D02*
X130365552Y-35090000D01*
X82800000Y-38215256D02*
X85925256Y-35090000D01*
X82800000Y-47000000D02*
X82800000Y-38215256D01*
X133235300Y-73422089D02*
X124374416Y-82282973D01*
X83800000Y-48000000D02*
X82800000Y-47000000D01*
X123000000Y-80500000D02*
X122800000Y-80300000D01*
X122800000Y-80300000D02*
X122800000Y-78875000D01*
%TO.N,Net-(U4-GPIO13)*%
X117210285Y-72210285D02*
X118100000Y-73100000D01*
X115241315Y-78741315D02*
X112931801Y-78741315D01*
X112931801Y-78741315D02*
X111486665Y-77296179D01*
X118100000Y-73100000D02*
X118100000Y-76034100D01*
X111486665Y-77296179D02*
X111486665Y-77013335D01*
X118100000Y-76034100D02*
X117134100Y-77000000D01*
X104750000Y-81200000D02*
X104750000Y-82550000D01*
X106330013Y-80619987D02*
X105850000Y-81100000D01*
X119769100Y-65864760D02*
X119769100Y-66500000D01*
X106330013Y-79900000D02*
X106330013Y-80619987D01*
X104650000Y-81100000D02*
X104750000Y-81200000D01*
X121862500Y-63771360D02*
X119769100Y-65864760D01*
X121862500Y-63237500D02*
X121862500Y-63771360D01*
%TO.N,Net-(U4-GPIO14)*%
X103750000Y-81098529D02*
X104100000Y-80748529D01*
X103550732Y-79702203D02*
X103440674Y-79702203D01*
X104100000Y-80748529D02*
X104100000Y-80251471D01*
X104100000Y-80251471D02*
X103550732Y-79702203D01*
X122000000Y-65000000D02*
X122262500Y-64737500D01*
X103750000Y-82550000D02*
X103750000Y-81098529D01*
X122262500Y-64737500D02*
X122262500Y-63237500D01*
%TO.N,Net-(U4-GPIO17)*%
X126662500Y-63237500D02*
X126662500Y-63771360D01*
X126662500Y-63771360D02*
X119933860Y-70500000D01*
X117500000Y-73500000D02*
X117500000Y-75634100D01*
X119933860Y-70500000D02*
X119769100Y-70500000D01*
X117500000Y-75634100D02*
X117134100Y-76000000D01*
X103500000Y-80500000D02*
X103250000Y-80750000D01*
X103250000Y-80750000D02*
X103250000Y-82550000D01*
%TO.N,Net-(U4-GPIO18)*%
X129300000Y-49660000D02*
X130600000Y-50960000D01*
X130600000Y-50960000D02*
X130600000Y-62248529D01*
X130600000Y-62248529D02*
X130248529Y-62600000D01*
X130248529Y-62600000D02*
X127700000Y-62600000D01*
X127700000Y-62600000D02*
X127500000Y-62400000D01*
%TO.N,Net-(U4-GPIO19)*%
X120000000Y-35690000D02*
X120670000Y-36360000D01*
X120670000Y-36360000D02*
X130365552Y-36360000D01*
X130365552Y-36360000D02*
X132635300Y-38629748D01*
X132635300Y-38629748D02*
X132635300Y-62000000D01*
X130000000Y-62000000D02*
X127500000Y-62000000D01*
%TO.N,Net-(U1-GPIO13)*%
X120900000Y-81748529D02*
X121251471Y-82100000D01*
X121251471Y-82100000D02*
X123708860Y-82100000D01*
X120900000Y-81251471D02*
X120900000Y-81748529D01*
X114871171Y-39884100D02*
X115368229Y-39884100D01*
X121733500Y-49592052D02*
X121065552Y-50260000D01*
X121200000Y-80951471D02*
X120900000Y-81251471D01*
X121733500Y-43310000D02*
X121733500Y-49592052D01*
X121200000Y-78875000D02*
X121200000Y-80951471D01*
X114519700Y-45845252D02*
X114519700Y-40235571D01*
X118934448Y-50260000D02*
X114519700Y-45845252D01*
X117000000Y-41515871D02*
X117000000Y-42962400D01*
X114519700Y-40235571D02*
X114871171Y-39884100D01*
X123708860Y-82100000D02*
X132035300Y-73773560D01*
X132035300Y-73773560D02*
X132035300Y-41839748D01*
X132035300Y-41839748D02*
X130365552Y-40170000D01*
X115368229Y-39884100D02*
X117000000Y-41515871D01*
X130365552Y-40170000D02*
X124873500Y-40170000D01*
X124873500Y-40170000D02*
X121733500Y-43310000D01*
X121065552Y-50260000D02*
X118934448Y-50260000D01*
%TO.N,Net-(U1-GPIO14)*%
X93155256Y-36360000D02*
X104093971Y-36360000D01*
X104093971Y-36360000D02*
X110107020Y-42373049D01*
X121600000Y-81400000D02*
X121600000Y-78875000D01*
X91800900Y-71630500D02*
X94931400Y-68500000D01*
X94931400Y-68500000D02*
X94931400Y-41416144D01*
X110107020Y-42373049D02*
X110107020Y-68411792D01*
X92100000Y-37415256D02*
X93155256Y-36360000D01*
X92100000Y-38584744D02*
X92100000Y-37415256D01*
X94931400Y-41416144D02*
X92100000Y-38584744D01*
X54655000Y-53725000D02*
X78225000Y-53725000D01*
X88486700Y-70408229D02*
X89708971Y-71630500D01*
X88486700Y-63986700D02*
X88486700Y-70408229D01*
X78225000Y-53725000D02*
X88486700Y-63986700D01*
X50500000Y-57880000D02*
X54655000Y-53725000D01*
X89708971Y-71630500D02*
X91800900Y-71630500D01*
X121500000Y-81500000D02*
X121600000Y-81400000D01*
%TO.N,Net-(D1-DIN)*%
X67600000Y-99900000D02*
X68651700Y-99900000D01*
X68672000Y-99879700D02*
X68857600Y-99879700D01*
X68651700Y-99900000D02*
X68672000Y-99879700D01*
%TO.N,Net-(J1-D--PadA7)*%
X112800000Y-138930000D02*
X112800000Y-162125000D01*
X106950000Y-133080000D02*
X112800000Y-138930000D01*
X112800000Y-162625000D02*
X112800000Y-162125000D01*
X112050000Y-163375000D02*
X112800000Y-162625000D01*
%TO.N,Net-(U1-GPIO13)*%
X50500000Y-55340000D02*
X50500000Y-56491700D01*
X48292600Y-147412600D02*
X49500000Y-148620000D01*
X48292600Y-58411200D02*
X48292600Y-147412600D01*
X50212100Y-56491700D02*
X48292600Y-58411200D01*
X50500000Y-56491700D02*
X50212100Y-56491700D01*
%TO.N,Net-(U7-RFI1)*%
X106870500Y-84250000D02*
X106450000Y-84250000D01*
X107177900Y-84557400D02*
X106870500Y-84250000D01*
X107177900Y-85504300D02*
X107177900Y-84557400D01*
X107600500Y-85926900D02*
X107177900Y-85504300D01*
%TO.N,Net-(U7-VSP_A)*%
X101101900Y-86250000D02*
X101550000Y-86250000D01*
X100548100Y-85696200D02*
X101101900Y-86250000D01*
X100130000Y-85696200D02*
X100548100Y-85696200D01*
X99309900Y-84876100D02*
X100130000Y-85696200D01*
X99309900Y-84684300D02*
X99309900Y-84876100D01*
%TO.N,Net-(U7-VSP_D)*%
X100111900Y-83320100D02*
X99822000Y-83320100D01*
X101041800Y-84250000D02*
X100111900Y-83320100D01*
X101550000Y-84250000D02*
X101041800Y-84250000D01*
%TO.N,Net-(U7-AGD)*%
X95331400Y-40331400D02*
X95331400Y-87540700D01*
X93000000Y-38000000D02*
X95331400Y-40331400D01*
X107325600Y-83250000D02*
X107445700Y-83370100D01*
X106450000Y-83250000D02*
X107325600Y-83250000D01*
%TO.N,Net-(U7-XTO)*%
X127600000Y-85552800D02*
X127600000Y-87150000D01*
X101492700Y-84692700D02*
X100622400Y-84692700D01*
X101550000Y-84750000D02*
X101492700Y-84692700D01*
%TO.N,Net-(U7-XTI)*%
X98578100Y-83101600D02*
X98578100Y-82335800D01*
X99911600Y-84435100D02*
X98578100Y-83101600D01*
X99911600Y-84838500D02*
X99911600Y-84435100D01*
X100367600Y-85294500D02*
X99911600Y-84838500D01*
X101505500Y-85294500D02*
X100367600Y-85294500D01*
X101550000Y-85250000D02*
X101505500Y-85294500D01*
X125400000Y-88850000D02*
X121486800Y-84936800D01*
%TO.N,Net-(LED12-K)*%
X52729000Y-38309000D02*
X53400000Y-38980000D01*
X50951000Y-38309000D02*
X52729000Y-38309000D01*
X50280000Y-38980000D02*
X50951000Y-38309000D01*
X58974200Y-38314200D02*
X59640000Y-38980000D01*
X57185800Y-38314200D02*
X58974200Y-38314200D01*
X56520000Y-38980000D02*
X57185800Y-38314200D01*
X65880000Y-38980000D02*
X65880000Y-38122300D01*
X70583900Y-38980000D02*
X72120000Y-38980000D01*
X59640000Y-38980000D02*
X59640000Y-39805800D01*
X63403300Y-38336700D02*
X62760000Y-38980000D01*
X64355000Y-38336700D02*
X63403300Y-38336700D01*
X64569400Y-38122300D02*
X64355000Y-38336700D01*
X65880000Y-38122300D02*
X64569400Y-38122300D01*
X64355000Y-38336700D02*
X64355000Y-39621900D01*
X70583900Y-37899300D02*
X70496500Y-37811900D01*
X70583900Y-38980000D02*
X70583900Y-37899300D01*
X54040200Y-39620200D02*
X53400000Y-38980000D01*
X55879800Y-39620200D02*
X54040200Y-39620200D01*
X56520000Y-38980000D02*
X55879800Y-39620200D01*
X69647700Y-39627700D02*
X69000000Y-38980000D01*
X70341100Y-39627700D02*
X69647700Y-39627700D01*
X70583900Y-39384900D02*
X70341100Y-39627700D01*
X70583900Y-38980000D02*
X70583900Y-39384900D01*
%TO.N,Net-(LED11-K)*%
X62137700Y-37082300D02*
X62760000Y-36460000D01*
X60262300Y-37082300D02*
X62137700Y-37082300D01*
X59640000Y-36460000D02*
X60262300Y-37082300D01*
X118269600Y-40723900D02*
X118269600Y-39972800D01*
X119585700Y-42040000D02*
X118269600Y-40723900D01*
X120000000Y-42040000D02*
X119585700Y-42040000D01*
X52763800Y-35823800D02*
X53400000Y-36460000D01*
X50916200Y-35823800D02*
X52763800Y-35823800D01*
X50280000Y-36460000D02*
X50916200Y-35823800D01*
X58999400Y-37100600D02*
X59640000Y-36460000D01*
X57160600Y-37100600D02*
X58999400Y-37100600D01*
X56520000Y-36460000D02*
X57160600Y-37100600D01*
X69000000Y-36843300D02*
X68412300Y-37431000D01*
X69000000Y-36460000D02*
X69000000Y-36843300D01*
X55876500Y-35816500D02*
X56520000Y-36460000D01*
X54043500Y-35816500D02*
X55876500Y-35816500D01*
X53400000Y-36460000D02*
X54043500Y-35816500D01*
X65250600Y-35830600D02*
X65880000Y-36460000D01*
X63389400Y-35830600D02*
X65250600Y-35830600D01*
X62760000Y-36460000D02*
X63389400Y-35830600D01*
X72120000Y-36460000D02*
X72120000Y-37425600D01*
X65880000Y-36460000D02*
X65880000Y-37294900D01*
%TO.N,Net-(LED17-A)*%
X57839600Y-41849600D02*
X57490000Y-41500000D01*
X58313500Y-41849600D02*
X57839600Y-41849600D01*
X57490000Y-33940000D02*
X57490000Y-36460000D01*
X57490000Y-49060000D02*
X57490000Y-47172100D01*
X57490000Y-47172100D02*
X57490000Y-46540000D01*
X57490100Y-36460100D02*
X57490000Y-36460000D01*
X58320900Y-36460100D02*
X57490100Y-36460100D01*
X57490000Y-33940000D02*
X57490000Y-31420000D01*
X56170700Y-47172100D02*
X57490000Y-47172100D01*
X55917100Y-46918500D02*
X56170700Y-47172100D01*
X55917100Y-43601900D02*
X55917100Y-46918500D01*
X56124500Y-43394500D02*
X55917100Y-43601900D01*
X57490000Y-43394500D02*
X56124500Y-43394500D01*
X57490000Y-44020000D02*
X57490000Y-43394500D01*
X57490000Y-43394500D02*
X57490000Y-41500000D01*
X57588400Y-39078400D02*
X57490000Y-38980000D01*
X58311000Y-39078400D02*
X57588400Y-39078400D01*
X128483800Y-40770000D02*
X127895300Y-41358500D01*
X129300000Y-40770000D02*
X128483800Y-40770000D01*
%TO.N,Net-(LED49-A)*%
X69970000Y-44735000D02*
X69853700Y-44851300D01*
X69970000Y-44020000D02*
X69970000Y-44735000D01*
X69970000Y-49060000D02*
X69970000Y-47423200D01*
X69970000Y-47423200D02*
X69970000Y-46540000D01*
X69970000Y-33940000D02*
X69970000Y-33265600D01*
X69970000Y-33265600D02*
X69970000Y-31420000D01*
X69970000Y-44020000D02*
X69970000Y-42129000D01*
X69970000Y-42129000D02*
X69970000Y-41500000D01*
X68356800Y-34846800D02*
X69970000Y-36460000D01*
X68356800Y-33617000D02*
X68356800Y-34846800D01*
X68708200Y-33265600D02*
X68356800Y-33617000D01*
X69970000Y-33265600D02*
X68708200Y-33265600D01*
X68625900Y-38345400D02*
X69826900Y-38345400D01*
X68348800Y-38622500D02*
X68625900Y-38345400D01*
X68348800Y-41878200D02*
X68348800Y-38622500D01*
X68599600Y-42129000D02*
X68348800Y-41878200D01*
X69970000Y-42129000D02*
X68599600Y-42129000D01*
X69826900Y-36603100D02*
X69826900Y-38345400D01*
X69970000Y-36460000D02*
X69826900Y-36603100D01*
X69826900Y-38836900D02*
X69970000Y-38980000D01*
X69826900Y-38345400D02*
X69826900Y-38836900D01*
X130824800Y-44580000D02*
X130828300Y-44576500D01*
X129300000Y-44580000D02*
X130824800Y-44580000D01*
%TO.N,Net-(LED25-A)*%
X60610000Y-46540000D02*
X60610000Y-49060000D01*
X60610000Y-41500000D02*
X60610000Y-44020000D01*
X60610000Y-46540000D02*
X60610000Y-44020000D01*
X60610100Y-36460100D02*
X60610000Y-36460000D01*
X61408100Y-36460100D02*
X60610100Y-36460100D01*
X60610000Y-36460000D02*
X60610000Y-33940000D01*
X60610000Y-38980000D02*
X60610000Y-41500000D01*
X60610000Y-33940000D02*
X60610000Y-31420000D01*
X116024900Y-38832300D02*
X116008500Y-38815900D01*
X121062400Y-38832300D02*
X116024900Y-38832300D01*
X122934700Y-36960000D02*
X121062400Y-38832300D01*
X129300000Y-36960000D02*
X122934700Y-36960000D01*
X61409000Y-38181000D02*
X61409000Y-37953400D01*
X60610000Y-38980000D02*
X61409000Y-38181000D01*
%TO.N,Net-(J4-PadL3)*%
X92153300Y-152855300D02*
X92153300Y-150642000D01*
X90883300Y-154125300D02*
X92153300Y-152855300D01*
X90883300Y-161211700D02*
X90883300Y-154125300D01*
X87715000Y-164380000D02*
X90883300Y-161211700D01*
%TO.N,Net-(J4-PadL2)*%
X120239100Y-124059100D02*
X120239100Y-161441500D01*
X119100000Y-122920000D02*
X120239100Y-124059100D01*
%TO.N,Net-(LED10-A)*%
X54370000Y-49060000D02*
X54370000Y-46540000D01*
X54370000Y-31420000D02*
X54370000Y-33940000D01*
X54370000Y-41500000D02*
X54370000Y-44020000D01*
X54958100Y-33940000D02*
X55195200Y-34177100D01*
X54370000Y-33940000D02*
X54958100Y-33940000D01*
X54690000Y-46218400D02*
X55167700Y-46218400D01*
X54690000Y-46220000D02*
X54690000Y-46218400D01*
X54370000Y-46540000D02*
X54690000Y-46220000D01*
X54690000Y-44340000D02*
X54370000Y-44020000D01*
X54690000Y-46218400D02*
X54690000Y-44340000D01*
X54370000Y-38980000D02*
X54370000Y-37720000D01*
X54370000Y-37720000D02*
X54370000Y-36460000D01*
X130464200Y-45850000D02*
X129300000Y-45850000D01*
X131435300Y-44878900D02*
X130464200Y-45850000D01*
X131435300Y-43562400D02*
X131435300Y-44878900D01*
%TO.N,Net-(LED13-K)*%
X72580700Y-41039300D02*
X72580700Y-39994400D01*
X72120000Y-41500000D02*
X72580700Y-41039300D01*
X52770000Y-42130000D02*
X53400000Y-41500000D01*
X50910000Y-42130000D02*
X52770000Y-42130000D01*
X50280000Y-41500000D02*
X50910000Y-42130000D01*
X69000000Y-40256400D02*
X69000000Y-41500000D01*
X63382300Y-40877700D02*
X62760000Y-41500000D01*
X65257700Y-40877700D02*
X63382300Y-40877700D01*
X65880000Y-41500000D02*
X65257700Y-40877700D01*
X59001500Y-40861500D02*
X59640000Y-41500000D01*
X57158500Y-40861500D02*
X59001500Y-40861500D01*
X56520000Y-41500000D02*
X57158500Y-40861500D01*
X65880000Y-40593600D02*
X65880000Y-41500000D01*
X55897700Y-40877700D02*
X56520000Y-41500000D01*
X54022300Y-40877700D02*
X55897700Y-40877700D01*
X53400000Y-41500000D02*
X54022300Y-40877700D01*
X59801800Y-41338200D02*
X59640000Y-41500000D01*
X59801800Y-40650100D02*
X59801800Y-41338200D01*
X119803800Y-38033800D02*
X120000000Y-38230000D01*
X119803800Y-38033700D02*
X119803800Y-38033800D01*
X115567200Y-38033700D02*
X119803800Y-38033700D01*
X114605700Y-37072200D02*
X115567200Y-38033700D01*
X111942000Y-37072200D02*
X114605700Y-37072200D01*
X110253100Y-38761100D02*
X111942000Y-37072200D01*
X110253100Y-41670600D02*
X110253100Y-38761100D01*
%TO.N,Net-(J1-D+-PadA6)*%
X111076200Y-139883200D02*
X111076200Y-161429500D01*
X110352400Y-139159400D02*
X111076200Y-139883200D01*
X112039200Y-161429500D02*
X111076200Y-161429500D01*
X112300000Y-161690300D02*
X112039200Y-161429500D01*
X112300000Y-162125000D02*
X112300000Y-161690300D01*
X112356300Y-164068700D02*
X113050000Y-163375000D01*
X110833700Y-164068700D02*
X112356300Y-164068700D01*
X110594100Y-163829100D02*
X110833700Y-164068700D01*
X110594100Y-161911600D02*
X110594100Y-163829100D01*
X111076200Y-161429500D02*
X110594100Y-161911600D01*
%TO.N,Net-(LED16-K)*%
X50976800Y-49756800D02*
X50280000Y-49060000D01*
X52703200Y-49756800D02*
X50976800Y-49756800D01*
X53400000Y-49060000D02*
X52703200Y-49756800D01*
X55894100Y-49685900D02*
X56520000Y-49060000D01*
X54025900Y-49685900D02*
X55894100Y-49685900D01*
X53400000Y-49060000D02*
X54025900Y-49685900D01*
X59017700Y-49682300D02*
X59640000Y-49060000D01*
X57142300Y-49682300D02*
X59017700Y-49682300D01*
X56520000Y-49060000D02*
X57142300Y-49682300D01*
X65213700Y-49726300D02*
X65880000Y-49060000D01*
X63426300Y-49726300D02*
X65213700Y-49726300D01*
X62760000Y-49060000D02*
X63426300Y-49726300D01*
X68377700Y-49682300D02*
X69000000Y-49060000D01*
X66502300Y-49682300D02*
X68377700Y-49682300D01*
X65880000Y-49060000D02*
X66502300Y-49682300D01*
X62137200Y-49682800D02*
X62760000Y-49060000D01*
X60262800Y-49682800D02*
X62137200Y-49682800D01*
X59640000Y-49060000D02*
X60262800Y-49682800D01*
X71497700Y-49682300D02*
X72120000Y-49060000D01*
X69622300Y-49682300D02*
X71497700Y-49682300D01*
X69000000Y-49060000D02*
X69622300Y-49682300D01*
%TO.N,Net-(U8-~{RST})*%
X116126500Y-121843500D02*
X115050000Y-122920000D01*
X116126500Y-71092900D02*
X116126500Y-121843500D01*
X114222300Y-69188700D02*
X116126500Y-71092900D01*
X106513700Y-69188700D02*
X114222300Y-69188700D01*
X106500000Y-69175000D02*
X106513700Y-69188700D01*
%TO.N,Net-(U8-XO)*%
X113971500Y-72221500D02*
X115100000Y-73350000D01*
X113971500Y-71119000D02*
X113971500Y-72221500D01*
X113580500Y-70728000D02*
X113971500Y-71119000D01*
X111398800Y-70728000D02*
X113580500Y-70728000D01*
X109039300Y-73087500D02*
X111398800Y-70728000D01*
X107912500Y-73087500D02*
X109039300Y-73087500D01*
%TO.N,Net-(U8-XI{slash}CLKIN)*%
X112662500Y-73587500D02*
X107912500Y-73587500D01*
X112900000Y-73350000D02*
X112662500Y-73587500D01*
%TO.N,Net-(U8-ACTLED)*%
X88270100Y-165900000D02*
X85175000Y-165900000D01*
X89526100Y-164644000D02*
X88270100Y-165900000D01*
X96246200Y-164644000D02*
X89526100Y-164644000D01*
X97263000Y-165660800D02*
X96246200Y-164644000D01*
X98357200Y-165660800D02*
X97263000Y-165660800D01*
X105526300Y-158491700D02*
X98357200Y-165660800D01*
X105526300Y-101852300D02*
X105526300Y-158491700D01*
X114576600Y-92802000D02*
X105526300Y-101852300D01*
X114576600Y-80951800D02*
X114576600Y-92802000D01*
X108712300Y-75087500D02*
X114576600Y-80951800D01*
X107912500Y-75087500D02*
X108712300Y-75087500D01*
%TO.N,Net-(U8-LINKLED)*%
X114137500Y-82312500D02*
X107912500Y-76087500D01*
X114137500Y-91935100D02*
X114137500Y-82312500D01*
X104725300Y-101347300D02*
X114137500Y-91935100D01*
X104725300Y-157479700D02*
X104725300Y-101347300D01*
X97825000Y-164380000D02*
X104725300Y-157479700D01*
%TO.N,Net-(U8-1V2O)*%
X92402900Y-43117400D02*
X92402900Y-68861300D01*
X86363900Y-37078400D02*
X92402900Y-43117400D01*
X85421600Y-37078400D02*
X86363900Y-37078400D01*
X84500000Y-38000000D02*
X85421600Y-37078400D01*
X107169600Y-78105100D02*
X107169600Y-76766000D01*
X106705000Y-78569700D02*
X107169600Y-78105100D01*
X105781400Y-78569700D02*
X106705000Y-78569700D01*
X105500000Y-78288300D02*
X105781400Y-78569700D01*
X105500000Y-77500000D02*
X105500000Y-78288300D01*
%TO.N,Net-(U8-TOCAP)*%
X83000000Y-56000000D02*
X83000000Y-57101700D01*
X88886700Y-69959700D02*
X89957500Y-71030500D01*
X88886700Y-62988400D02*
X88886700Y-69959700D01*
X83000000Y-57101700D02*
X88886700Y-62988400D01*
X104500000Y-77500000D02*
X104500000Y-78745300D01*
%TO.N,Net-(J4-TD3+)*%
X92641600Y-154650000D02*
X92135000Y-154650000D01*
X94656700Y-152634900D02*
X92641600Y-154650000D01*
X94656700Y-147755100D02*
X94656700Y-152634900D01*
X97351400Y-145060400D02*
X94656700Y-147755100D01*
X97351400Y-85807000D02*
X97351400Y-145060400D01*
X97150600Y-85606200D02*
X97351400Y-85807000D01*
X97150600Y-79397200D02*
X97150600Y-85606200D01*
X96984400Y-79231000D02*
X97150600Y-79397200D01*
X96984400Y-74865200D02*
X96984400Y-79231000D01*
X98762100Y-73087500D02*
X96984400Y-74865200D01*
X99587500Y-73087500D02*
X98762100Y-73087500D01*
%TO.N,Net-(J4-TD1-)*%
X96748900Y-79563500D02*
X96748900Y-143686100D01*
X96582700Y-79397300D02*
X96748900Y-79563500D01*
X96582700Y-74680700D02*
X96582700Y-79397300D01*
X98675900Y-72587500D02*
X96582700Y-74680700D01*
X99587500Y-72587500D02*
X98675900Y-72587500D01*
%TO.N,Net-(J4-CT)*%
X85785000Y-155157400D02*
X85785000Y-152110000D01*
X86598800Y-155971200D02*
X85785000Y-155157400D01*
X87580800Y-155971200D02*
X86598800Y-155971200D01*
X88343300Y-155208700D02*
X87580800Y-155971200D01*
X88343300Y-154125300D02*
X88343300Y-155208700D01*
X89595000Y-152873600D02*
X88343300Y-154125300D01*
X89595000Y-128107900D02*
X89595000Y-152873600D01*
X96347200Y-121355700D02*
X89595000Y-128107900D01*
X96347200Y-79729800D02*
X96347200Y-121355700D01*
X96181000Y-79563600D02*
X96347200Y-79729800D01*
X96181000Y-73715300D02*
X96181000Y-79563600D01*
X98808800Y-71087500D02*
X96181000Y-73715300D01*
X99587500Y-71087500D02*
X98808800Y-71087500D01*
%TO.N,Net-(J4-TD1+)*%
X87055000Y-128023500D02*
X87055000Y-154650000D01*
X95945500Y-119133000D02*
X87055000Y-128023500D01*
X95945500Y-79896100D02*
X95945500Y-119133000D01*
X95779300Y-79729900D02*
X95945500Y-79896100D01*
X95779300Y-73523700D02*
X95779300Y-79729900D01*
X98715500Y-70587500D02*
X95779300Y-73523700D01*
X99587500Y-70587500D02*
X98715500Y-70587500D01*
%TO.N,Net-(U7-VSP_RF)*%
X110887600Y-39612400D02*
X110887600Y-68587000D01*
X112500000Y-38000000D02*
X110887600Y-39612400D01*
X97386100Y-76281300D02*
X97701200Y-75966200D01*
X97386100Y-79064700D02*
X97386100Y-76281300D01*
X97552300Y-79230900D02*
X97386100Y-79064700D01*
X97552300Y-84437100D02*
X97552300Y-79230900D01*
X100565200Y-87450000D02*
X97552300Y-84437100D01*
X102250000Y-87450000D02*
X100565200Y-87450000D01*
%TO.N,Net-(LED1-A)*%
X51250000Y-31420000D02*
X51250000Y-33294000D01*
X51250000Y-33294000D02*
X51250000Y-33940000D01*
X50578500Y-44691500D02*
X49673800Y-44691500D01*
X51250000Y-44020000D02*
X50578500Y-44691500D01*
X50590000Y-47200000D02*
X51250000Y-46540000D01*
X49937900Y-47200000D02*
X50590000Y-47200000D01*
X49673800Y-46935900D02*
X49937900Y-47200000D01*
X49673800Y-44691500D02*
X49673800Y-46935900D01*
X49673800Y-40240000D02*
X49673800Y-44691500D01*
X49673800Y-40240000D02*
X51250000Y-40240000D01*
X51250000Y-41500000D02*
X51250000Y-40240000D01*
X51250000Y-40240000D02*
X51250000Y-38980000D01*
X50620800Y-37089200D02*
X51250000Y-36460000D01*
X49673800Y-37089200D02*
X50620800Y-37089200D01*
X49673800Y-33573100D02*
X49673800Y-37089200D01*
X49952900Y-33294000D02*
X49673800Y-33573100D01*
X51250000Y-33294000D02*
X49952900Y-33294000D01*
X49673800Y-37089200D02*
X49673800Y-40240000D01*
X129300000Y-48390000D02*
X127771500Y-48390000D01*
X51250000Y-49060000D02*
X51250000Y-47718100D01*
X51250000Y-47718100D02*
X51250000Y-46540000D01*
X51250000Y-47718100D02*
X51228600Y-47718100D01*
%TO.N,Net-(LED1-K)*%
X72120000Y-31420000D02*
X72120000Y-32350900D01*
X50974500Y-30725500D02*
X50280000Y-31420000D01*
X52705500Y-30725500D02*
X50974500Y-30725500D01*
X53400000Y-31420000D02*
X52705500Y-30725500D01*
X54032500Y-30787500D02*
X53400000Y-31420000D01*
X55887500Y-30787500D02*
X54032500Y-30787500D01*
X56520000Y-31420000D02*
X55887500Y-30787500D01*
X66551100Y-30748900D02*
X65880000Y-31420000D01*
X68328900Y-30748900D02*
X66551100Y-30748900D01*
X69000000Y-31420000D02*
X68328900Y-30748900D01*
X63382300Y-30797700D02*
X62760000Y-31420000D01*
X65257700Y-30797700D02*
X63382300Y-30797700D01*
X65880000Y-31420000D02*
X65257700Y-30797700D01*
X71436300Y-30736300D02*
X72120000Y-31420000D01*
X69683700Y-30736300D02*
X71436300Y-30736300D01*
X69000000Y-31420000D02*
X69683700Y-30736300D01*
X118961500Y-36960000D02*
X118506900Y-37414600D01*
X120000000Y-36960000D02*
X118961500Y-36960000D01*
X62137700Y-30797700D02*
X62760000Y-31420000D01*
X60262300Y-30797700D02*
X62137700Y-30797700D01*
X59640000Y-31420000D02*
X60262300Y-30797700D01*
X57210700Y-30729300D02*
X56520000Y-31420000D01*
X58949300Y-30729300D02*
X57210700Y-30729300D01*
X59640000Y-31420000D02*
X58949300Y-30729300D01*
%TO.N,Net-(LED33-A)*%
X63730000Y-49060000D02*
X63730000Y-47170900D01*
X63730000Y-47170900D02*
X63730000Y-46540000D01*
X62351100Y-47170900D02*
X63730000Y-47170900D01*
X62160000Y-46979800D02*
X62351100Y-47170900D01*
X62160000Y-44655500D02*
X62160000Y-46979800D01*
X63094500Y-44655500D02*
X62160000Y-44655500D01*
X63730000Y-44020000D02*
X63094500Y-44655500D01*
X62160000Y-43070000D02*
X62734300Y-42495700D01*
X62160000Y-44655500D02*
X62160000Y-43070000D01*
X62734300Y-42495700D02*
X63730000Y-41500000D01*
X63730000Y-31420000D02*
X63730000Y-32680000D01*
X63730000Y-32680000D02*
X63730000Y-33940000D01*
X127313600Y-39500000D02*
X126837100Y-39023500D01*
X129300000Y-39500000D02*
X127313600Y-39500000D01*
X63730000Y-37338500D02*
X63730000Y-36460000D01*
X62155000Y-40555000D02*
X62760000Y-39950000D01*
X62155000Y-41916500D02*
X62155000Y-40555000D01*
X62734300Y-42495700D02*
X62155000Y-41916500D01*
X62760000Y-39950000D02*
X63730000Y-38980000D01*
X63393500Y-37338500D02*
X63730000Y-37338500D01*
X62086200Y-38645800D02*
X63393500Y-37338500D01*
X62086200Y-39276200D02*
X62086200Y-38645800D01*
X62760000Y-39950000D02*
X62086200Y-39276200D01*
%TO.N,Net-(LED15-K)*%
X50920200Y-45899800D02*
X50280000Y-46540000D01*
X52759800Y-45899800D02*
X50920200Y-45899800D01*
X53400000Y-46540000D02*
X52759800Y-45899800D01*
X59010000Y-45910000D02*
X59640000Y-46540000D01*
X57150000Y-45910000D02*
X59010000Y-45910000D01*
X56520000Y-46540000D02*
X57150000Y-45910000D01*
X63400300Y-45899700D02*
X62760000Y-46540000D01*
X65239700Y-45899700D02*
X63400300Y-45899700D01*
X65880000Y-46540000D02*
X65239700Y-45899700D01*
X71369500Y-46540000D02*
X72120000Y-46540000D01*
X71209900Y-46699600D02*
X71369500Y-46540000D01*
X69671100Y-45868900D02*
X69000000Y-46540000D01*
X70379200Y-45868900D02*
X69671100Y-45868900D01*
X71209900Y-46699600D02*
X70379200Y-45868900D01*
X59640000Y-47582500D02*
X59640000Y-46540000D01*
X53758400Y-46898400D02*
X53758400Y-47744300D01*
X53400000Y-46540000D02*
X53758400Y-46898400D01*
X65880000Y-47458500D02*
X65880000Y-46540000D01*
X118707600Y-49025000D02*
X117541100Y-47858500D01*
X121090900Y-49025000D02*
X118707600Y-49025000D01*
X121333500Y-48782400D02*
X121090900Y-49025000D01*
X121333500Y-41689200D02*
X121333500Y-48782400D01*
X120414300Y-40770000D02*
X121333500Y-41689200D01*
X120000000Y-40770000D02*
X120414300Y-40770000D01*
%TO.N,Net-(LED57-A)*%
X73090000Y-41500000D02*
X73090000Y-44020000D01*
X73090000Y-33940000D02*
X73090000Y-36460000D01*
X73090000Y-46540000D02*
X73090000Y-49060000D01*
X73090000Y-31420000D02*
X73090000Y-33940000D01*
X73090000Y-38980000D02*
X73090000Y-36460000D01*
X73090000Y-46540000D02*
X73090000Y-44020000D01*
X73244300Y-40603300D02*
X73320300Y-40603300D01*
X73244300Y-39134300D02*
X73244300Y-40603300D01*
X73090000Y-38980000D02*
X73244300Y-39134300D01*
X73244300Y-41345700D02*
X73090000Y-41500000D01*
X73244300Y-40603300D02*
X73244300Y-41345700D01*
X128728900Y-38801100D02*
X127920900Y-38801100D01*
X129300000Y-38230000D02*
X128728900Y-38801100D01*
%TO.N,Net-(LED14-K)*%
X63400200Y-43379800D02*
X62760000Y-44020000D01*
X65239800Y-43379800D02*
X63400200Y-43379800D01*
X65880000Y-44020000D02*
X65239800Y-43379800D01*
X52763800Y-43383800D02*
X53400000Y-44020000D01*
X50916200Y-43383800D02*
X52763800Y-43383800D01*
X50280000Y-44020000D02*
X50916200Y-43383800D01*
X72120000Y-44020000D02*
X72120000Y-45173100D01*
X118904600Y-47120000D02*
X118475600Y-46691000D01*
X120000000Y-47120000D02*
X118904600Y-47120000D01*
X57166500Y-44666500D02*
X56520000Y-44020000D01*
X58993500Y-44666500D02*
X57166500Y-44666500D01*
X59640000Y-44020000D02*
X58993500Y-44666500D01*
X53400000Y-44020000D02*
X53400000Y-45328700D01*
X56520000Y-44809500D02*
X56978700Y-45268200D01*
X56520000Y-44020000D02*
X56520000Y-44809500D01*
X68390300Y-44020000D02*
X68197500Y-44212800D01*
X69000000Y-44020000D02*
X68390300Y-44020000D01*
X65880000Y-44870800D02*
X65880000Y-44020000D01*
X72120000Y-45173100D02*
X72120800Y-45173900D01*
X71833000Y-45460100D02*
X72120000Y-45173100D01*
X69603800Y-45460100D02*
X71833000Y-45460100D01*
X69000000Y-44856300D02*
X69603800Y-45460100D01*
X69000000Y-44020000D02*
X69000000Y-44856300D01*
%TO.N,Net-(J2-Pin_2)*%
X102500000Y-66407800D02*
X102500000Y-69175000D01*
X98592200Y-62500000D02*
X102500000Y-66407800D01*
X98500000Y-62500000D02*
X98592200Y-62500000D01*
X50000000Y-125420000D02*
X50000000Y-122880000D01*
X50000000Y-122880000D02*
X50000000Y-120340000D01*
X63500000Y-61000000D02*
X63500000Y-61690000D01*
X57500000Y-55000000D02*
X63500000Y-61000000D01*
X102500000Y-69175000D02*
X103000000Y-69175000D01*
X103000000Y-69175000D02*
X103500000Y-69175000D01*
X103000000Y-76636200D02*
X103000000Y-77500000D01*
X103208800Y-76427400D02*
X103000000Y-76636200D01*
X103000000Y-69175000D02*
X103000000Y-76218600D01*
X103000000Y-76218600D02*
X103208800Y-76427400D01*
X102499900Y-76218600D02*
X103000000Y-76218600D01*
X102000000Y-76718500D02*
X102499900Y-76218600D01*
X102000000Y-77500000D02*
X102000000Y-76718500D01*
X105000000Y-77500000D02*
X105000000Y-76695500D01*
X104731900Y-76427400D02*
X103208800Y-76427400D01*
X105000000Y-76695500D02*
X104731900Y-76427400D01*
X107108000Y-74587500D02*
X105000000Y-76695500D01*
X107912500Y-74587500D02*
X107108000Y-74587500D01*
X100627000Y-75587500D02*
X99587500Y-75587500D01*
X100768000Y-78570200D02*
X101550000Y-78570200D01*
X100505200Y-78307400D02*
X100768000Y-78570200D01*
X100505200Y-76724200D02*
X100505200Y-78307400D01*
X100627000Y-76602400D02*
X100505200Y-76724200D01*
X100627000Y-75587500D02*
X100627000Y-76602400D01*
X102000000Y-78345300D02*
X102000000Y-77500000D01*
X101775100Y-78570200D02*
X102000000Y-78345300D01*
X101550000Y-78570200D02*
X101775100Y-78570200D01*
X100627000Y-74087500D02*
X99587500Y-74087500D01*
X100627000Y-75587500D02*
X100627000Y-74087500D01*
X100384400Y-72087500D02*
X99587500Y-72087500D01*
X100627000Y-72330100D02*
X100384400Y-72087500D01*
X100627000Y-74087500D02*
X100627000Y-72330100D01*
X101550000Y-83250000D02*
X101550000Y-78570200D01*
X119100000Y-133080000D02*
X115050000Y-133080000D01*
X86792400Y-74000000D02*
X86500000Y-74000000D01*
X87245200Y-73547200D02*
X86792400Y-74000000D01*
X87245200Y-67590200D02*
X87245200Y-73547200D01*
X81250000Y-61595000D02*
X87245200Y-67590200D01*
X97975200Y-76808600D02*
X98011100Y-76772700D01*
X97975200Y-84200400D02*
X97975200Y-76808600D01*
X98721000Y-84946200D02*
X97975200Y-84200400D01*
X98721000Y-85037800D02*
X98721000Y-84946200D01*
X99820500Y-86137300D02*
X98721000Y-85037800D01*
X100386300Y-86137300D02*
X99820500Y-86137300D01*
X100999000Y-86750000D02*
X100386300Y-86137300D01*
X101550000Y-86750000D02*
X100999000Y-86750000D01*
%TO.N,Net-(U2-VOUT)*%
X84400000Y-129100000D02*
X75000000Y-129100000D01*
X91000000Y-122500000D02*
X84400000Y-129100000D01*
%TO.N,Net-(D1-VSS)*%
X73551700Y-87273300D02*
X75275000Y-85550000D01*
X73551700Y-98300000D02*
X73551700Y-87273300D01*
X72500000Y-98300000D02*
X73551700Y-98300000D01*
X117000000Y-165500000D02*
X117000000Y-162300000D01*
X116100100Y-162125000D02*
X116100000Y-162125000D01*
X116100100Y-161601400D02*
X116100100Y-162125000D01*
X116678200Y-161023300D02*
X116100100Y-161601400D01*
X117000000Y-161023300D02*
X116678200Y-161023300D01*
X117000000Y-162300000D02*
X117000000Y-161023300D01*
X108100000Y-165500000D02*
X108100000Y-162300000D01*
X108999900Y-162125000D02*
X109000000Y-162125000D01*
X108999900Y-161601400D02*
X108999900Y-162125000D01*
X108421800Y-161023300D02*
X108999900Y-161601400D01*
X108100000Y-161023300D02*
X108421800Y-161023300D01*
X108100000Y-162300000D02*
X108100000Y-161023300D01*
X109500000Y-163325000D02*
X109500000Y-162125000D01*
X109550000Y-163375000D02*
X109500000Y-163325000D01*
X115600000Y-163325000D02*
X115600000Y-162125000D01*
X115550000Y-163375000D02*
X115600000Y-163325000D01*
X115600000Y-162125000D02*
X116100000Y-162125000D01*
X109500000Y-162125000D02*
X109000000Y-162125000D01*
X120000000Y-45850000D02*
X120000000Y-44580000D01*
X105000000Y-86000000D02*
X105000000Y-85000000D01*
X105000000Y-85000000D02*
X105000000Y-84000000D01*
X103000000Y-85000000D02*
X103000000Y-84000000D01*
X103750000Y-86250000D02*
X103750000Y-87450000D01*
X104000000Y-86000000D02*
X103750000Y-86250000D01*
X105250000Y-83750000D02*
X105000000Y-84000000D01*
X105250000Y-82550000D02*
X105250000Y-83750000D01*
X105749600Y-82550400D02*
X105750000Y-82550000D01*
X105749600Y-83034900D02*
X105749600Y-82550400D01*
X105748100Y-83036400D02*
X105749600Y-83034900D01*
X105748100Y-83463600D02*
X105748100Y-83036400D01*
X105749600Y-83465100D02*
X105748100Y-83463600D01*
X105749600Y-83534900D02*
X105749600Y-83465100D01*
X105748100Y-83536400D02*
X105749600Y-83534900D01*
X105748100Y-83963600D02*
X105748100Y-83536400D01*
X105749600Y-83965100D02*
X105748100Y-83963600D01*
X105749600Y-84034900D02*
X105749600Y-83965100D01*
X105748100Y-84036400D02*
X105749600Y-84034900D01*
X105748100Y-84463600D02*
X105748100Y-84036400D01*
X105749600Y-84465100D02*
X105748100Y-84463600D01*
X105749600Y-84691600D02*
X105749600Y-84465100D01*
X105808000Y-84750000D02*
X105749600Y-84691600D01*
X106450000Y-84750000D02*
X105808000Y-84750000D01*
X103000000Y-85750000D02*
X101550000Y-85750000D01*
X103000000Y-86000000D02*
X103000000Y-85750000D01*
X103000000Y-85750000D02*
X103000000Y-85000000D01*
X102750000Y-83750000D02*
X101550000Y-83750000D01*
X103000000Y-84000000D02*
X102750000Y-83750000D01*
X105250000Y-82550000D02*
X105750000Y-82550000D01*
X83800000Y-46300000D02*
X86000000Y-46300000D01*
X86000000Y-46300000D02*
X86000000Y-48000000D01*
X86000000Y-46300000D02*
X86000000Y-38000000D01*
X103400000Y-47150000D02*
X103900000Y-47150000D01*
X103900000Y-47150000D02*
X105600000Y-48850000D01*
X127100000Y-88850000D02*
X127600000Y-88850000D01*
X125400000Y-87150000D02*
X127100000Y-88850000D01*
X86000000Y-56000000D02*
X86000000Y-48000000D01*
X75275000Y-85550000D02*
X75275000Y-81000000D01*
X75275000Y-76450000D02*
X75275000Y-81000000D01*
X50000000Y-117800000D02*
X50000000Y-115260000D01*
X50000000Y-115260000D02*
X50000000Y-112720000D01*
X70000000Y-65405000D02*
X73750000Y-65405000D01*
X70000000Y-55000000D02*
X70000000Y-65405000D01*
X75275000Y-76450000D02*
X75275000Y-66930000D01*
X75275000Y-66930000D02*
X73750000Y-65405000D01*
X57748300Y-63751700D02*
X56000000Y-65500000D01*
X57748300Y-63595000D02*
X57748300Y-63751700D01*
X59750000Y-63595000D02*
X57748300Y-63595000D01*
X61751700Y-67751700D02*
X67000000Y-73000000D01*
X61751700Y-63595000D02*
X61751700Y-67751700D01*
X59750000Y-63595000D02*
X61751700Y-63595000D01*
X98500000Y-61500000D02*
X97773300Y-61500000D01*
X100421300Y-71587500D02*
X100482800Y-71526000D01*
X99587500Y-71587500D02*
X100421300Y-71587500D01*
X101000000Y-71008800D02*
X101000000Y-69175000D01*
X100482800Y-71526000D02*
X101000000Y-71008800D01*
X77500000Y-63500000D02*
X77500000Y-65853600D01*
X72725000Y-130050000D02*
X73138900Y-130050000D01*
X73692900Y-132807100D02*
X65000000Y-141500000D01*
X73692900Y-130604000D02*
X73692900Y-132807100D01*
X73138900Y-130050000D02*
X73692900Y-130604000D01*
X91500000Y-62601700D02*
X91500000Y-63000000D01*
X86000000Y-57101700D02*
X91500000Y-62601700D01*
X86000000Y-56000000D02*
X86000000Y-57101700D01*
X97773300Y-65948300D02*
X97773300Y-61500000D01*
X101000000Y-69175000D02*
X97773300Y-65948300D01*
X86500000Y-73000000D02*
X85773300Y-73000000D01*
X101500000Y-72543200D02*
X100482800Y-71526000D01*
X101500000Y-77500000D02*
X101500000Y-72543200D01*
X115417600Y-39417600D02*
X117667800Y-39417600D01*
X114000000Y-38000000D02*
X115417600Y-39417600D01*
X117735100Y-39350300D02*
X117667800Y-39417600D01*
X119850300Y-39350300D02*
X117735100Y-39350300D01*
X120000000Y-39500000D02*
X119850300Y-39350300D01*
X119592200Y-44580000D02*
X120000000Y-44580000D01*
X117667800Y-42655600D02*
X119592200Y-44580000D01*
X117667800Y-39417600D02*
X117667800Y-42655600D01*
X108325000Y-82550000D02*
X105750000Y-82550000D01*
X113275000Y-87500000D02*
X108325000Y-82550000D01*
X102500000Y-78289100D02*
X102500000Y-77500000D01*
X102773500Y-78562600D02*
X102500000Y-78289100D01*
X103761500Y-78562600D02*
X102773500Y-78562600D01*
X103750000Y-93922500D02*
X103750000Y-87450000D01*
X100672500Y-97000000D02*
X103750000Y-93922500D01*
X67000000Y-68405000D02*
X70000000Y-65405000D01*
X67000000Y-73000000D02*
X67000000Y-68405000D01*
X65000000Y-75000000D02*
X65000000Y-87000000D01*
X67000000Y-73000000D02*
X65000000Y-75000000D01*
X106830400Y-70381100D02*
X107285500Y-69926000D01*
X106830400Y-73857000D02*
X106830400Y-70381100D01*
X107060900Y-74087500D02*
X106830400Y-73857000D01*
X107912500Y-74087500D02*
X107060900Y-74087500D01*
X65000000Y-132800000D02*
X50000000Y-117800000D01*
X65000000Y-141500000D02*
X65000000Y-132800000D01*
X104000000Y-78324100D02*
X103761500Y-78562600D01*
X104000000Y-77500000D02*
X104000000Y-78324100D01*
X124062500Y-59800000D02*
X122160800Y-59800000D01*
X77500000Y-66930000D02*
X75275000Y-66930000D01*
X77500000Y-65853600D02*
X77500000Y-66930000D01*
X79204300Y-86852700D02*
X85000000Y-86852700D01*
X77500000Y-85148400D02*
X79204300Y-86852700D01*
X77500000Y-66930000D02*
X77500000Y-85148400D01*
X85773200Y-86079500D02*
X85000000Y-86852700D01*
X85773200Y-73000000D02*
X85773200Y-86079500D01*
X85773300Y-73000000D02*
X85773200Y-73000000D01*
X85000000Y-86852700D02*
X85000000Y-99000000D01*
X103761500Y-78906400D02*
X103761500Y-78562600D01*
X105250000Y-80394900D02*
X103761500Y-78906400D01*
X105250000Y-82550000D02*
X105250000Y-80394900D01*
X98808300Y-74587500D02*
X99587500Y-74587500D01*
X98520300Y-74875500D02*
X98808300Y-74587500D01*
X98520300Y-76426200D02*
X98520300Y-74875500D01*
X98612800Y-76518700D02*
X98520300Y-76426200D01*
X98612800Y-81245000D02*
X98612800Y-76518700D01*
X101117800Y-83750000D02*
X98612800Y-81245000D01*
X101550000Y-83750000D02*
X101117800Y-83750000D01*
X104000000Y-47050000D02*
X104000000Y-38500000D01*
X103900000Y-47150000D02*
X104000000Y-47050000D01*
X122160800Y-59996900D02*
X121935600Y-60222100D01*
X122160800Y-59800000D02*
X122160800Y-59996900D01*
X73725000Y-129463900D02*
X73138900Y-130050000D01*
X73725000Y-98473300D02*
X73725000Y-129463900D01*
X73551700Y-98300000D02*
X73725000Y-98473300D01*
%TO.N,Net-(D1-VCC)*%
X68903400Y-101751700D02*
X69300200Y-101751700D01*
X68651700Y-101500000D02*
X68903400Y-101751700D01*
X71151900Y-99900000D02*
X69300200Y-101751700D01*
X72500000Y-99900000D02*
X71151900Y-99900000D01*
X111050000Y-162375000D02*
X111300000Y-162125000D01*
X111050000Y-163375000D02*
X111050000Y-162375000D01*
X50000000Y-130500000D02*
X50000000Y-127960000D01*
X67600000Y-101500000D02*
X68651700Y-101500000D01*
X69300200Y-125052300D02*
X72248900Y-128001000D01*
X69300200Y-101751700D02*
X69300200Y-125052300D01*
X71750000Y-129717900D02*
X72546500Y-128921400D01*
X71750000Y-130389800D02*
X71750000Y-129717900D01*
X72360200Y-131000000D02*
X71750000Y-130389800D01*
X72725000Y-131000000D02*
X72360200Y-131000000D01*
X72248900Y-128623900D02*
X72546500Y-128921400D01*
X72248900Y-128001000D02*
X72248900Y-128623900D01*
X72546500Y-128921400D02*
X72725000Y-129100000D01*
X113800000Y-162125000D02*
X113800000Y-125720000D01*
X113800000Y-125720000D02*
X111000000Y-122920000D01*
X114050000Y-162375000D02*
X114050000Y-163375000D01*
X113800000Y-162125000D02*
X114050000Y-162375000D01*
X113863500Y-125720000D02*
X113800000Y-125720000D01*
X116534100Y-123049400D02*
X113863500Y-125720000D01*
X116534100Y-56558100D02*
X116534100Y-123049400D01*
X122894900Y-50197300D02*
X116534100Y-56558100D01*
X122894900Y-47949400D02*
X122894900Y-50197300D01*
X128804300Y-42040000D02*
X122894900Y-47949400D01*
X129300000Y-42040000D02*
X128804300Y-42040000D01*
%TO.N,Net-(C11-Pad2)*%
X83000000Y-109500000D02*
X83000000Y-117000000D01*
X75000000Y-118000000D02*
X75000000Y-109500000D01*
X75050000Y-117950000D02*
X75000000Y-118000000D01*
X75050000Y-117950000D02*
X83500000Y-117950000D01*
X75000000Y-118000000D02*
X75050000Y-117950000D01*
X75000000Y-109500000D02*
X75000000Y-118000000D01*
X83000000Y-109500000D02*
X75000000Y-109500000D01*
X83000000Y-117000000D02*
X83000000Y-109500000D01*
X76000000Y-117000000D02*
X83000000Y-117000000D01*
X76000000Y-110500000D02*
X76000000Y-117000000D01*
X78500000Y-112500000D02*
X79500000Y-113500000D01*
X75000000Y-109500000D02*
X83000000Y-109500000D01*
X83500000Y-117950000D02*
X75050000Y-117950000D01*
X75050000Y-117950000D02*
X83500000Y-117950000D01*
X75000000Y-118000000D02*
X75050000Y-117950000D01*
X75000000Y-109500000D02*
X75000000Y-118000000D01*
X83000000Y-109500000D02*
X75000000Y-109500000D01*
X83000000Y-117000000D02*
X83000000Y-109500000D01*
X76000000Y-117000000D02*
X83000000Y-117000000D01*
X76000000Y-110500000D02*
X76000000Y-117000000D01*
X82000000Y-110500000D02*
X76000000Y-110500000D01*
X83000000Y-117000000D02*
X76000000Y-117000000D01*
X75050000Y-117950000D02*
X83500000Y-117950000D01*
X75000000Y-118000000D02*
X75050000Y-117950000D01*
X75000000Y-109500000D02*
X75000000Y-118000000D01*
X83000000Y-109500000D02*
X75000000Y-109500000D01*
X83000000Y-117000000D02*
X83000000Y-109500000D01*
X76000000Y-117000000D02*
X83000000Y-117000000D01*
X76000000Y-110500000D02*
X76000000Y-117000000D01*
X82000000Y-110500000D02*
X76000000Y-110500000D01*
X82000000Y-116000000D02*
X82000000Y-110500000D01*
X94000000Y-107450000D02*
X94000000Y-88050000D01*
X94000000Y-107450000D02*
X94000000Y-88050000D01*
X83500000Y-117950000D02*
X94000000Y-107450000D01*
X75050000Y-117950000D02*
X83500000Y-117950000D01*
X75000000Y-118000000D02*
X75050000Y-117950000D01*
X75000000Y-109500000D02*
X75000000Y-118000000D01*
X83000000Y-109500000D02*
X75000000Y-109500000D01*
X83000000Y-117000000D02*
X83000000Y-109500000D01*
X76000000Y-117000000D02*
X83000000Y-117000000D01*
X76000000Y-110500000D02*
X76000000Y-117000000D01*
X82000000Y-110500000D02*
X76000000Y-110500000D01*
X82000000Y-116000000D02*
X82000000Y-110500000D01*
X77000000Y-116000000D02*
X82000000Y-116000000D01*
X77000000Y-116000000D02*
X77000000Y-111500000D01*
X82000000Y-116000000D02*
X77000000Y-116000000D01*
X82000000Y-110500000D02*
X82000000Y-116000000D01*
X76000000Y-110500000D02*
X82000000Y-110500000D01*
X76000000Y-117000000D02*
X76000000Y-110500000D01*
X83000000Y-117000000D02*
X76000000Y-117000000D01*
X83000000Y-109500000D02*
X83000000Y-117000000D01*
X75000000Y-109500000D02*
X83000000Y-109500000D01*
X75000000Y-118000000D02*
X75000000Y-109500000D01*
X75050000Y-117950000D02*
X75000000Y-118000000D01*
X83500000Y-117950000D02*
X75050000Y-117950000D01*
X78500000Y-112500000D02*
X79500000Y-113500000D01*
X78000000Y-112500000D02*
X78500000Y-112500000D01*
X78500000Y-112500000D02*
X79500000Y-113500000D01*
X78000000Y-112500000D02*
X78500000Y-112500000D01*
X77000000Y-111500000D02*
X78000000Y-112500000D01*
X77000000Y-116000000D02*
X77000000Y-111500000D01*
X82000000Y-116000000D02*
X77000000Y-116000000D01*
X82000000Y-110500000D02*
X82000000Y-116000000D01*
X76000000Y-110500000D02*
X82000000Y-110500000D01*
X76000000Y-117000000D02*
X76000000Y-110500000D01*
X83000000Y-117000000D02*
X76000000Y-117000000D01*
X83000000Y-109500000D02*
X83000000Y-117000000D01*
X75000000Y-109500000D02*
X83000000Y-109500000D01*
X75000000Y-118000000D02*
X75000000Y-109500000D01*
X75050000Y-117950000D02*
X75000000Y-118000000D01*
X83500000Y-117950000D02*
X75050000Y-117950000D01*
X126812500Y-97000000D02*
X126812500Y-112000000D01*
X94000000Y-84000000D02*
X94000000Y-88050000D01*
%TO.N,Net-(U7-RFI2)*%
X107803900Y-84610300D02*
X107803900Y-84863100D01*
X106943600Y-83750000D02*
X107803900Y-84610300D01*
X106450000Y-83750000D02*
X106943600Y-83750000D01*
%TO.N,Net-(LED41-A)*%
X66850000Y-38980000D02*
X66850000Y-41500000D01*
X66850000Y-36460000D02*
X66850000Y-33940000D01*
X66850000Y-33940000D02*
X66850000Y-31420000D01*
X66850000Y-44020000D02*
X66850000Y-46540000D01*
X67488400Y-48421600D02*
X66850000Y-49060000D01*
X66850000Y-41500000D02*
X66850000Y-44020000D01*
X66850000Y-47783200D02*
X67488400Y-48421600D01*
X66850000Y-46540000D02*
X66850000Y-47783200D01*
X127926200Y-47120000D02*
X127772200Y-47274000D01*
X129300000Y-47120000D02*
X127926200Y-47120000D01*
X66850000Y-38980000D02*
X66850000Y-36460000D01*
%TO.N,Net-(LED10-K)*%
X50920300Y-34580300D02*
X50280000Y-33940000D01*
X52759700Y-34580300D02*
X50920300Y-34580300D01*
X53400000Y-33940000D02*
X52759700Y-34580300D01*
X115119700Y-44194000D02*
X115119700Y-40484100D01*
X119315700Y-48390000D02*
X115119700Y-44194000D01*
X120000000Y-48390000D02*
X119315700Y-48390000D01*
X69814200Y-34754200D02*
X71305800Y-34754200D01*
X69000000Y-33940000D02*
X69814200Y-34754200D01*
X71305800Y-34754200D02*
X72120000Y-33940000D01*
X71305800Y-34754200D02*
X71305800Y-38030500D01*
X63390000Y-34570000D02*
X63604900Y-34570000D01*
X62760000Y-33940000D02*
X63390000Y-34570000D01*
X65250000Y-34570000D02*
X65880000Y-33940000D01*
X63604900Y-34570000D02*
X65250000Y-34570000D01*
X55681200Y-34778800D02*
X56520000Y-33940000D01*
X54238800Y-34778800D02*
X55681200Y-34778800D01*
X53400000Y-33940000D02*
X54238800Y-34778800D01*
X59640000Y-33940000D02*
X59640000Y-33107200D01*
X56520000Y-33940000D02*
X56520000Y-33107200D01*
X63604900Y-34570000D02*
X63604900Y-34969100D01*
%TD*%
M02*
