%TF.GenerationSoftware,KiCad,Pcbnew,10.0.5*%
%TF.CreationDate,2026-08-20T22:42:10+03:00*%
%TF.ProjectId,MorePCBDoodles,4d6f7265-5043-4424-946f-6f646c65732e,rev?*%
%TF.SameCoordinates,Original*%
%TF.FileFunction,Soldermask,Top*%
%TF.FilePolarity,Negative*%
%FSLAX46Y46*%
G04 Gerber Fmt 4.6, Leading zero omitted, Abs format (unit mm)*
G04 Created by KiCad (PCBNEW 10.0.5) date 2026-08-20 22:42:10*
%MOMM*%
%LPD*%
G01*
G04 APERTURE LIST*
G04 Aperture macros list*
%AMRoundRect*
0 Rectangle with rounded corners*
0 $1 Rounding radius*
0 $2 $3 $4 $5 $6 $7 $8 $9 X,Y pos of 4 corners*
0 Add a 4 corners polygon primitive as box body*
4,1,4,$2,$3,$4,$5,$6,$7,$8,$9,$2,$3,0*
0 Add four circle primitives for the rounded corners*
1,1,$1+$1,$2,$3*
1,1,$1+$1,$4,$5*
1,1,$1+$1,$6,$7*
1,1,$1+$1,$8,$9*
0 Add four rect primitives between the rounded corners*
20,1,$1+$1,$2,$3,$4,$5,0*
20,1,$1+$1,$4,$5,$6,$7,0*
20,1,$1+$1,$6,$7,$8,$9,0*
20,1,$1+$1,$8,$9,$2,$3,0*%
G04 Aperture macros list end*
%ADD10RoundRect,0.147500X-0.147500X-0.172500X0.147500X-0.172500X0.147500X0.172500X-0.147500X0.172500X0*%
%ADD11C,1.600000*%
%ADD12RoundRect,0.150000X-0.512500X-0.150000X0.512500X-0.150000X0.512500X0.150000X-0.512500X0.150000X0*%
%ADD13RoundRect,0.050000X-0.387500X-0.050000X0.387500X-0.050000X0.387500X0.050000X-0.387500X0.050000X0*%
%ADD14RoundRect,0.050000X-0.050000X-0.387500X0.050000X-0.387500X0.050000X0.387500X-0.050000X0.387500X0*%
%ADD15R,3.200000X3.200000*%
%ADD16R,1.000000X1.000000*%
%ADD17RoundRect,0.250000X-0.350000X-0.350000X0.350000X-0.350000X0.350000X0.350000X-0.350000X0.350000X0*%
%ADD18C,1.200000*%
%ADD19RoundRect,0.075000X-0.662500X-0.075000X0.662500X-0.075000X0.662500X0.075000X-0.662500X0.075000X0*%
%ADD20RoundRect,0.075000X-0.075000X-0.662500X0.075000X-0.662500X0.075000X0.662500X-0.075000X0.662500X0*%
%ADD21RoundRect,0.125000X-0.200000X-0.125000X0.200000X-0.125000X0.200000X0.125000X-0.200000X0.125000X0*%
%ADD22R,3.400000X4.300000*%
%ADD23C,3.250000*%
%ADD24C,1.900000*%
%ADD25R,1.900000X1.900000*%
%ADD26C,2.500000*%
%ADD27RoundRect,0.250000X0.750000X-0.750000X0.750000X0.750000X-0.750000X0.750000X-0.750000X-0.750000X0*%
%ADD28C,2.000000*%
%ADD29RoundRect,0.250000X-0.600000X-0.725000X0.600000X-0.725000X0.600000X0.725000X-0.600000X0.725000X0*%
%ADD30O,1.700000X1.950000*%
%ADD31R,1.700000X1.700000*%
%ADD32C,1.700000*%
%ADD33RoundRect,0.250000X-0.275000X-0.750000X0.275000X-0.750000X0.275000X0.750000X-0.275000X0.750000X0*%
%ADD34R,2.200000X1.600000*%
%ADD35RoundRect,0.250000X-0.450000X-0.350000X0.450000X-0.350000X0.450000X0.350000X-0.450000X0.350000X0*%
%ADD36RoundRect,0.062500X-0.337500X-0.062500X0.337500X-0.062500X0.337500X0.062500X-0.337500X0.062500X0*%
%ADD37RoundRect,0.062500X-0.062500X-0.337500X0.062500X-0.337500X0.062500X0.337500X-0.062500X0.337500X0*%
%ADD38R,3.600000X3.600000*%
%ADD39R,0.850000X0.850000*%
%ADD40C,0.850000*%
%ADD41RoundRect,0.075000X-0.125000X-0.075000X0.125000X-0.075000X0.125000X0.075000X-0.125000X0.075000X0*%
%ADD42RoundRect,0.150000X-0.875000X-0.150000X0.875000X-0.150000X0.875000X0.150000X-0.875000X0.150000X0*%
%ADD43RoundRect,0.075000X-0.075000X-0.300000X0.075000X-0.300000X0.075000X0.300000X-0.075000X0.300000X0*%
%ADD44RoundRect,0.062500X-0.062500X-0.312500X0.062500X-0.312500X0.062500X0.312500X-0.062500X0.312500X0*%
%ADD45O,0.950000X1.950000*%
%ADD46O,0.950000X2.150000*%
%ADD47R,1.500000X1.000000*%
G04 APERTURE END LIST*
D10*
%TO.C,LED42*%
X65880000Y-33940000D03*
X66850000Y-33940000D03*
%TD*%
D11*
%TO.C,C17*%
X91500000Y-88050000D03*
X94000000Y-88050000D03*
%TD*%
D12*
%TO.C,U2*%
X72725000Y-129100000D03*
X72725000Y-130050000D03*
X72725000Y-131000000D03*
X75000000Y-131000000D03*
X75000000Y-129100000D03*
%TD*%
D11*
%TO.C,R3*%
X111000000Y-133080000D03*
X111000000Y-122920000D03*
%TD*%
D13*
%TO.C,U4*%
X120625000Y-57200000D03*
X120625000Y-57600000D03*
X120625000Y-58000000D03*
X120625000Y-58400000D03*
X120625000Y-58800000D03*
X120625000Y-59200000D03*
X120625000Y-59600000D03*
X120625000Y-60000000D03*
X120625000Y-60400000D03*
X120625000Y-60800000D03*
X120625000Y-61200000D03*
X120625000Y-61600000D03*
X120625000Y-62000000D03*
X120625000Y-62400000D03*
D14*
X121462500Y-63237500D03*
X121862500Y-63237500D03*
X122262500Y-63237500D03*
X122662500Y-63237500D03*
X123062500Y-63237500D03*
X123462500Y-63237500D03*
X123862500Y-63237500D03*
X124262500Y-63237500D03*
X124662500Y-63237500D03*
X125062500Y-63237500D03*
X125462500Y-63237500D03*
X125862500Y-63237500D03*
X126262500Y-63237500D03*
X126662500Y-63237500D03*
D13*
X127500000Y-62400000D03*
X127500000Y-62000000D03*
X127500000Y-61600000D03*
X127500000Y-61200000D03*
X127500000Y-60800000D03*
X127500000Y-60400000D03*
X127500000Y-60000000D03*
X127500000Y-59600000D03*
X127500000Y-59200000D03*
X127500000Y-58800000D03*
X127500000Y-58400000D03*
X127500000Y-58000000D03*
X127500000Y-57600000D03*
X127500000Y-57200000D03*
D14*
X126662500Y-56362500D03*
X126262500Y-56362500D03*
X125862500Y-56362500D03*
X125462500Y-56362500D03*
X125062500Y-56362500D03*
X124662500Y-56362500D03*
X124262500Y-56362500D03*
X123862500Y-56362500D03*
X123462500Y-56362500D03*
X123062500Y-56362500D03*
X122662500Y-56362500D03*
X122262500Y-56362500D03*
X121862500Y-56362500D03*
X121462500Y-56362500D03*
D15*
X124062500Y-59800000D03*
%TD*%
D10*
%TO.C,LED62*%
X72120000Y-44020000D03*
X73090000Y-44020000D03*
%TD*%
%TO.C,LED39*%
X62760000Y-46540000D03*
X63730000Y-46540000D03*
%TD*%
D16*
%TO.C,TP1*%
X83500000Y-117950000D03*
%TD*%
D10*
%TO.C,LED33*%
X62760000Y-31420000D03*
X63730000Y-31420000D03*
%TD*%
%TO.C,LED7*%
X50280000Y-46540000D03*
X51250000Y-46540000D03*
%TD*%
D17*
%TO.C,C9*%
X112500000Y-38000000D03*
D18*
X114000000Y-38000000D03*
%TD*%
D17*
%TO.C,C4*%
X112500000Y-63500000D03*
D18*
X114000000Y-63500000D03*
%TD*%
D17*
%TO.C,C5*%
X102500000Y-38500000D03*
D18*
X104000000Y-38500000D03*
%TD*%
D11*
%TO.C,C6*%
X62500000Y-141500000D03*
X65000000Y-141500000D03*
%TD*%
D19*
%TO.C,U8*%
X99587500Y-70587500D03*
X99587500Y-71087500D03*
X99587500Y-71587500D03*
X99587500Y-72087500D03*
X99587500Y-72587500D03*
X99587500Y-73087500D03*
X99587500Y-73587500D03*
X99587500Y-74087500D03*
X99587500Y-74587500D03*
X99587500Y-75087500D03*
X99587500Y-75587500D03*
X99587500Y-76087500D03*
D20*
X101000000Y-77500000D03*
X101500000Y-77500000D03*
X102000000Y-77500000D03*
X102500000Y-77500000D03*
X103000000Y-77500000D03*
X103500000Y-77500000D03*
X104000000Y-77500000D03*
X104500000Y-77500000D03*
X105000000Y-77500000D03*
X105500000Y-77500000D03*
X106000000Y-77500000D03*
X106500000Y-77500000D03*
D19*
X107912500Y-76087500D03*
X107912500Y-75587500D03*
X107912500Y-75087500D03*
X107912500Y-74587500D03*
X107912500Y-74087500D03*
X107912500Y-73587500D03*
X107912500Y-73087500D03*
X107912500Y-72587500D03*
X107912500Y-72087500D03*
X107912500Y-71587500D03*
X107912500Y-71087500D03*
X107912500Y-70587500D03*
D20*
X106500000Y-69175000D03*
X106000000Y-69175000D03*
X105500000Y-69175000D03*
X105000000Y-69175000D03*
X104500000Y-69175000D03*
X104000000Y-69175000D03*
X103500000Y-69175000D03*
X103000000Y-69175000D03*
X102500000Y-69175000D03*
X102000000Y-69175000D03*
X101500000Y-69175000D03*
X101000000Y-69175000D03*
%TD*%
D10*
%TO.C,LED48*%
X65880000Y-49060000D03*
X66850000Y-49060000D03*
%TD*%
D21*
%TO.C,U5*%
X56000000Y-61690000D03*
X56000000Y-62960000D03*
X56000000Y-64230000D03*
X56000000Y-65500000D03*
X63500000Y-65500000D03*
X63500000Y-64230000D03*
X63500000Y-62960000D03*
X63500000Y-61690000D03*
D22*
X59750000Y-63595000D03*
%TD*%
D11*
%TO.C,R1*%
X102900000Y-133080000D03*
X102900000Y-122920000D03*
%TD*%
D10*
%TO.C,LED13*%
X53400000Y-41500000D03*
X54370000Y-41500000D03*
%TD*%
D23*
%TO.C,J4*%
X85785000Y-161000000D03*
X97215000Y-161000000D03*
D24*
X97825000Y-164380000D03*
X95285000Y-165900000D03*
X87715000Y-164380000D03*
X85175000Y-165900000D03*
D25*
X85785000Y-152110000D03*
D24*
X87055000Y-154650000D03*
X88325000Y-152110000D03*
X89595000Y-154650000D03*
X90865000Y-152110000D03*
X92135000Y-154650000D03*
X93405000Y-152110000D03*
X94675000Y-154650000D03*
X95945000Y-152110000D03*
X97215000Y-154650000D03*
D26*
X83725000Y-157950000D03*
X99275000Y-157950000D03*
%TD*%
D10*
%TO.C,LED26*%
X59640000Y-33940000D03*
X60610000Y-33940000D03*
%TD*%
%TO.C,LED50*%
X69000000Y-33940000D03*
X69970000Y-33940000D03*
%TD*%
%TO.C,LED37*%
X62760000Y-41500000D03*
X63730000Y-41500000D03*
%TD*%
D27*
%TO.C,C12*%
X100672500Y-112000000D03*
D28*
X100672500Y-97000000D03*
%TD*%
D21*
%TO.C,U3*%
X73750000Y-61595000D03*
X73750000Y-62865000D03*
X73750000Y-64135000D03*
X73750000Y-65405000D03*
X81250000Y-65405000D03*
X81250000Y-64135000D03*
X81250000Y-62865000D03*
X81250000Y-61595000D03*
D22*
X77500000Y-63500000D03*
%TD*%
D10*
%TO.C,LED21*%
X56520000Y-41500000D03*
X57490000Y-41500000D03*
%TD*%
D29*
%TO.C,J5*%
X57500000Y-55000000D03*
D30*
X60000000Y-55000000D03*
X62500000Y-55000000D03*
X65000000Y-55000000D03*
X67500000Y-55000000D03*
X70000000Y-55000000D03*
%TD*%
D10*
%TO.C,LED14*%
X53400000Y-44020000D03*
X54370000Y-44020000D03*
%TD*%
%TO.C,LED41*%
X65880000Y-31420000D03*
X66850000Y-31420000D03*
%TD*%
%TO.C,LED11*%
X53400000Y-36460000D03*
X54370000Y-36460000D03*
%TD*%
%TO.C,LED24*%
X56520000Y-49060000D03*
X57490000Y-49060000D03*
%TD*%
%TO.C,LED4*%
X50280000Y-38980000D03*
X51250000Y-38980000D03*
%TD*%
%TO.C,LED25*%
X59640000Y-31420000D03*
X60610000Y-31420000D03*
%TD*%
%TO.C,LED55*%
X69000000Y-46540000D03*
X69970000Y-46540000D03*
%TD*%
%TO.C,LED22*%
X56520000Y-44020000D03*
X57490000Y-44020000D03*
%TD*%
%TO.C,LED38*%
X62760000Y-44020000D03*
X63730000Y-44020000D03*
%TD*%
%TO.C,LED12*%
X53400000Y-38980000D03*
X54370000Y-38980000D03*
%TD*%
%TO.C,LED8*%
X50280000Y-49060000D03*
X51250000Y-49060000D03*
%TD*%
%TO.C,LED59*%
X72120000Y-36460000D03*
X73090000Y-36460000D03*
%TD*%
D31*
%TO.C,J8*%
X50000000Y-112720000D03*
D32*
X50000000Y-115260000D03*
X50000000Y-117800000D03*
X50000000Y-120340000D03*
X50000000Y-122880000D03*
X50000000Y-125420000D03*
X50000000Y-127960000D03*
X50000000Y-130500000D03*
X50000000Y-133040000D03*
X50000000Y-135580000D03*
%TD*%
D10*
%TO.C,LED64*%
X72120000Y-49060000D03*
X73090000Y-49060000D03*
%TD*%
D33*
%TO.C,SW3*%
X75275000Y-81000000D03*
X79725000Y-81000000D03*
%TD*%
D10*
%TO.C,LED35*%
X62760000Y-36460000D03*
X63730000Y-36460000D03*
%TD*%
%TO.C,LED47*%
X65880000Y-46540000D03*
X66850000Y-46540000D03*
%TD*%
%TO.C,LED54*%
X69000000Y-44020000D03*
X69970000Y-44020000D03*
%TD*%
D33*
%TO.C,SW2*%
X75275000Y-76450000D03*
X79725000Y-76450000D03*
%TD*%
D10*
%TO.C,LED49*%
X69000000Y-31420000D03*
X69970000Y-31420000D03*
%TD*%
D34*
%TO.C,C19*%
X83000000Y-56000000D03*
X86000000Y-56000000D03*
%TD*%
D16*
%TO.C,TP2*%
X79500000Y-113500000D03*
%TD*%
D35*
%TO.C,Y1*%
X125400000Y-88850000D03*
X127600000Y-88850000D03*
X127600000Y-87150000D03*
X125400000Y-87150000D03*
%TD*%
%TO.C,Y2*%
X112900000Y-73350000D03*
X115100000Y-73350000D03*
X115100000Y-71650000D03*
X112900000Y-71650000D03*
%TD*%
D17*
%TO.C,C10*%
X93000000Y-38000000D03*
D18*
X94500000Y-38000000D03*
%TD*%
D27*
%TO.C,C13*%
X107207500Y-112000000D03*
D28*
X107207500Y-97000000D03*
%TD*%
D35*
%TO.C,X2*%
X103400000Y-48850000D03*
X105600000Y-48850000D03*
X105600000Y-47150000D03*
X103400000Y-47150000D03*
%TD*%
D10*
%TO.C,LED2*%
X50280000Y-33940000D03*
X51250000Y-33940000D03*
%TD*%
D36*
%TO.C,U7*%
X101550000Y-83250000D03*
X101550000Y-83750000D03*
X101550000Y-84250000D03*
X101550000Y-84750000D03*
X101550000Y-85250000D03*
X101550000Y-85750000D03*
X101550000Y-86250000D03*
X101550000Y-86750000D03*
D37*
X102250000Y-87450000D03*
X102750000Y-87450000D03*
X103250000Y-87450000D03*
X103750000Y-87450000D03*
X104250000Y-87450000D03*
X104750000Y-87450000D03*
X105250000Y-87450000D03*
X105750000Y-87450000D03*
D36*
X106450000Y-86750000D03*
X106450000Y-86250000D03*
X106450000Y-85750000D03*
X106450000Y-85250000D03*
X106450000Y-84750000D03*
X106450000Y-84250000D03*
X106450000Y-83750000D03*
X106450000Y-83250000D03*
D37*
X105750000Y-82550000D03*
X105250000Y-82550000D03*
X104750000Y-82550000D03*
X104250000Y-82550000D03*
X103750000Y-82550000D03*
X103250000Y-82550000D03*
X102750000Y-82550000D03*
X102250000Y-82550000D03*
D38*
X104000000Y-85000000D03*
%TD*%
D10*
%TO.C,LED6*%
X50280000Y-44020000D03*
X51250000Y-44020000D03*
%TD*%
%TO.C,LED19*%
X56520000Y-36460000D03*
X57490000Y-36460000D03*
%TD*%
D11*
%TO.C,R4*%
X115050000Y-133080000D03*
X115050000Y-122920000D03*
%TD*%
D10*
%TO.C,LED32*%
X59640000Y-49060000D03*
X60610000Y-49060000D03*
%TD*%
%TO.C,LED60*%
X72120000Y-38980000D03*
X73090000Y-38980000D03*
%TD*%
%TO.C,LED36*%
X62760000Y-38980000D03*
X63730000Y-38980000D03*
%TD*%
D39*
%TO.C,J3*%
X98500000Y-61500000D03*
D40*
X98500000Y-62500000D03*
X98500000Y-63500000D03*
X98500000Y-64500000D03*
%TD*%
D17*
%TO.C,C7*%
X63500000Y-87000000D03*
D18*
X65000000Y-87000000D03*
%TD*%
D10*
%TO.C,LED46*%
X65880000Y-44020000D03*
X66850000Y-44020000D03*
%TD*%
%TO.C,LED57*%
X72120000Y-31420000D03*
X73090000Y-31420000D03*
%TD*%
D11*
%TO.C,R6*%
X123150000Y-133080000D03*
X123150000Y-122920000D03*
%TD*%
D10*
%TO.C,LED40*%
X62760000Y-49060000D03*
X63730000Y-49060000D03*
%TD*%
%TO.C,LED3*%
X50280000Y-36460000D03*
X51250000Y-36460000D03*
%TD*%
%TO.C,LED63*%
X72120000Y-46540000D03*
X73090000Y-46540000D03*
%TD*%
D31*
%TO.C,J9*%
X49500000Y-141000000D03*
D32*
X49500000Y-143540000D03*
X49500000Y-146080000D03*
X49500000Y-148620000D03*
%TD*%
D10*
%TO.C,LED43*%
X65880000Y-36460000D03*
X66850000Y-36460000D03*
%TD*%
%TO.C,LED30*%
X59640000Y-44020000D03*
X60610000Y-44020000D03*
%TD*%
D17*
%TO.C,C8*%
X83500000Y-99000000D03*
D18*
X85000000Y-99000000D03*
%TD*%
D10*
%TO.C,LED58*%
X72120000Y-33940000D03*
X73090000Y-33940000D03*
%TD*%
%TO.C,LED28*%
X59640000Y-38980000D03*
X60610000Y-38980000D03*
%TD*%
%TO.C,LED23*%
X56520000Y-46540000D03*
X57490000Y-46540000D03*
%TD*%
%TO.C,LED15*%
X53400000Y-46540000D03*
X54370000Y-46540000D03*
%TD*%
D17*
%TO.C,C18*%
X84500000Y-38000000D03*
D18*
X86000000Y-38000000D03*
%TD*%
D17*
%TO.C,C2*%
X65500000Y-73000000D03*
D18*
X67000000Y-73000000D03*
%TD*%
D13*
%TO.C,U1*%
X119962500Y-72837500D03*
X119962500Y-73237500D03*
X119962500Y-73637500D03*
X119962500Y-74037500D03*
X119962500Y-74437500D03*
X119962500Y-74837500D03*
X119962500Y-75237500D03*
X119962500Y-75637500D03*
X119962500Y-76037500D03*
X119962500Y-76437500D03*
X119962500Y-76837500D03*
X119962500Y-77237500D03*
X119962500Y-77637500D03*
X119962500Y-78037500D03*
D14*
X120800000Y-78875000D03*
X121200000Y-78875000D03*
X121600000Y-78875000D03*
X122000000Y-78875000D03*
X122400000Y-78875000D03*
X122800000Y-78875000D03*
X123200000Y-78875000D03*
X123600000Y-78875000D03*
X124000000Y-78875000D03*
X124400000Y-78875000D03*
X124800000Y-78875000D03*
X125200000Y-78875000D03*
X125600000Y-78875000D03*
X126000000Y-78875000D03*
D13*
X126837500Y-78037500D03*
X126837500Y-77637500D03*
X126837500Y-77237500D03*
X126837500Y-76837500D03*
X126837500Y-76437500D03*
X126837500Y-76037500D03*
X126837500Y-75637500D03*
X126837500Y-75237500D03*
X126837500Y-74837500D03*
X126837500Y-74437500D03*
X126837500Y-74037500D03*
X126837500Y-73637500D03*
X126837500Y-73237500D03*
X126837500Y-72837500D03*
D14*
X126000000Y-72000000D03*
X125600000Y-72000000D03*
X125200000Y-72000000D03*
X124800000Y-72000000D03*
X124400000Y-72000000D03*
X124000000Y-72000000D03*
X123600000Y-72000000D03*
X123200000Y-72000000D03*
X122800000Y-72000000D03*
X122400000Y-72000000D03*
X122000000Y-72000000D03*
X121600000Y-72000000D03*
X121200000Y-72000000D03*
X120800000Y-72000000D03*
D15*
X123400000Y-75437500D03*
%TD*%
D10*
%TO.C,LED20*%
X56520000Y-38980000D03*
X57490000Y-38980000D03*
%TD*%
D17*
%TO.C,C3*%
X90000000Y-63000000D03*
D18*
X91500000Y-63000000D03*
%TD*%
D10*
%TO.C,LED44*%
X65880000Y-38980000D03*
X66850000Y-38980000D03*
%TD*%
D41*
%TO.C,L1*%
X88250000Y-106850000D03*
X88750000Y-106850000D03*
%TD*%
D33*
%TO.C,SW4*%
X75275000Y-85550000D03*
X79725000Y-85550000D03*
%TD*%
D31*
%TO.C,J10*%
X49500000Y-154500000D03*
D32*
X49500000Y-157040000D03*
X49500000Y-159580000D03*
X49500000Y-162120000D03*
%TD*%
D10*
%TO.C,LED53*%
X69000000Y-41500000D03*
X69970000Y-41500000D03*
%TD*%
D17*
%TO.C,C1*%
X89500000Y-122500000D03*
D18*
X91000000Y-122500000D03*
%TD*%
D42*
%TO.C,U6*%
X120000000Y-35690000D03*
X120000000Y-36960000D03*
X120000000Y-38230000D03*
X120000000Y-39500000D03*
X120000000Y-40770000D03*
X120000000Y-42040000D03*
X120000000Y-43310000D03*
X120000000Y-44580000D03*
X120000000Y-45850000D03*
X120000000Y-47120000D03*
X120000000Y-48390000D03*
X120000000Y-49660000D03*
X129300000Y-49660000D03*
X129300000Y-48390000D03*
X129300000Y-47120000D03*
X129300000Y-45850000D03*
X129300000Y-44580000D03*
X129300000Y-43310000D03*
X129300000Y-42040000D03*
X129300000Y-40770000D03*
X129300000Y-39500000D03*
X129300000Y-38230000D03*
X129300000Y-36960000D03*
X129300000Y-35690000D03*
%TD*%
D11*
%TO.C,C11*%
X91500000Y-84000000D03*
X94000000Y-84000000D03*
%TD*%
D10*
%TO.C,LED10*%
X53400000Y-33940000D03*
X54370000Y-33940000D03*
%TD*%
D11*
%TO.C,R2*%
X106950000Y-133080000D03*
X106950000Y-122920000D03*
%TD*%
D10*
%TO.C,LED29*%
X59640000Y-41500000D03*
X60610000Y-41500000D03*
%TD*%
%TO.C,LED27*%
X59640000Y-36460000D03*
X60610000Y-36460000D03*
%TD*%
D27*
%TO.C,C16*%
X126812500Y-112000000D03*
D28*
X126812500Y-97000000D03*
%TD*%
D39*
%TO.C,J2*%
X86500000Y-73000000D03*
D40*
X86500000Y-74000000D03*
X86500000Y-75000000D03*
X86500000Y-76000000D03*
%TD*%
D10*
%TO.C,LED34*%
X62760000Y-33940000D03*
X63730000Y-33940000D03*
%TD*%
D41*
%TO.C,L2*%
X88250000Y-108500000D03*
X88750000Y-108500000D03*
%TD*%
D43*
%TO.C,J1*%
X109000000Y-162125000D03*
D44*
X109500000Y-162125000D03*
D43*
X116100000Y-162125000D03*
D44*
X111300000Y-162125000D03*
X111800000Y-162125000D03*
X112300000Y-162125000D03*
X112800000Y-162125000D03*
X113300000Y-162125000D03*
X113800000Y-162125000D03*
X115600000Y-162125000D03*
X115550000Y-163375000D03*
X114050000Y-163375000D03*
X113550000Y-163375000D03*
X113050000Y-163375000D03*
X112050000Y-163375000D03*
X111550000Y-163375000D03*
X111050000Y-163375000D03*
X109550000Y-163375000D03*
D45*
X108100000Y-162300000D03*
D46*
X108100000Y-165500000D03*
D45*
X117000000Y-162300000D03*
D46*
X117000000Y-165500000D03*
%TD*%
D10*
%TO.C,LED61*%
X72120000Y-41500000D03*
X73090000Y-41500000D03*
%TD*%
%TO.C,LED1*%
X50280000Y-31420000D03*
X51250000Y-31420000D03*
%TD*%
D11*
%TO.C,R7*%
X127200000Y-133080000D03*
X127200000Y-122920000D03*
%TD*%
D10*
%TO.C,LED56*%
X69000000Y-49060000D03*
X69970000Y-49060000D03*
%TD*%
%TO.C,LED9*%
X53400000Y-31420000D03*
X54370000Y-31420000D03*
%TD*%
D31*
%TO.C,J7*%
X50500000Y-82840000D03*
D32*
X50500000Y-85380000D03*
X50500000Y-87920000D03*
X50500000Y-90460000D03*
X50500000Y-93000000D03*
X50500000Y-95540000D03*
X50500000Y-98080000D03*
X50500000Y-100620000D03*
X50500000Y-103160000D03*
X50500000Y-105700000D03*
%TD*%
D47*
%TO.C,D1*%
X67600000Y-98300000D03*
X67600000Y-99900000D03*
X67600000Y-101500000D03*
X72500000Y-101500000D03*
X72500000Y-99900000D03*
X72500000Y-98300000D03*
%TD*%
D35*
%TO.C,X1*%
X83800000Y-48000000D03*
X86000000Y-48000000D03*
X86000000Y-46300000D03*
X83800000Y-46300000D03*
%TD*%
D10*
%TO.C,LED51*%
X69000000Y-36460000D03*
X69970000Y-36460000D03*
%TD*%
%TO.C,LED18*%
X56520000Y-33940000D03*
X57490000Y-33940000D03*
%TD*%
%TO.C,LED5*%
X50280000Y-41500000D03*
X51250000Y-41500000D03*
%TD*%
%TO.C,LED31*%
X59640000Y-46540000D03*
X60610000Y-46540000D03*
%TD*%
D27*
%TO.C,C14*%
X113742500Y-112000000D03*
D28*
X113742500Y-97000000D03*
%TD*%
D11*
%TO.C,R5*%
X119100000Y-133080000D03*
X119100000Y-122920000D03*
%TD*%
D31*
%TO.C,J6*%
X50500000Y-55340000D03*
D32*
X50500000Y-57880000D03*
X50500000Y-60420000D03*
X50500000Y-62960000D03*
X50500000Y-65500000D03*
X50500000Y-68040000D03*
X50500000Y-70580000D03*
X50500000Y-73120000D03*
X50500000Y-75660000D03*
%TD*%
D10*
%TO.C,LED16*%
X53400000Y-49060000D03*
X54370000Y-49060000D03*
%TD*%
D27*
%TO.C,C15*%
X120277500Y-112000000D03*
D28*
X120277500Y-97000000D03*
%TD*%
D10*
%TO.C,LED45*%
X65880000Y-41500000D03*
X66850000Y-41500000D03*
%TD*%
D34*
%TO.C,C20*%
X102500000Y-56500000D03*
X105500000Y-56500000D03*
%TD*%
D33*
%TO.C,SW1*%
X113275000Y-87500000D03*
X117725000Y-87500000D03*
%TD*%
D10*
%TO.C,LED52*%
X69000000Y-38980000D03*
X69970000Y-38980000D03*
%TD*%
%TO.C,LED17*%
X56520000Y-31420000D03*
X57490000Y-31420000D03*
%TD*%
M02*
