M48
; DRILL file KiCad 10.0.5 date 2026-08-20T22:42:11
; FORMAT={-:-/ absolute / metric / decimal}
; #@! TF.CreationDate,2026-08-20T22:42:11+03:00
; #@! TF.GenerationSoftware,Kicad,Pcbnew,10.0.5
; #@! TF.FileFunction,Plated,1,2,PTH
FMAT,2
METRIC
; #@! TA.AperFunction,Plated,PTH,ComponentDrill
T1C0.200
; #@! TA.AperFunction,Plated,PTH,ViaDrill
T2C0.300
; #@! TA.AperFunction,Plated,PTH,ComponentDrill
T3C0.450
; #@! TA.AperFunction,Plated,PTH,ComponentDrill
T4C0.500
; #@! TA.AperFunction,Plated,PTH,ComponentDrill
T5C0.600
; #@! TA.AperFunction,Plated,PTH,ComponentDrill
T6C0.800
; #@! TA.AperFunction,Plated,PTH,ComponentDrill
T7C0.900
; #@! TA.AperFunction,Plated,PTH,ComponentDrill
T8C0.950
; #@! TA.AperFunction,Plated,PTH,ComponentDrill
T9C1.000
; #@! TA.AperFunction,Plated,PTH,ComponentDrill
T10C1.500
%
G90
G05
T1
X103.0Y-84.0
X103.0Y-85.0
X103.0Y-86.0
X104.0Y-84.0
X104.0Y-85.0
X104.0Y-86.0
X105.0Y-84.0
X105.0Y-85.0
X105.0Y-86.0
T2
X51.229Y-47.718
X53.4Y-45.329
X53.758Y-47.744
X54.37Y-37.72
X55.168Y-46.218
X55.195Y-34.177
X56.52Y-33.107
X56.979Y-45.268
X58.311Y-39.078
X58.313Y-41.85
X58.321Y-36.46
X59.64Y-33.107
X59.64Y-39.806
X59.64Y-47.582
X59.802Y-40.65
X61.408Y-36.46
X61.409Y-37.953
X63.605Y-34.969
X63.73Y-32.68
X63.73Y-37.338
X64.355Y-39.622
X65.88Y-37.295
X65.88Y-38.122
X65.88Y-40.594
X65.88Y-44.871
X65.88Y-47.459
X67.488Y-48.422
X68.197Y-44.213
X68.412Y-37.431
X68.858Y-99.88
X69.0Y-40.256
X69.854Y-44.851
X69.97Y-47.423
X70.0Y-70.5
X70.496Y-37.812
X70.5Y-81.073
X71.21Y-46.7
X71.306Y-38.03
X71.5Y-63.5
X71.5Y-66.5
X72.12Y-32.351
X72.12Y-37.426
X72.121Y-45.174
X72.249Y-128.001
X72.581Y-39.994
X72.952Y-90.5
X73.32Y-40.603
X86.373Y-78.0
X87.845Y-73.4
X87.887Y-68.5
X89.5Y-69.0
X89.5Y-83.0
X89.957Y-71.031
X90.529Y-70.43
X92.153Y-150.642
X92.403Y-68.861
X93.374Y-65.874
X94.331Y-68.0
X94.5Y-70.0
X95.331Y-87.541
X96.749Y-143.686
X97.701Y-75.966
X98.011Y-76.773
X98.578Y-82.336
X99.31Y-84.684
X99.822Y-83.32
X100.622Y-84.693
X103.441Y-79.702
X103.5Y-80.5
X103.724Y-74.376
X104.0Y-75.5
X104.5Y-78.745
X104.65Y-81.1
X104.952Y-73.7
X105.85Y-81.1
X106.0Y-73.0
X106.33Y-79.9
X107.0Y-81.1
X107.17Y-76.766
X107.285Y-69.926
X107.446Y-83.37
X107.6Y-85.927
X107.804Y-84.863
X108.988Y-78.012
X109.5Y-74.188
X110.107Y-68.412
X110.253Y-41.671
X110.288Y-70.0
X110.352Y-139.159
X110.615Y-75.615
X110.888Y-68.587
X111.487Y-77.013
X112.056Y-64.595
X114.5Y-70.5
X115.12Y-40.484
X115.241Y-78.741
X115.5Y-54.5
X115.934Y-66.5
X116.008Y-38.816
X117.0Y-42.962
X117.134Y-76.0
X117.134Y-77.0
X117.21Y-72.21
X117.5Y-67.5
X117.5Y-73.5
X117.534Y-78.5
X117.541Y-47.858
X117.857Y-56.143
X117.859Y-131.677
X118.27Y-39.973
X118.476Y-46.691
X118.5Y-60.822
X118.5Y-83.5
X118.507Y-37.415
X118.569Y-70.0
X119.622Y-52.622
X119.769Y-66.5
X119.769Y-70.5
X119.769Y-81.0
X119.851Y-84.149
X120.0Y-42.962
X120.239Y-161.441
X120.5Y-55.0
X121.3Y-75.951
X121.468Y-73.464
X121.487Y-84.937
X121.5Y-81.5
X121.936Y-60.222
X122.0Y-65.0
X122.5Y-83.5
X123.0Y-80.5
X124.374Y-82.283
X124.4Y-83.083
X124.48Y-80.48
X125.0Y-84.953
X125.046Y-79.914
X125.908Y-72.98
X126.003Y-81.503
X126.837Y-39.023
X127.6Y-85.553
X127.771Y-48.39
X127.772Y-47.274
X127.895Y-41.358
X127.921Y-38.801
X130.0Y-62.0
X130.828Y-44.576
X131.435Y-43.562
X132.635Y-62.0
T4
X86.5Y-73.0
X86.5Y-74.0
X86.5Y-75.0
X86.5Y-76.0
X98.5Y-61.5
X98.5Y-62.5
X98.5Y-63.5
X98.5Y-64.5
T5
X63.5Y-87.0
X65.0Y-87.0
X65.5Y-73.0
X67.0Y-73.0
X83.5Y-99.0
X84.5Y-38.0
X85.0Y-99.0
X86.0Y-38.0
X89.5Y-122.5
X90.0Y-63.0
X91.0Y-122.5
X91.5Y-63.0
X93.0Y-38.0
X94.5Y-38.0
X102.5Y-38.5
X104.0Y-38.5
X112.5Y-38.0
X112.5Y-63.5
X114.0Y-38.0
X114.0Y-63.5
T6
X62.5Y-141.5
X65.0Y-141.5
X91.5Y-84.0
X91.5Y-88.05
X94.0Y-84.0
X94.0Y-88.05
X102.9Y-122.92
X102.9Y-133.08
X106.95Y-122.92
X106.95Y-133.08
X111.0Y-122.92
X111.0Y-133.08
X115.05Y-122.92
X115.05Y-133.08
X119.1Y-122.92
X119.1Y-133.08
X123.15Y-122.92
X123.15Y-133.08
X127.2Y-122.92
X127.2Y-133.08
T7
X85.175Y-165.9
X85.785Y-152.11
X87.055Y-154.65
X87.715Y-164.38
X88.325Y-152.11
X89.595Y-154.65
X90.865Y-152.11
X92.135Y-154.65
X93.405Y-152.11
X94.675Y-154.65
X95.285Y-165.9
X95.945Y-152.11
X97.215Y-154.65
X97.825Y-164.38
T8
X57.5Y-55.0
X60.0Y-55.0
X62.5Y-55.0
X65.0Y-55.0
X67.5Y-55.0
X70.0Y-55.0
T9
X49.5Y-141.0
X49.5Y-143.54
X49.5Y-146.08
X49.5Y-148.62
X49.5Y-154.5
X49.5Y-157.04
X49.5Y-159.58
X49.5Y-162.12
X50.0Y-112.72
X50.0Y-115.26
X50.0Y-117.8
X50.0Y-120.34
X50.0Y-122.88
X50.0Y-125.42
X50.0Y-127.96
X50.0Y-130.5
X50.0Y-133.04
X50.0Y-135.58
X50.5Y-55.34
X50.5Y-57.88
X50.5Y-60.42
X50.5Y-62.96
X50.5Y-65.5
X50.5Y-68.04
X50.5Y-70.58
X50.5Y-73.12
X50.5Y-75.66
X50.5Y-82.84
X50.5Y-85.38
X50.5Y-87.92
X50.5Y-90.46
X50.5Y-93.0
X50.5Y-95.54
X50.5Y-98.08
X50.5Y-100.62
X50.5Y-103.16
X50.5Y-105.7
X100.672Y-97.0
X100.672Y-112.0
X107.207Y-97.0
X107.207Y-112.0
X113.742Y-97.0
X113.742Y-112.0
X120.277Y-97.0
X120.277Y-112.0
X126.812Y-97.0
X126.812Y-112.0
T10
X83.725Y-157.95
X99.275Y-157.95
T3
G00X108.1Y-161.8
M15
G01X108.1Y-162.8
M16
G05
G00X108.1Y-164.9
M15
G01X108.1Y-166.1
M16
G05
G00X117.0Y-161.8
M15
G01X117.0Y-162.8
M16
G05
G00X117.0Y-164.9
M15
G01X117.0Y-166.1
M16
G05
M30
